<mxfile host="app.diagrams.net" modified="2022-01-12T07:50:59.962Z" agent="5.0 (Windows NT 10.0; Win64; x64) AppleWebKit/537.36 (KHTML, like Gecko) Chrome/96.0.4664.110 Safari/537.36" etag="WTmxR1bGYO0DCDfQxr_o" version="16.2.4" type="github">
  <diagram id="D3arouLp0Xx4ZUcW7ZfT" name="Page-1">
    <mxGraphModel dx="1200" dy="593" grid="1" gridSize="10" guides="1" tooltips="1" connect="1" arrows="1" fold="1" page="1" pageScale="1" pageWidth="850" pageHeight="1100" math="0" shadow="0">
      <root>
        <mxCell id="0" />
        <mxCell id="1" parent="0" />
        <mxCell id="L34SkDO0q05u7ISoF-Z0-11" style="edgeStyle=orthogonalEdgeStyle;orthogonalLoop=1;jettySize=auto;html=1;exitX=0.035;exitY=0.359;exitDx=0;exitDy=0;fontSize=14;rounded=0;exitPerimeter=0;entryX=1.005;entryY=0.186;entryDx=0;entryDy=0;entryPerimeter=0;" parent="1" source="L34SkDO0q05u7ISoF-Z0-1" target="L34SkDO0q05u7ISoF-Z0-2" edge="1">
          <mxGeometry relative="1" as="geometry">
            <mxPoint x="118" y="140" as="targetPoint" />
            <Array as="points">
              <mxPoint x="384" y="74" />
            </Array>
          </mxGeometry>
        </mxCell>
        <mxCell id="L34SkDO0q05u7ISoF-Z0-12" value="Pilihan materi bimbel" style="edgeLabel;html=1;align=center;verticalAlign=middle;resizable=0;points=[];fontSize=14;" parent="L34SkDO0q05u7ISoF-Z0-11" vertex="1" connectable="0">
          <mxGeometry x="0.04" y="-1" relative="1" as="geometry">
            <mxPoint x="1" y="1" as="offset" />
          </mxGeometry>
        </mxCell>
        <mxCell id="L34SkDO0q05u7ISoF-Z0-19" style="edgeStyle=orthogonalEdgeStyle;rounded=0;orthogonalLoop=1;jettySize=auto;html=1;exitX=1;exitY=0.5;exitDx=0;exitDy=0;entryX=-0.018;entryY=0.847;entryDx=0;entryDy=0;entryPerimeter=0;fontSize=14;" parent="1" source="L34SkDO0q05u7ISoF-Z0-1" target="L34SkDO0q05u7ISoF-Z0-3" edge="1">
          <mxGeometry relative="1" as="geometry" />
        </mxCell>
        <mxCell id="L34SkDO0q05u7ISoF-Z0-20" value="Bukti Pembayaran" style="edgeLabel;html=1;align=center;verticalAlign=middle;resizable=0;points=[];fontSize=14;" parent="L34SkDO0q05u7ISoF-Z0-19" vertex="1" connectable="0">
          <mxGeometry x="0.1872" relative="1" as="geometry">
            <mxPoint x="-21" y="-1" as="offset" />
          </mxGeometry>
        </mxCell>
        <mxCell id="L34SkDO0q05u7ISoF-Z0-1" value="Sistem Berajah Solution" style="ellipse;whiteSpace=wrap;html=1;aspect=fixed;fontSize=15;" parent="1" vertex="1">
          <mxGeometry x="380" y="20" width="120" height="120" as="geometry" />
        </mxCell>
        <mxCell id="L34SkDO0q05u7ISoF-Z0-4" style="edgeStyle=orthogonalEdgeStyle;rounded=0;orthogonalLoop=1;jettySize=auto;html=1;exitX=0.5;exitY=0;exitDx=0;exitDy=0;entryX=0.057;entryY=0.251;entryDx=0;entryDy=0;entryPerimeter=0;fontSize=14;" parent="1" source="L34SkDO0q05u7ISoF-Z0-2" target="L34SkDO0q05u7ISoF-Z0-1" edge="1">
          <mxGeometry relative="1" as="geometry">
            <Array as="points">
              <mxPoint x="130" y="63" />
              <mxPoint x="130" y="50" />
            </Array>
          </mxGeometry>
        </mxCell>
        <mxCell id="L34SkDO0q05u7ISoF-Z0-5" value="Melakukan Pendaftaran" style="edgeLabel;html=1;align=center;verticalAlign=middle;resizable=0;points=[];fontSize=14;" parent="L34SkDO0q05u7ISoF-Z0-4" vertex="1" connectable="0">
          <mxGeometry x="0.4557" y="-3" relative="1" as="geometry">
            <mxPoint x="-49" y="-2" as="offset" />
          </mxGeometry>
        </mxCell>
        <mxCell id="L34SkDO0q05u7ISoF-Z0-8" style="edgeStyle=orthogonalEdgeStyle;rounded=0;orthogonalLoop=1;jettySize=auto;html=1;fontSize=14;entryX=0;entryY=1;entryDx=0;entryDy=0;exitX=0.75;exitY=1;exitDx=0;exitDy=0;" parent="1" source="L34SkDO0q05u7ISoF-Z0-2" target="L34SkDO0q05u7ISoF-Z0-1" edge="1">
          <mxGeometry relative="1" as="geometry">
            <mxPoint x="120" y="130" as="sourcePoint" />
            <Array as="points">
              <mxPoint x="140" y="120" />
              <mxPoint x="140" y="122" />
            </Array>
          </mxGeometry>
        </mxCell>
        <mxCell id="L34SkDO0q05u7ISoF-Z0-9" value="Melakukan Pembayaran" style="edgeLabel;html=1;align=center;verticalAlign=middle;resizable=0;points=[];fontSize=14;" parent="L34SkDO0q05u7ISoF-Z0-8" vertex="1" connectable="0">
          <mxGeometry x="0.1598" y="-1" relative="1" as="geometry">
            <mxPoint x="2" y="-3" as="offset" />
          </mxGeometry>
        </mxCell>
        <mxCell id="L34SkDO0q05u7ISoF-Z0-2" value="Siswa" style="rounded=0;whiteSpace=wrap;html=1;fontSize=21;" parent="1" vertex="1">
          <mxGeometry x="20" y="63" width="120" height="60" as="geometry" />
        </mxCell>
        <mxCell id="L34SkDO0q05u7ISoF-Z0-15" style="edgeStyle=orthogonalEdgeStyle;rounded=0;orthogonalLoop=1;jettySize=auto;html=1;exitX=0;exitY=0.25;exitDx=0;exitDy=0;entryX=1;entryY=0;entryDx=0;entryDy=0;fontSize=14;" parent="1" source="L34SkDO0q05u7ISoF-Z0-3" target="L34SkDO0q05u7ISoF-Z0-1" edge="1">
          <mxGeometry relative="1" as="geometry">
            <Array as="points">
              <mxPoint x="690" y="38" />
              <mxPoint x="595" y="38" />
            </Array>
          </mxGeometry>
        </mxCell>
        <mxCell id="L34SkDO0q05u7ISoF-Z0-16" value="Kelola Bimbel" style="edgeLabel;html=1;align=center;verticalAlign=middle;resizable=0;points=[];fontSize=14;" parent="L34SkDO0q05u7ISoF-Z0-15" vertex="1" connectable="0">
          <mxGeometry x="0.0563" y="2" relative="1" as="geometry">
            <mxPoint as="offset" />
          </mxGeometry>
        </mxCell>
        <mxCell id="L34SkDO0q05u7ISoF-Z0-17" style="edgeStyle=orthogonalEdgeStyle;rounded=0;orthogonalLoop=1;jettySize=auto;html=1;exitX=0;exitY=0.5;exitDx=0;exitDy=0;entryX=0.975;entryY=0.333;entryDx=0;entryDy=0;entryPerimeter=0;fontSize=14;" parent="1" source="L34SkDO0q05u7ISoF-Z0-3" target="L34SkDO0q05u7ISoF-Z0-1" edge="1">
          <mxGeometry relative="1" as="geometry" />
        </mxCell>
        <mxCell id="L34SkDO0q05u7ISoF-Z0-18" value="Kelola TryOut" style="edgeLabel;html=1;align=center;verticalAlign=middle;resizable=0;points=[];fontSize=14;" parent="L34SkDO0q05u7ISoF-Z0-17" vertex="1" connectable="0">
          <mxGeometry x="0.2142" y="-2" relative="1" as="geometry">
            <mxPoint x="18" y="2" as="offset" />
          </mxGeometry>
        </mxCell>
        <mxCell id="L34SkDO0q05u7ISoF-Z0-21" style="edgeStyle=orthogonalEdgeStyle;rounded=0;orthogonalLoop=1;jettySize=auto;html=1;exitX=0.25;exitY=1;exitDx=0;exitDy=0;fontSize=14;" parent="1" source="L34SkDO0q05u7ISoF-Z0-3" target="L34SkDO0q05u7ISoF-Z0-1" edge="1">
          <mxGeometry relative="1" as="geometry">
            <Array as="points">
              <mxPoint x="720" y="110" />
            </Array>
          </mxGeometry>
        </mxCell>
        <mxCell id="L34SkDO0q05u7ISoF-Z0-22" value="Konfirmasi Pembayaran" style="edgeLabel;html=1;align=center;verticalAlign=middle;resizable=0;points=[];fontSize=14;" parent="L34SkDO0q05u7ISoF-Z0-21" vertex="1" connectable="0">
          <mxGeometry x="0.232" y="3" relative="1" as="geometry">
            <mxPoint x="13" as="offset" />
          </mxGeometry>
        </mxCell>
        <mxCell id="L34SkDO0q05u7ISoF-Z0-3" value="Admin" style="rounded=0;whiteSpace=wrap;html=1;fontSize=21;" parent="1" vertex="1">
          <mxGeometry x="690" y="30" width="120" height="60" as="geometry" />
        </mxCell>
        <mxCell id="L34SkDO0q05u7ISoF-Z0-13" style="edgeStyle=orthogonalEdgeStyle;orthogonalLoop=1;jettySize=auto;html=1;fontSize=14;rounded=0;entryX=1;entryY=0.598;entryDx=0;entryDy=0;entryPerimeter=0;" parent="1" source="L34SkDO0q05u7ISoF-Z0-1" target="L34SkDO0q05u7ISoF-Z0-2" edge="1">
          <mxGeometry relative="1" as="geometry">
            <mxPoint x="380" y="100" as="sourcePoint" />
            <mxPoint x="128" y="140" as="targetPoint" />
            <Array as="points">
              <mxPoint x="180" y="99" />
              <mxPoint x="180" y="99" />
            </Array>
          </mxGeometry>
        </mxCell>
        <mxCell id="L34SkDO0q05u7ISoF-Z0-14" value="Pilihan materi TryOut" style="edgeLabel;html=1;align=center;verticalAlign=middle;resizable=0;points=[];fontSize=14;" parent="L34SkDO0q05u7ISoF-Z0-13" vertex="1" connectable="0">
          <mxGeometry x="0.04" y="-1" relative="1" as="geometry">
            <mxPoint x="4" as="offset" />
          </mxGeometry>
        </mxCell>
        <mxCell id="L34SkDO0q05u7ISoF-Z0-78" style="edgeStyle=orthogonalEdgeStyle;rounded=0;orthogonalLoop=1;jettySize=auto;html=1;exitX=1;exitY=0.5;exitDx=0;exitDy=0;fontSize=15;" parent="1" source="L34SkDO0q05u7ISoF-Z0-27" target="L34SkDO0q05u7ISoF-Z0-65" edge="1">
          <mxGeometry relative="1" as="geometry" />
        </mxCell>
        <mxCell id="L34SkDO0q05u7ISoF-Z0-79" value="identitas" style="edgeLabel;html=1;align=center;verticalAlign=middle;resizable=0;points=[];fontSize=15;" parent="L34SkDO0q05u7ISoF-Z0-78" vertex="1" connectable="0">
          <mxGeometry x="-0.1657" y="-1" relative="1" as="geometry">
            <mxPoint y="-2" as="offset" />
          </mxGeometry>
        </mxCell>
        <mxCell id="0cTZflGvRC0s0U41Xg0D-5" style="edgeStyle=orthogonalEdgeStyle;rounded=0;orthogonalLoop=1;jettySize=auto;html=1;exitX=0.5;exitY=1;exitDx=0;exitDy=0;entryX=0.5;entryY=0;entryDx=0;entryDy=0;fontSize=15;" edge="1" parent="1" source="L34SkDO0q05u7ISoF-Z0-27" target="L34SkDO0q05u7ISoF-Z0-68">
          <mxGeometry relative="1" as="geometry" />
        </mxCell>
        <mxCell id="L34SkDO0q05u7ISoF-Z0-27" value="1. Proses Pendaftaran" style="ellipse;whiteSpace=wrap;html=1;aspect=fixed;fontSize=15;" parent="1" vertex="1">
          <mxGeometry x="389.91" y="180" width="120" height="120" as="geometry" />
        </mxCell>
        <mxCell id="L34SkDO0q05u7ISoF-Z0-28" style="edgeStyle=orthogonalEdgeStyle;rounded=0;orthogonalLoop=1;jettySize=auto;html=1;exitX=0.5;exitY=0;exitDx=0;exitDy=0;fontSize=14;" parent="1" source="L34SkDO0q05u7ISoF-Z0-32" edge="1">
          <mxGeometry relative="1" as="geometry">
            <Array as="points">
              <mxPoint x="169.91" y="223" />
              <mxPoint x="139.91" y="223" />
              <mxPoint x="139.91" y="240" />
              <mxPoint x="389.91" y="240" />
            </Array>
            <mxPoint x="389.91" y="240" as="targetPoint" />
          </mxGeometry>
        </mxCell>
        <mxCell id="L34SkDO0q05u7ISoF-Z0-29" value="Daftar" style="edgeLabel;html=1;align=center;verticalAlign=middle;resizable=0;points=[];fontSize=14;" parent="L34SkDO0q05u7ISoF-Z0-28" vertex="1" connectable="0">
          <mxGeometry x="0.4557" y="-3" relative="1" as="geometry">
            <mxPoint x="7" y="-3" as="offset" />
          </mxGeometry>
        </mxCell>
        <mxCell id="L34SkDO0q05u7ISoF-Z0-80" style="edgeStyle=orthogonalEdgeStyle;rounded=0;orthogonalLoop=1;jettySize=auto;html=1;exitX=0.75;exitY=1;exitDx=0;exitDy=0;entryX=0;entryY=0;entryDx=0;entryDy=0;fontSize=15;" parent="1" source="L34SkDO0q05u7ISoF-Z0-32" target="L34SkDO0q05u7ISoF-Z0-68" edge="1">
          <mxGeometry relative="1" as="geometry" />
        </mxCell>
        <mxCell id="L34SkDO0q05u7ISoF-Z0-81" value="login" style="edgeLabel;html=1;align=center;verticalAlign=middle;resizable=0;points=[];fontSize=15;" parent="L34SkDO0q05u7ISoF-Z0-80" vertex="1" connectable="0">
          <mxGeometry x="0.0796" relative="1" as="geometry">
            <mxPoint as="offset" />
          </mxGeometry>
        </mxCell>
        <mxCell id="L34SkDO0q05u7ISoF-Z0-93" style="edgeStyle=orthogonalEdgeStyle;rounded=0;orthogonalLoop=1;jettySize=auto;html=1;exitX=0.5;exitY=1;exitDx=0;exitDy=0;fontSize=15;" parent="1" source="L34SkDO0q05u7ISoF-Z0-75" target="L34SkDO0q05u7ISoF-Z0-92" edge="1">
          <mxGeometry relative="1" as="geometry">
            <Array as="points">
              <mxPoint x="139.91" y="530" />
            </Array>
          </mxGeometry>
        </mxCell>
        <mxCell id="L34SkDO0q05u7ISoF-Z0-96" value="input tutor" style="edgeLabel;html=1;align=center;verticalAlign=middle;resizable=0;points=[];fontSize=15;" parent="L34SkDO0q05u7ISoF-Z0-93" vertex="1" connectable="0">
          <mxGeometry x="0.2278" y="-2" relative="1" as="geometry">
            <mxPoint x="22" y="-2" as="offset" />
          </mxGeometry>
        </mxCell>
        <mxCell id="L34SkDO0q05u7ISoF-Z0-115" style="edgeStyle=orthogonalEdgeStyle;rounded=0;orthogonalLoop=1;jettySize=auto;html=1;exitX=0;exitY=0.75;exitDx=0;exitDy=0;fontSize=15;entryX=0.078;entryY=0.208;entryDx=0;entryDy=0;entryPerimeter=0;" parent="1" source="L34SkDO0q05u7ISoF-Z0-32" target="L34SkDO0q05u7ISoF-Z0-114" edge="1">
          <mxGeometry relative="1" as="geometry">
            <mxPoint x="370" y="817" as="targetPoint" />
            <Array as="points">
              <mxPoint x="110" y="240" />
              <mxPoint x="60" y="240" />
              <mxPoint x="60" y="817" />
            </Array>
          </mxGeometry>
        </mxCell>
        <mxCell id="0cTZflGvRC0s0U41Xg0D-1" value="memilih materi" style="edgeLabel;html=1;align=center;verticalAlign=middle;resizable=0;points=[];fontSize=15;" vertex="1" connectable="0" parent="L34SkDO0q05u7ISoF-Z0-115">
          <mxGeometry x="0.1482" relative="1" as="geometry">
            <mxPoint x="147" y="84" as="offset" />
          </mxGeometry>
        </mxCell>
        <mxCell id="L34SkDO0q05u7ISoF-Z0-32" value="Siswa" style="rounded=0;whiteSpace=wrap;html=1;fontSize=21;" parent="1" vertex="1">
          <mxGeometry x="109.91" y="210" width="120" height="60" as="geometry" />
        </mxCell>
        <mxCell id="L34SkDO0q05u7ISoF-Z0-63" value="" style="shape=image;verticalLabelPosition=bottom;labelBackgroundColor=default;verticalAlign=top;aspect=fixed;imageAspect=0;image=data:image/png,iVBORw0KGgoAAAANSUhEUgAAAoAAAAHJCAYAAAAVcogaAAAAAXNSR0IArs4c6QAAAARnQU1BAACxjwv8YQUAAAAJcEhZcwAADsMAAA7DAcdvqGQAAPniSURBVHhe7N0JvG9T+T/w3TzPEymlKBWRkhJSGoxppmhAkuY0TzQaCiWSCKGRigaVNBoKSSFSimZDNKtf4/3f96rP/S+ncw733HPPPed8n8/rtV577zWvtdd61mc/a9jXWbAQQ+Fq+Ne//jVc97rXHf7973+3K/zjH/8YTjvttOHss88envWsZw03v/nNB1V3netcpxlIVXoWB/zhD38YPvnJTw7bbrvtcOMb33iRX+CfkUZvXygUCoVCobA08R92U7gaELKQOSQw5sILLxy+9KUvDde73vWGv/zlL8NPfvKTZvfnP/95+Oc//9n8XHTRRcNPf/rT4Ve/+tVwxRVXNGLn+e9///vwy1/+cvjFL37R/LiyC1EsFAqFQqFQmCnMKgKIdCFR0YzFjqGBQ5biJ/6WBpJGn9b1r3/99iwPno899tjhwAMPHA4++ODhIx/5yPDHP/6xaQh333334eijjx7e8573DMcff/xw1VVXtbwjiCeccMLw7ne/e/jQhz40vO997xt++MMfDje84Q1L+1coFJYqIsci08ijHnED19wXCoX5i1k1BRwhlGlXxIh27dJLL233f/vb3xaRJf7c53k6IU7xZyrYvbydcsopw4knnthI3stf/vJhk002adO6RxxxxLDrrrs2ImjKd6eddhqOPPLI4Y53vOPwtKc9bXjDG97Q/Oy5555NM7jddtsNH/zgB4eNNtpoeOhDHzrc4AY3WCrlKBQKBQjhI2vyEeveh+3yyy+/aHkKE4JopoMpFArzE7OGABI6IUG5srv44ouHbbbZZrj//e/fpl0JJO4haPE7nRDvjW50oyYExc/c4Q53aG7WANLuvfGNbxze9KY3tbWAO+yww7Djjjs2zd4GG2wwPOc5zxn22muvNsXr/hWveMVw6KGHNo3h73//+xb2Na95zbDSSiu1Mv36179u5SkUCoWlAbIUyLXITR/Ut7zlLZuMesADHtDsQ/rIo8i+QqEwPzFrCGC+OCHCh0A666yzhgMOOKBpz0yX8hOy2K/Vm06Is8+Dq2dTuKZ+991330bi7nznOw/LLbfc8NWvfrVpBT/zmc8MJ5988rD22msP3/jGN4Y111xzeO5znzu87GUvaxpB07+E7mtf+9rh1a9+9fDABz5weNzjHjfc7GY3W6T1LBQKhelGiFzkpevll1/eZiIe/ehHDxtuuGGziwwOEq5QKMw/zBoCGKIFvTbw9NNPb4TrmGOOuRop6wnTdAspmjtTI9KQlnTl6Wtf+9pw3nnnDS95yUuGCy64oJE6eOxjHzust956bbMHIkgryH3ddddt2kvE0LQwAknAEraIJK3iox71qOEmN7lJCdpCobBU0Iv4yE/Xn//858P73//+YdNNN23yq3fP/VhCWCgU5g9m1RRwiF+IHgJ2xhlnDO9617va+rp+XUr888PvdEI6Yzd9eI6b9EMOuWVdzeGHHz5885vfHO5zn/u0Xb7rrLPO8MQnPnHRGj/hbAhxFXfiEPd0l6FQKBSAjCJvGLKGzCGDyKiDDjpo2HjjjdvHKvSyqVAozG9c700Wss0S9IInhMj6OKTqSU960v+QvaUlpAjBfkoapCt/yFyEKcEae/crrrjicItb3GK46U1vOtz73vceHv7whzdtIIHLn/hc5Tv3IZqFQqGwNEDeMORMZCbZY4PdmWee2dYiM9zy8UueMfFfKBTmH2aNBlA2khVXAsqVgIoGMEKs97O0QPghaa7SStrSZNgHcQ96fwQqt4SPW+CeXaFQKCxNRP4AeeRcUhvTsgYwci2yKv4KhcL8xKzq3b2wCUlyHUuYerv+eTpNtH/y1GvuXGMfE/eY3p+vac/Qu8XEvkyZMmWWhgl6ORSMlV+Re+7jv1AozE9UDy8UCoVCoVAYMRQBLBQKhUKhUBgxFAEsFAqFQqFQGDEUASwUCoVCoVAYMRQBLBQKhUKhUBgxFAEsFAqFQqFQGDEUASwUCoVCoVAYMRQBLBQKhUKhUBgxFAEsFAqFQqFQGDEUASwUCoVCoVAYMRQBLBQKhUKhUBgxFAEsFAqFQqFQGDEUASwUCoVCoVAYMRQBLBQKhUKhUBgxFAEsFAqFQqFQGDEUASwUCoVCoVAYMRQBLBQKhUKhUBgxFAEsFAqFQqFQGDFcZ8FC/Pd+mUI2rnOd6wz//ve/2/11r3vddv+d73xneNe73jV8+MMfbnZBsi3MRBD+yiuvbFcGksZk4UYZ6jh1dIMb3GC45S1vuaje41YoFGYekVsM+RcZ2MvFsYgfSJiE/9WvfjUcdthhw/rrrz9suOGGzV5cCZO+3j/nPtf47/0kXKFQmN2Y1wTw4osvHg466KDhxje+8fCPf/xjuN71rrdIYBUJHB95D//6179avW288cbDmmuu2eyuf/3rV50VCssIPQHUP13115jIN7IOfMDx99vf/raRvcsuu2z4zW9+M/zhD38Y/vznPw+XXHLJcM455wwrrLDCcM973nO41a1uNdzxjnccbn7zm7frPe5xj+H2t799izvpiVP88nLDG97wavI04K+X1YVCYXZiXhNAYV/3utcNr3jFK5rgirDKtfC/SL0YJL7yla8Ma6211rDNNtu0wQUmq+9CobB08fe//719iAH5qF/+85//bM9IWojZ3/72t+Hss88eTjrppEb++EPsbnGLWww3u9nNhtve9rbtAw/0+d///vct7F/+8pc2a4LkIY63u93thnXXXXd44AMf2MhgyGXIX9IkXyO/IfKiUCjMXsxrAvi9731v2G233YZPfepTVyN9s6TIsxbqyoDwwQ9+sA0a22+/fbMr8lcoLDsgf/ogAojgIWFkGcPe9ac//elw5JFHDieffPJwl7vcZXjEIx4xrL766sMd7nCH4SY3uclwoxvdqJG1EDbQtxE5BsET91VXXdU+Ai+88MLhlFNOGb7//e8Pd7/73YdnPvOZw0Me8pCrpR24j4wuWVEozH7MawJ4+umnD3vuuedwzDHHNP++Svn/v//7vyYIS0j9L9STQeBPf/rT8NGPfrRpC57+9Kc3t6qzQmHZQd9EAslBsgxhczWd+4tf/GL4whe+MJx55pmN9D35yU9u63chcg/IVOEjP125uTK0ifzQDrL37Mru1FNPHT72sY+1cE94whOGBz/4wYvWCI+NP8+FQmH2Yl4v1CCI8qVLCEa4+RKOkCpzdWMQ8HVPy6CuGHXIrlAoLDukL4K+arr229/+dvs4PvTQQ4fb3OY2w/777z/suOOOw61vfevWh8k5RFG/Fr4HuyD3+nm0e/xLJwTSRpF999132HrrrYdvfOMbw3vf+97h61//+vDrX/+6heU/MrZQKMx+zGsCSJARSBFu2cTgucz4BnoBbgBhSqgXCssW0frR0F9xxRXD5z//+WZ80D7/+c8fnvGMZ1xt00b6bD52e7tAnMAtRDH+IdfIBmk9/OEPH3bZZZdhnXXWaQTw8MMPH84777zmh7wtFApzA/OaABJIBB6BlmcoMjMx+rpKfblmICgUCksP+lr/0Qp9XwS7d63PtUljq622asaO3WgH9eHMfMSAD+Jeg5i+Dogg95C/uCdswgF7RBMR3GmnnYZVV121aSFpIy0TIV8jY2kp5X088lkoFJYt5jUBDCLQch/Evsz/Gsig47kfDAqFwtJD3/+s+UOcQgJ//OMft6nXu971rsPTnva0Rr6yNnes0WdjPAe9H+Ce2ZGxJmH7Z5AXpHH55Zcftthii2GzzTYbvva1rw1f/OIXW565W0csXleIlrFQKMwOjAQBLBQKhbmAaMlCohh2duY60sVav8c//vHNWPNHW8jvTAMZDDFFQG0IQQKdvHDIIYe08wZvetObNsLnJAEoDWChMLtQBLBQKBRmCWjVkLpswvJsGtWxLjZeOJLpoQ99aJuu/etf/9rWA/Iz05o1xE+aiGCeV1tttbYBxTrBE044oR08LZ/Ar2lkeS0UCrMDRQALhUJhlgCRQpSQP+TK809+8pO2vs5fee51r3s1chiSmLV+7mcaSRukTxNp9/Gmm246XH755Y200lzyw8hzaQELhdmDIoCFQqEwyxDS5C8eX/3qV9vhyzRs7Gj9XBEuV6QKuZppIKeBfGSjyHLLLdfOITz//PPbIdLRTi4LklooFCZGEcBCoVCYJUCkTO0iV5deeunwoQ99qO3wzbQvdxsxuIdQuc/mjJmC9Eznyg+4MuwQUptUkEDHxFgXGPv4LxQKyx5FABcThK0/iYAv23zd+hon4Ex58OPeNdMe7p3Y34Nf4bn5qs9ibnbCsOPGQOJLGCbps+e/D7ckEN4AQ2C7F6dyJ71CobB04C8c+t4RRxzR/sVr6rff6YtMcWfnnubtmghgZAb5EFnB2FXs37/6dmQHuGcmQ/KTe3lJfjzf5z73GXbYYYfhwAMPbH8qYScfkU+9jLo26c1nqJfxZGvqaz7C+894Vlg2KAK4mPB1rsH6v/CrXvWq9vsldvkad41gCykkXN/85jcPxx13XHtOg/dF7x4xJMAJSB0iglpcnt/xjncMb3vb24Zzzz23+eFXOH7c85NBgXvyMhVIWxziZsTtSqgbcKTHT8oIyXOhUFgy6EcG/O9+97tt7Z8z/vS5GH0zMiBXZjLov/wCmcS/o1k++clPDi972cvaLzMzfQuRAQkzEeKn9+de/OSTq/8HOy/wAx/4QCsX914+5YO58B94V95R6kUdZkyZ66YvG+PZuHVN7bew9FA1v5ggKO1u83/id7/73c0Q1Bp4hB545pe54IIL2i+aPvvZzzZ3bkgTYcjdMQl2+jE6BbiGfPkHJ/O73/2uhWEP+WqH+Bc3P8ySQMcUh3jFCSmjdFyDJU2rUCj8B/qbvkVr9tSnPrXJhiX5oAPx6bviFhfy94lPfGL4+Mc/3mQX98iVkI2EmSrIDyDvNtpoo/bnEv917+Uj9DLGdVShXhj1YUzIdD/Mh3rxfhntQtmi0Va2UX7vyxpFABcTGvFZZ53Vpk5WWGGF9guks88+u5ExjVtjJkgvuuiiph10dpevHYKVIVh//vOfN1LIjzUy/BGQvo48+72TKRNxEQqPecxj2hlbd7rTnYY//OEPw49+9KMW1j84hf3Sl77Uzt2K0I1wnQoS1jXCKPmOnTylrOzcR1gVCoWpQ19y3Mstb3nLYYMNNlhEypZkoAzp0ocjI+585zu3+FdeeeUWf/o1pF/neSroZcKtbnWr4dGPfnQ7KJqcE3emgckXVxhlGaIOUu/9MyzJe5iNSDmZJf3QKCwZrvemhfjv/TIHAZDGkHu/PTrttNOGJz3pSeMKiMmEhkXUCJWfl4P4Eq/rZGEnAi3dG9/4xtaIt9xyy+Hiiy9u5O9hD3tYO/9Kgz7jjDOGd77zne33SOecc04je0jimmuuOTzykY8cjj322PYrJ9M8Rx99dJuKQSQRO1/mppfdr7HGGm0geM973tMI3/3vf//h97//ffshO2L5rW99azjmmGOG448/vq3jcUQE/1MtGyQcLYE8W4/0gAc8YFGdQeJnp7zqInaFQmHqsOuXZo72zwcmchYCsKR9LP0V7n3ve7e4v/nNbza5tMoqq7R0st4s6Uw1vQzywosXCSTvxE9OcWPPXZ5CQqea3lyH+mLUCaN+5ptcVaa0CSbvH9wXZh5V64sJRA3x8iP0Zz3rWcMDH/jAtoaGZk5jdj3ssMMaeXIo6qtf/eom3Ag5Gj7mZz/7WZvSvcMd7tDWBhKItH4Iq3WF1sx4Rh4JAWTQ/VVXXdWMuAluR0O84Q1vaMIbiXRWWASH61Qgn4wvc+TPPYKbDhvhlIGitH+FwvTBkS+In120+pW+DOl7U0FkgfD6q+k38Ua7mOlGsonfnnROFeLp0/Vhet/73nf4/ve/37SA5Iv0A+mPshzJ+1UnWSvpOfWY+pnLRttL2+rLyRSWDa6zsHHNCv1rGnnIi0bi3roR6+1o09gFyfZkjcfxAxScNG4gvsTrOlHYyarErjYat1e+8pXDdttt1zR9/s1pMfVrX/va4ac//Wk7/uCe97znsM8++7QjHBBEv25yQKqy2NRB8+ee3Vvf+tb2+yRxvPSlL20Lpt/ylrcMb3/725smYL311msbTfgnrKUNymWXIPuDDz542GOPPYanP/3pi+ppKh1L2Rk/mj/ggAOGH/zgB43sstNhdWIDxc1udrNGftdaa61GFCerz8L46NtZ6m6sXf8M4/mD3m+9h9mPse8PyCWzC458sfPXIBlyFi3ZNWFsO3Av3kA/FZermYq99tpreO5znzs89rGPbfb6N+jr/CBqi4uk38tbefnhD3/YZiw23HDDYd11121p5CMzbTbpLy7GlvnaIukua3jXlv14JxQEyuB9q7vU31xG2qD2bPzwzm0QosQwRs718s1VlAZwHGisGihEgHpGinRQGjEkDTFzTpc1fqZtrMPTaUOUCE/3vriFd6+hhywhUeDrmAC4y13u0q69EJS2qWVXhsBMZxFeXLe//e1b3DG9QJ0KpCNekLb83eIWtxhue9vbtkXp/kH6y1/+cvjYxz7WNqakPIXFg3rOrnLtLIZ97rUHV35i70qIQvxA3AuzG3mf4J3lfea8vOWXX771Kf7St0L+0h4g/T3xxT7tIKaPK+Bfv7a+2Edk8tH7vTaEczIoi7yLS75XXHHFFieiI42Q2/jr5d7iQFx9H0p/yDMTkNXRdCrvbIM68TcVMp3MZTybQp/LRhmYjCPutQXvLX2hsAywsCPMCizsjO26sDEsWNiB27Pr6aefvmDrrbdu9j24J8xE+O53v7tgyy23XOS3j3eysAsJ3n/vFjS/MQceeOCChUJzwVOf+tQFb3vb2xa8/e1vX7Dwi33BBhtssOCmN73pgv3333/BQuG2YKFQXbDWWmstOO644xYs/OptfoXbZpttFvzhD39Y8PrXv37Bwq+eBV/96lcXLBRGC/bcc88Fd7jDHRYsJJMLFgqolo7nI444YsFCUtniWmWVVRYcf/zxC0488cQFq6++ejOXXHLJgquuumrBAQccsGC55ZZbcNhhh12t/qYC4RaSkgULyW6L95BDDlnwl7/8ZVEdcJfnL3zhCwve+ta3tjxMNa3Cf9o7qMPepL4XDvDtyh/jWf3nXcQPuI7tJ4XZh7xPV+8y7/jQQw9tsuDKK69s75Zb3jmwSztIO0lbSHy59ibtJGHIN/7IGvLI1bO44jf+p4KkE5O4pbvwo3HBPvvss+Dyyy9v9r2fqSL5zb24YsekfpNO7z5bkHylPcirK8N+rqOv+5RNe5ht72HUUBrAceBLdGHdLDILG2zTdGXK9YUvfGFbq2cqdiGZG170ohe1r3abN2joTPf+8Y9/HHbfffdmvvzlL7cvT1+5tIf5oo8d48vPs7QWdpL2vLBjNH80ifka5+a5/1pm5ytbePdLguRNPOKTjrzIl/wAd/YLO/EijQRTWDzkXTNpB5C69Kyeo7lh7z7vX3h2ueeWOAqzF/179u68f2uHbXgzC0Bjkr4ffzE9PItL+LQF6ON378o9YCd+aS/8cG3thnv6PXBLPIuLPv3kK+124YdrW+tstoS/pDfVtED8MYlnIZFqV89JZ2wdLUmaSwPy5h3Il/fjmue+jHPRQMrhPWhfxpXevTDzqF3A44CwyKDb+0OIrNlzfAKiBzqo41kYaxrsBl5ppZXaugbp3PGOd2zr+NZee+3mtuqqq7ZpVWsE2RH2hLCNHHYIm17lLg7+hTfV+6AHPaj59yytBz/4wW39nell4aVt7RD3JRHeOqewBKiDp8VvlyC7nmDY/WzHonxR68NU0xxlqLPUm3aX9g/egWfvM+DX4OA9gXfCTwaM3m9h9sK7Sn/y/qz7clqAPu1jUlsIAeyRvi0MP3kWl3v2GWAjw9jxw0DS7e34F5/nhIO4LykSL1nh6CrH0NztbndreUsZpgphxQPS8GGa8rN3ZZKH1FGeZwPG9mfI+2SWpH5mE1KOse9svpRvrqE2gYwD7nGTDmOAJVgIZYYfX7Qhi/7mIYw1cvyxRxghx8Po0L56uHMTPnF45s+gz5+rZ+kw8iCsNBJvdvMBu2jq5E8cU4Hw0nDczOGHH97I5/bbb79oMEp6zh60E/n5z39+I6TCpM4Kiw9tQBtTz2nn6jptLu/TM/e03/jhzl+9g9mP9DEm/dbZf2YKnvOc57S1cpGB2kTefWQRpI307YYs6f1wS78NJmof/AonrcSRNjYVJA4G+rjMmjiGxoex9OR7SSH/4remVn2KN30l/SLP7pe0fNMN+YfUP8ibtpK8zmX07SD3PWbLexg1zO1WtRSRjtd3vkyXRGjxA/xwy6YObjSE2TzhOYYQ0tj51+nFQUARWuJG+ty7ehaGuzTTedghf8CeEV/iiYCbCoSNMJJe0g7YMexSP/FfWDwYuJlA3TMWySPYGczSFl3jh4md9wE2KNF6F2Y30m9ivEsfkJaH+ID0nL6edx3DPnLHMhMfxk4R8N/gz3zmM8PJJ5/c7IXlL34Dz2SQPqvt+dBkxJ0+HbslQZ/ftM+U1+yGvylFFk4HpCEuclcaFAf580jqIURQ2SzpcaTWbEHqK+8n74hd6m8uI+XzbpTNO1BWzzV+LDsUAZwAaaxppIQjuxAsJnYRZAz/uU/HdY+0ee4JHcLoGdiNTS9CzT13btC7sSPIcy+s+6lCWHGAdBjxKiMkD/wlDylnYfHQk2v16J5GyNT7UUcdtYjMqXuDOrf4d480eFeEqYPAv/KVr7SB1TPyyN3B5fwQsnl3hZmBetc3L7/88kXkPP3I+/Y+9P+8Q+2h1/rz08sFcblPeATGeaGf/vSn2182tBnaNUdKed/aiPS0g7x/B7x77uMXL7sQRzKOEZ6dONgz7KxXZNiLJ265D8QfEwhjmYp4+4E/4acKcTHqRB848sgjh8997nPNTprKLe/ScI6qWSVkGbgx+sy1zUfKzDiU33FZ6Y+JQ9q5d50MkaV5JxkvEo8rtz6ePp9x4zfwnDiZ4Nrawdg0GPEm7j4/uY+/hM19yqBs2lfGDXaFZYNaAzgO4qaBGnBzP55/9jps3NOog7Hh3I+NJ+FixvrJc+8ee88hBX3Y+JkKhCUs/fKOptG6pKSh7nRkawCZfg0gtzLX3oS4Q76ICUdrwRzq7Sw4A+Vxxx3Xpgj9t9Xh4QY5/5U+5ZRT2jvwW0IHBxuArKu68MIL28HgiKR4vDvhktZ4eSkzvQbpAAMycmaphPfiN5DeE6KXGQP+LVdB4v0yzfsar5+7xmgr2oGDo20ccQaos/y++MUvtr8GPeIRjxgOPfTQ9vcN6SJdSKjlMGeeeWbbhGG9MdLjOCfLObQVZNX0rDDO7CM/tTHHkoBjr9iRyQ50tl5RWUJ2guQ96PMuDdo5B97T2IUcBH09XhsjrKv2jvg5ON+B/bSpDtlHkPUVh1A7ZBthQ5bzGzyb9+RHGGupyTzxTZSXpMcoj+PA1Id1nMrG3bvNuBC/MLZexiLx9+9b3aZ+k2bs+OvdyRR2rkHiFM59wgXcUiaIP+A3+YCEh6TJTXvvy8oucSZP7iF5GWsKM49S3RQWCzqqzky4uUcU07ELUwPypw7VawQpGBxpc5A/BM8ghdg59PsjH/lIG5QN3AY4Aw8NoP9DG+gM6pYg0HY4dNx7SryFmYP36p0iZcgJDZ3D3l/wghe0g979EciHqjbgfLTJ3lH62diBFOHx96GDDjqoETebx2jopIf0OXPNYfQOrddvPWsfNGQIpDNNkU/tyQe3e+eaIorLLbdcI0j8nH/++e23lLRlBnX+kg956knHROAP8XRFYFOWJSEB4hAWqUN4kVLEVv+RVx9V+oIyI+PKyQ5xtdZZfpA+fc1Hr3eQfE0EZc5VGvqo+n35y1/eDvR/zWte09ZQO/x6ccvmA0BdJg3vjIG0D/Gx4w8Rs3wAsmSEe9+W2PHHaI/KJ2zKGVIHfX5zzx8ZErtAOPHEX9LkXzliD2OvhWWP2gRS+B+oHwOI/xXbpbzddtv91+X/gxbAXwQieKoup4YIe1CHNAc2AdAUGWx32WWXYbPNNmt/oPFnFoMwzQtNhiOGDDK0Pn4piBg+4xnPaARQm0f8kAKakfvd735tysvAWJgZeJ/kFI1fTyzYe+dICbLiF2nInz/r7Lzzzv8N/b8QRhwGcAM9sq990Bivv/76jfBYC+wXlNK0eWunnXZqfwfaddddmxbsox/9aNPY+584jZWZlf333799QDi5wB86nHLgmCttk4YfSXR8i7w58iqEyV8c/EUEkfKsbUWrOZE8IFv8LUnehLNEIR+TPQlZXKg7ZGvzzTcfnvKUp7RfZKoL/2vXD5SFzPL7TgTZuklETfr6j7pFHoVHyE3pZoyZDN6D+lGuvFvvSHrer9Me9MnHPe5xrc9OVC8gvHjUg3txZF0oIGDqKm0AieVXnPxzV6eJJ6SRu2dlZOc+kAYk79x6u9i7+kjxnvvw7tOu+49XeRNO/aZNBPz24K+wbFAEsPA/UD/jEUB1rpNzZ3w9eyYw+ndTuPbIdGCErnr1r2najPe9733D2972tlbvBnpaHoO3QQHJe8UrXtHsDN5+IUaDsc0227QpYUdtIH80N7RPr3vd6xYtkC/MDLwnAy6CgCh5t94z410gV89+9rMbuaKZ4vd5z3veorYwFnl3BmL9zTQuEgMIDc0WQoL4mM7UZmikEDptCRHSrvjRHvgzNU3rJz80yX5zKQyyKF/aE2JlQHccFHmsvZ1wwgmtXYnXlLGBPhtYYCLZKu+WMvhNph3PNNvKhcgo91RlsrD6A9KFqPo41VdsOJF/RFhZkWNk0QeTX3bSoCs7kkwz+8xnPrOd4yqfIVDjIWQHqRKfpRohZOrXRxzSh4De5z73aXUjvsnKJy7u8SPf8ozY0dqK18fg0572tBaX9Bn1J0zqUd93JJiPCv60u8Qbfwnj49BSAR8RyrTRRhs1kkyG0CBLz9ICbSVp5UMk7VQ4ZZcO99QL5J1yY1JGRBLy3oUpzDyKABb+B+pnIgKozjIA9cKlfzeFawd1FwEYgakuDUqmBmn9kAjt32BPoBvADAYOIRcmA8+ee+7Zdg4T4DQZBnXkwIBOm2hgsw6wMDPo3yetm/eFoD3gAQ9oa8acJ2p61fvXr0xPIlb8TSSXMnimr9FU+UAIoaOZ44e7dXumIU01O18UWdttt90WaewRNkSJfzuIaap8iGh72hKSRm7Kow8Smj/kisaZNlk8dtKyRwylmfxl0J8IyOUnPvGJpqVzsD5E5k8FqWvy3n/Z9Svl0V8QTGmpZ2V+4hOf2LSc/seOpIEpdH3IB+1WW23VCI+yTlQGhCeyUFmdaUjL5YpsI5C0uuykq1wZryYrY0gl+eqdImE0kgim9cA++kzb054i6X5Nqs1IQ9tikHz/kTdb4J/L5IMZA3GT5daLih8B8w4RcYRR+yHzjbM0pOrB2mPyRFm0B+kIFzlCxiDY4nMmLG02kFXajSl+eeTOTf7Ug2ekW/2JczKiXVi6KAJY+B+on/EIoM6qzhhCN4I+767qc/FAKEf4qVv1Ceo/9ctk6ifuzotz5AcNkjV+pt4QAQOecPzmXWnn7l37/lNY+vDevAPkyxo85M+B7wZR9nlXrmTUOeec00iawX88eI+Bd0l7THMjDlomdnn3yI5pZ9o5A6/09GlrAqVn4OamTYmDtklYdkziNsgjhqaY9XP+TOFqo/e///3bpiPpcguxSP4mAk2jDSc0lD5m5O3ayPPJILw8gfIjdOlDiV+e+GHkVT2nT3FPuGuTF3Hwxw8yiQSbEkccIXWSOMTtPumNB3Hywy/Z4MONlpKWmHYSoTKdrFyIOEPTqyzSNW1vat9GnRe/+MUtHBLnPXr3gBjaECRv4jG22lBGxotDu0HwpU+r7IOTJpU/U9jCbLHFFs0vss2PpQQ+GmhZaQqtUxYfYol8KhfiyV0c0tbWQDoTtffC0se8JoAGR4uuNXCdKmm4RjDMJPoBP50dXGc6L+oD5Ed9JD+MZ1/DposQQFMC3CPU8h4Spg9buPZQl5B6yzX23lE/gDHuCVwbPgh+7ogFMghj4/BMaLv2/acwswg58k7Tl9Kf2BksaX1f+9rXtsGVW94/CAMJA33/04/HvueESRtInK4Jw40BGiFkD/hjuPVtUDzsDdoJm3bJiNczI53YBZ7JcsQAQcmGEH4Sx1TQ5yH1lnywE3/KnTTiBrleW/Dfx9/HGSTNaxt3//7c0+Jaz0j+InTsTVUj4bT9DG0bTbD2gxAa82hWLQ1ZbbXVmrbVByISyI4G0V+k1BFQkpx44olNyysemrptt922vReE0jQ9zaOPTssBTGU7FcJuadPT1pDKjw8Y2lVED7mnXZYmTZ+PDunQTCLJysHQTto9nTFxriDvWB0qn36tXHMR854A+qLWOMUF8X9tO+V0QoNRBnnPPbMs8kLAEJLJT+pTPbE3vWNqqNcAwrLIa6Ewn6CP6Uf6XPqTAdZaQVO2ps9CYCLzIr/yPBbc9WmGFiuEUBzIWi//+v7ey6Q+T+zF417YpJuwnpP3seAe+ZLn+HW1W5ZW0p9AaIzgmuKc71B+da78MQgUgoWEIYDgSDMfEzR5DH/CWkNqzS+tM3lt2tt7t5vbu/AObRKzEcb0uHcrPedIqnfEjcZRHDSET3jCE9qsgjWp1oKyp8k2rW1qGREVn01pSCgNqHuzEI4y8lEqbc8I4i9/+cs2zWz6PUoH/k1Zu09bme1IX3GNhl/ZLIXIR/hcwrwmgL48qOc1RI0dNL4+npmCsqR8kPIui4Y/tu7kienzolObSogGUJ0ti3orFOYbMtC7ZjC0btNMhU0DNDf6Yvzod+mruY4FUtD7Ey7TmezNPogzfZg9E7kE3JAFz+57v+JLnjzDRHmBxMuva/yyN/VrkwKSwV0+I38mi3M+I3Wcd4W82YlsPaFNH+qKtgx5Nh28ySabNC2b6VikzGzNfvvt16Z6aeps4DCNz79pXPG98IUvbJt3smbTdK8lUgia9cLSNV7aDW4dJAJIS2s2iHYYYXc2pKOGaPMQH+sRraW0CY3GUPsxDU2BgKAaux0n5Cgh7tYUesfSYhyhM5egnYK2qqzybyOU9+TszbmGeX0QNBLjC0eHAMKWfy8ukMZMGGlGwCXPEbjBeOGWhunTSn6YCG158nVDABEc1oSMuoAuFKYLY/sd6FvWACJD1uDFXl8MSez9jwVZYgrPtFoOZmeXfh4C54osRhYmPn4NZqa0kAibC/R9YYRP/098k+UFej9Jn0EaEAJrCnMsCiP9yeKb70g9gXejvr1PU6fWXDqqxpQwEkYjmDWetGiWhHhG3NZYY4123JP35xBsxI3WzzhK2+q/7TnsWjo24WTDj2lgazIRS1PANnYg6t4Td2Mp0mY8pe2y6cVGFe3N2kRp2XTzmMc8pmmx5YORtrSk6/DtaJa1L3mSF4oG08uz3SDbuSo3490gwfrtXMO81gDa4u5oAA2395+4ZxJ93glC0CkI+MnKsLSgPhhCPXkzMMgLO4OAKWAN3JRCBoBlkddCYT5BX9KPGH3QM2ONVqbwDDDcyAoDZeRVL0d6kCOWuxjMHf2TtXxJI+lFuyTe9H/93qAsbelYJ2ZK2qL9aIuEFYa755iJwJ8wIG/xTxOEtCAxdpOyk6dsHhllZFwA9+rGO0GSvCsESz25N3bw4915n6AevUdr/tjFHjLOpC2Il1/PTN69dsM9fuVBOmkzwM29tpM8xS7ph+QJL56Ele8+fsh1LiBtOeWRdzuyaWLt1J5rmNcE0BeNl2P9BP8aLLMsoMFEeLrqCL7Wdbh0lpmCL32dVqdOfYOrZ3Xki1L9rbPOOu3rTv7Yz2Q+C4X5DH0tMo9c8IuyLLanvUm/1O/4gV4G9uDurEHkyuYA/Tt+ubGnrdHnaSpoixzRYYG/f+fS8vizB82cnaW0RjYgGMyzg5R/WhxrwuSJDJsIya/yhXSKy+HmtE7WkNE2QtxhlOULcgHqNgQrMjlgF6KXMSUEmsxWpyGHrsKr0xC+vr1B7rm7JuxYd0Y6aYt5T4nPVVj30uS/T1u+0p5dlTXjDyS+uQB5VQYGAccxbIB51KMe9V8fcwfzmgBSjb///e9vAkej7l9cH9dMoM+vcjF2aMmbc5Z0rJmCXV9U1o6CIDgieOQtQkf9uHcmlOMeCI+ZrrNCYT4jU7FAPvkw83cX66+c3Tdef5tI3pEnFuwjdAhgNDniRSwd9hsS5mo9lulFi/AdISNtZwDyZ/Ocozz8PcSRLWSw//Y6ysZUnZMVENSJ5EHkG/fIO0BAyXGbCJyFSKaQPb3sG1UZo44QLOXv6yDv0JXhFn+R09zjl1Gfsev9cUs6IYfs2bkPgQPPiUe4sWn1br27a8K6er/cxZ17JgSQH/GkH8x2yC8oA+hPZhmLAC4hZEOlpjGmYS4JARTeV2salzDXJtzSQMrkKl+McjlHywLSfAHPBAh2azgcRitPqWt1ko4L7A0k7LjNdJ0VCvMZ6XOgz7l3thpZYK0XspUB19XH2mQwZWszid3Epg0NsmYZHAsCpl2RTgeMI2HSs8RDOOuYLOxH+Gj+TdU6JBghRNzIKgTQlbHTcyJ5gGBwiywJYXFUCXJJ++cDlFzO4B+ZM1Gc8x3KnzaQZ4hszj2MJV59mPHC5z7+8wzjxRHEDuIn7r3beIhfedcOIOXglvD8JO65gvRbdUvr6vB2Y7g+Mdcwrz+3vCDHDVjYyljYals6436mTZ8Pmj8C3Vqfsf6WtjHAGCDkwSDTu3lOPp1HFs3fXOqghcJcQPpVBhNXOwlp8Xy4mnplD9fmA9FAq187MNigKizyZZ2Wvmz6ltZfPxe3nZoW7VvMb6MX/xmwkQxxiE84hE0cSCVMJg9C7DJQepaWzQA+eKUXchhSMOro20Du8+77e1B38ZvrZOFjl/u4xX+u47n19r177zaeSVohf9CHDdxfm/hmk+kx9nmuYV4TwEKhUJhLQMRMrzq6CvmK9uyaiFLckT/aPLs2TeNa12cJh523fgtog4hpK4vWV1111eaHps+5cYgijWAW9mddmHxkoLOWKyRwIiB/GexpHBE9G/IcH2KaLGv/2Ef7xxQKhZlFEcBCoVCYJUCe/P7LtKuNG0hUtHGTkUCkzB8ebNoSzno+xzjRvDlDzgHCjplBCP22y7FazmSjEUQIHf4bcucQXzsaHRniWBEGUbN5xNS0Iz4mA7+Ia7SA8iA/8udPEymPsiGW/BQBLBRmHvN6DeBsQsrnmrz7j6JT2QnVmVwDaNeSX9cYBNQxge0qf3OlPguF+QgaM9NmtHUOht57773buWNBP6U2FtlUgnzxF3kasAspI4McCiwNmkCE0/o8z5aBcBcXQugqXOREZNlEeeGX4cfVukKHDTuNQdy9rOEuDXFZblIozHakbeMj2QRSawALhUKhsERAshAs2jlTr9/4xjfagAP9B/B4EDYDEwiHWOWDs4+HX8e5WHNoTTTNoXMErQ/MtLO4fJiG8IH7nlROhJTDdDIy+7jHPa6tKxaPPIm/jyvxFwqFmUMRwEKhUJglCNmiDfN/UVo6U7mLQ5BCsEB8nhEtdjFgA4hZANPDfjeGDCJs0hKOZs41cSCGcE1HQgkfY5bDeYKOmhEfAyF+iCKSKf5CoTCzqCngGULK55q81xRwoVDoYRo3sk9fdCSLQ5kd2eQfwcgXN8h9NHb68VQR2XRtMNavPMtLZBw4fuaggw5qWj//ouUmj67IXsKXvPn/QL5t4oHUS+RzX99zEcqRNgDKRyNtSYDyzaV2MJ+mgIsAzhBSPtfkvQhgoVAYC0QAocqUrQPjEUGHzfqXauRgNHvkyUxr0JIuIz9IYKaLHTFjdzFiSrvo+Bj2ZMuSkNT5DPXjP8lf+9rXhh/96EftWRuIPFbfcxnyr30oj/ZNE+xooc0226xpovuxfbajCOBSQAREBIvKdV8EcPpRBLBQmJ3I4BI5gdj9+c9/bn/3QBCspTNwRp4kTE8WZgqZEo5clg95dRC1vG655ZbtF3OgHPw7XqZkzP/C+3T24wUXXNCu6jSaUmauw/iSMmUpgCOHaLWdRzvTHzBLgiKASwGyoVKLAC59FAEsFGYnDIzknEEmxE7fdHyLDSE/+clP2mDjSBbIgAozrV2TLlkmXfe/+c1vhq985SuNwBgMnWeoDEifMriX316OF/4DdRMZHDLkeb7UVca8jIPK1bd17XyuQH5ThtoFXCgUCoVpgcHfIOlqUDRIurc71z+Cfbjtt99+7cM45MA19zMFgyAkXQT1yCOPbIdH+7BE/mj8kEPlCfmrD8zxEULRv0f386m+Qv5yn/L1ZS7MLKrmC4VCYRbBejoDJA0QEhiyZcpsgw02GF7zmtcMhx122PCZz3xm+NOf/tSI1kwTBYO2dBFUZwi++c1vbusT/efXQdE5k1AZ+IFlkc+5BHWljvK+1RW7PM9l9OVIubQRdtUmlh2KABYKhcIsAbJkOUg/6NOcIVMGSvf+p7vHHnu036vRBn7ve98bfv/737cwiGPIY+5jYDy7yTCeX/emvi677LLhiCOOGN7xjne0nb42qZjuRQ6VIdrLaHi4FSaGulJH/VS+umPfv4e5aNIm3Gubnv15RtkKyw5FAAuFQmGWgMbPoGiwdG+gDAmIpoSWyN9BXvKSlwyrrLLK8KlPfaoRsVNPPbUdv2KA7QlgiGHsPfd28Rc3xK33w0SLZwfneeed17SPjnmx49cB0v43LDzIJxJzk5vcZFHe59Iar2WBvOeg14q5j/tcNqAt9G05ZSssG1TNFwqFwhwCLRFyRoNiVzDtm//22iSClPnzhv/vZmDNNaTOM4LmGoIX5DkmxM/avpNOOqnF//GPf7xp/2j8HFadfwMnvkKhMDdQBLBQKBTmAGhLQsxo1FzZmRK28cLfPO5+97u3KeE3vOENwy677NK0g8ga7VyIX7QvwM5ztHfco4V0KPF3v/vd4d3vfvfwyle+cjj22GPbOsQnPOEJw7bbbjustdZazZ+wwiVvffyFQmH2oo6BmSGkfK7Jex0DUygUri1o79JH3SNfrhDZaGG9aeDLL7+8HSh82mmntV/JmTK+3/3u1w7dvdnNbjYsv/zyTfb4EwOid+mllw6/+tWvFhlHuiCOpnHXXnvtYd11123/DEYAhY8mEVmUH5rC5I2Rt0JhPiL9UPuvcwCnCSFIRQCXPooAFgpzD0gWGaiPuh9LstJ3I1/AYGWd3kUXXdSIIHJn5/All1wyXHjhhc3tpje96XD729++kUPaRIc3O5x31VVXbYdOR25JO6TTM7mBcAIiSIYwIYWFwnxEEcClANlQqQRIhI37IoDTjyKAhcLcQ2RH5IiBKIQr/ZeM7ElZZE1kJ+IYbR136Pu9eISJ/6QX+0z12oiCDOaZCfr4CoX5hvlEAP8/oyoUCoXCrEZPrhA4H46ekTEDEiLGjnEfN1fP7k3r2kDSxwXxi9T1BBD568kef+JnF7DvTaFQmP0oAlgoFApzAD1hC0GLXQz73CNo8Qfux3tm+B8L9kgfM178CeMqrRh+CoXC7Ef11EKhUCgUCoURQxHAQqFQKBQKhRFDEcBCoVAoFAqFEUMRwEKhUCgUCoURQxHAQqFQKBQKhRFDEcBCoVAoFAqFEUMRwEKhUCgUCoURQxHAQqFQKBQKhRFDEcBCoVAoFAqFEUMRwEKhUCgUCoURQxHAQqFQKBQKhRFDEcBCoVAoFAqFEUMRwEKhUCgUCoURQxHAQqFQKBQKhRFDEcBCoVAoFAqFEUMRwEKhUCgUCoURQxHAQqFQKBQKhRFDEcBCoVAoFAqFEUMRwEKhUCgUCoURQxHAQqFQKBQKhRFDEcBCoVAoFAqFEUMRwEKhUCgUCoURQxHAQqFQKBQKhRFDEcBCoVAoFAqFEUMRwEKhUCgUCoURQxHAQqFQKBQKhRFDEcBCoVAoFAqFEUMRwEKhUCgUCoURQxHAQqFQKBQKhRFDEcBCoVAoFAqFEUMRwEKhUCgUCoURQxHAQqFQKBQKhRFDEcBCoVAoFAqFEUMRwEKhUCgUCoURQxHAQqFQKBQKhRFDEcBCoVAoFAqFEUMRwEKhUCgUCoURQxHAQqFQKBQKhRFDEcBCoVAoFAqFEUMRwEKhUCgUCoURQxHAQqFQKBQKhRFDEcBCoVAoFAqFEUMRwEKhUCgUCoURQxHAQqFQKBQKhRFDEcBCoVAoFAqFEUMRwEKhUJhHWLBgwf+YsfaLg4nCjWc/nr9CoTA7UQSwUCgU5jiQrn//+9+LyNc//vGPdv+vf/2rGff//Oc/m3Ef/wmT+yB+etPb8yuNhEk8hUJh7qAIYKFQKMxxIGAhe+6vf/3rN/vrXve6zcQNrnOd6yzyjxD215C7IM89uQuRFA97xnMfrlAozH4UASwUCoU5DmSMgZC2EDcGCbzhDW/YiCGid+WVVw4XXnjhcMYZZwynnHLK8M1vfnM46aSThq985SvDqaeeOpxzzjnDr3/96+H//u//WtjrXe96i+J2Lx4maSbesWSxUCjMXlxnYWedFb1VNvJl6p7Qcf+d73xneNe73jV8+MMfbnZBsh0BNNuR8rkm729961uHe97znsNTn/rUJpxnCi9/+cuHhzzkIcOTnvSkVseEt6v8zZX6LBQK/x/R4CFnjOfIUPjDH/4wnH322Y3oXXTRRc3uVre61XCzm91sEbmLfDW1+7e//a2FcX+nO91peMADHjCst956w53vfOeWDpP4kyY7YJ84C4X5Bu3cOKmd//Wvfx1e8YpXDI9//OOHRz/60f/1MXdQBHCGkPK5Ju9FAAuFwnRA/w0xS3++4oorhu9+97vD5z73ueHSSy8dVlxxxWH11Vcf7n3vezfyR+bc+MY3bv4RPfL1Bje4QYvj73//+/CXv/yl2V9++eVNK3jWWWcNt73tbYcNNtigmZVWWqkRPWmBeCLnSo4U5iuKAC4FRHAQJu6LAC49FAEsFOYXaPzAlO0Pf/jD4WMf+1iTnfe73/2GJz7xicOqq6463PKWt2xyJnI2Wrr0e3KJvQGOG3nrPuRQ3BdccEGbMmZuetObDltuueXwyEc+crj1rW/dwsKNbnSjdi0U5iPmEwGsNYCFQqEwS5APxLGmR+xCuNz/+c9/blO8Bx544HDwwQcP66yzznDccccN7373u4f111+/TeMibD72kDtEMB/Uf/rTn4Zf/epXTePHjhYw5ND1Jje5SdMUInk+HA14xx577PCSl7ykpfnOd75zOPHEE5vGUfwBUpp89tdCoTA7UASwUCgUZhkQpfEM7UPuESoaCJq+j370o8MnPvGJ4Xa3u92w1157NY0E4obQMb2Wr4/r/PPPH4466qhh7733Hvbdd9/h29/+9qL0IWHHQtprr7328IY3vKFpPoT74Ac/OHzxi19s083RHPbkL4SwUCjMDhQBLBQKhVmCnniFfIVAxc36vJA/Wr5Pf/rTbTPHs5/97OGZz3zmcPOb33zRFBXSNZbAsU/4z3/+821932qrrTZ8/etfHw455JBF08n8XRNoCzfaaKPhxS9+8bDWWmsN5557bluuc/HFFzc3aSOCyc/YvBQKhWWHIoCFQqEwC4HwhfQhTowpWdOspmtN99K2bbvttm097yqrrNLIFgKXKVxIPEhfkPg233zzpsV7xjOeMdzxjnccfvvb3zbtHfT+xyIkMlfr/mgCt9lmm+Gud71r0yrSLiYv4hyPjBYKhWWHIoCFQqEwixDCFgMhTo5n+f3vfz+88pWvbEeybL/99o340bYhYtbqWd9HS4ichXwlHnAvPmsC73Of+wz3uMc92lrB733ve8MWW2zR4romsoZoikca/CKA0rnDHe4wbLbZZs3sv//+7VxBfrL2ULhCoTA7UASwUCgUZglCupC5EDXG/VVXXdXW2iF/z3ve85q2LcQrZI8/YZFA930c/Lhyj52z/vbZZ5/hAx/4QIvTFDJ/DH8TAUmULqKZDSXsGMTyQQ960LDbbrsNX/jCF9r6REfJhAQWCoXZgSKAhUKhMEuAlAUhYkicKV9/6vjyl788vOpVr2rn+bEPqULWQgQZCBns42QX/7SJjotB/uzuvctd7tIOigZ+Es94kBayh/yBeJFB2kDgbkr5He94R/ujiHWBl112WbMvFAqzA0UAC4VCYZYgWjeEKlekyk5f5/s94QlPGFZeeeVFbtGohYhl6lY8CBz38cgcImYqmTGFzN0u3q997Wttc4i4k4fxgHiGWArLmH5GCoVLHtybpuZmh7DjaqSNLPbxX1N6k0E64hwbx0Rxsks994j/8dx6cO/9CKM8Y6e3+Rkv/WuD5GWq4WczlGlJ6qYwfSgCWCgUCrMI0aKFaPz4xz8eTj/99HbsCvIXYuc6logEE5EHREmYEDabR6z/czi8KVubQcSNwPWaw/EgjrF+2DHSQQbdO4D6sY99bNtgYk0gEigcraY8Ik78Lwn6fExUdlC3qVcm9QHJx0Rhx0PCpr4SZ+JIXthNVkZ+kqex6SeOuWyUva9fJnVXWHYoAlgoFAqzBAhTv2HCtKljXkz5WlfnbL8QDYNokHvhIO5j/YrffYiZ37n5Ndx973vf9r/fu93tbk2baHo4RHQqQP6k7Sou8Tou5sILLxzOPPPMtp4xWkv+oC/P4kBZGPEkLhj7DPEbkivNkMKQamYyCDM2r8KKA8ERPu5J/5riTZzxn7znOe5z1YDyhwS7VzbP6q2wbFAEsFAoFGYJDJbRkvhDx4c+9KHh7ne/eztihcbOoJkB1X1IBTvPyAziGMIR8ufKZOCNfYgLE1IENpcgolNB8hI4o9AzkqkcX/3qV4ef/exn7ddykDJMFepLuVMv4J49oz6UzzX54h8x9Yyk8ueeEbaPayxSt72fxDNenU0WVyC8PPzxj39cZH73u981ral7WtO5bBB+7bk3NiD176Qw86h/Ac8QUj7X5L3+BVwoFHqEiJAR/uzhkGbyL30z8sN95KHnnvT1/vTryNL09TwnnpjE1SNpLA6SFkJpbVzypWyuX/rSl9pu5p133rn9uYS/6UCf95RfvSB6NKfSR6LjzxURVCfyicBB8jsRhFO+1Jv72MeAciUeacNkpNpUv00+P//5zxdpeuU/8c1lKIO6UH733onfEz7qUY9qHwZzCemjyjPX/wVcBHCGkPK5Ju9FAAuFQg/9kLFz9nWve13b8bvqqqs2twyeQBamr7JDHs4777x2v9xyyzWtmzP5GH4NWshEtFQJG2IS2QTRCkIvc68t+rDSlIZ0k6a1f7vuuuvwyEc+cthkk02anbQnI0eTIfnOFZLWWWedNZx22mntXMIVV1xxUd6Af4dVO7bGDmjkkDtSSAM6EfgRVvncp17BvXIwyp1yJcxkZPc3v/nN8IMf/KBp/cSd9wbTRZKXFfJu+jrzb2nnUC6//PLNba7AO9G+lKUI4DRBNlTq2M5VBHD6UQSwUJi9MMD4n++tbnWr4fnPf34jJPplSEDkR8DNUS7kZA53vvLKK4cHP/jBww477DCssMIKzd/YPj5WnsY9shd6P9cWwkazlnjHEhg7mt/4xjcOhx9+eMszPyFRi4ux9SFtA7Mp5mOOOaadQ/jOd75zWGeddYZf/OIXLb3b3va2wyWXXNLsEcMdd9yxyWD1Jq+0U6mnySAt6SM0J5988vCrX/2q/RLPzmrpcFcu5eNvIiIXsqi+845Sd3mey8g7Ur7cK7PnqbSxZYn5RADnVs0XCoXCHAdSYBBhQpZ6nH322cOPfvSj4SlPeUobLA02IQ4hA70BWjXx+Ccv0ujvHp/97GdbPP7wYWrx2GOPbf/qNWg5UxA5+sY3vtHWYoHw/PiN2ymnnNIIFGJj4wa/xx9/fFu7Jd8//elPFx3yLA6Q1z6/yV8G+eTV1caT9dZbbzjiiCOaG7I4VSSd1Kc1c695zWvagdmf+cxn2vozaTjw+u1vf3urn8MOO6xp/+xKNtVuvZ1f4jE+kD/1qU8tIm0x0D8zyinv6ulb3/pW02wi3Yz/KiOZ3PiVB5BPdc0Oks549ZT3zt1z2k7KzAjPQH/t3YVPO4ubZ/eM+/iV37Fh4h4/psxdPSdviccz0yNheyhb6qSwbHC9Ny3Ef++XOdKY+nsdiAqftmpsA4Lx7GYrxuaVEPYler/73W9RR58JWINjysPaC3WsE7rK31yqz0JhLiJ9Lci9AdTaqI985CPDAx/4wGYySPZycTyDsJk+dOYecoWMmEZ2dAxC54w/RI5mCinae++9GzlE7BBAu4x32WWXJmulhdxZh2ag94cQxI/WTjo0ZjRn/CKTn/vc55ocY58BXb6Tt9i5hxAiO4Pf+973tnRMf9LOWf82FSOsHdM/+clPGrFzwLXpc1pU0+Mbb7xxS8dUMPIq7xtssEEr07rrrtumo29zm9s0UnrGGWcMv/zlL5uM5E6rZxwStzr1/2VxSPeKK65o9SpN6xoZfr0LxBhBtukFQZcXeaBpVCfeNbiPmQjeA3LFj/pzTZuA1HXaVkwIHP+9H/Ehkt5T3hXtJ+QZ+PUhQIspTPLIj80d7NmFMIL8JQ52adeZ5Uo+ksZcQ1/H6td4apmG2by5hpoCniGkfK7Je00BFwqjifQ3A4hBNNorxI32ifbK2qh+cOW/l4E9/Hd39913b/JEfzY4b7311k22vPnNb24D8Fve8pZG1B7zmMe0KavXvva1w5FHHjkcdNBBw7777ttIIaKy4YYbtgFt/fXXH/bbb7/hhBNOGA4++OBGshA2ZMq5hH7v5t/BiJLpL1OeyjGZLIv2KpAnhBcZC7GZCkIqb37zm7epb9pP2kV1Kc/qBtm1vo5f9W6anQx+xCMe0erjBS94QTsaB7G7/e1v3zYofP/732/aQWWSd+HcKwNClLWC6pzmVr1EviNB3K0ttBZTvXsf97///Ydb3OIWi96pa+TweJAmLeUBBxzQ4nR0z73uda/2jkJsQf7EFfKF2Htn1oQin+y9X3XUp+2qfWgvyN6zn/3sYauttmr1p87E64Mg5RePOsx7ts7SPUWGuPp36ANBu2A/X5A2rJxzfQq4COAMIeVzTd6LABYKowf9X38jzwyo+h8790iYNXtPfOIT20Ddy0QD70RA4JA5U5w0+8JZx0ZD9bKXvWxYc801hxe+8IVtgN9yyy2HZz3rWW2akvbOQdDvec97GoExXUzDdc455ww77bRT0xKeeOKJw7bbbtvyR0tEXjnGBdnh1+YTMgVxCPmYSI6k7CEStGuvfvWrG9FEkqYqfxIvQyMnL09+8pObZpFWzh9UaGqe85zntLV6F1988fC2t72tTQsjKDajvP71r2/rEj//+c83O5tw5CmEx3vKuAR5NwgBYiUuv77jhzbRe7QekBaWZtG0vDjyHhHInvT149tYILF77rlnIxl3vetdW53TUprAQ1QRW0RVfpA9BBOBM8X9ohe9aHjYwx7WNJMIizRtwPAxkPYnL9qN8P4H7Z2YDldXPiYQYWX0/k2p22TkAwVZNqWOAD396U9v70GbEw8yfec737nVz1TXd85GzCcCWFPAM4ixea0p4EJh9NATiMg7fZBGTd9EFkyPhkzFD0zUP/3D97vf/W4jPrRDCICBnWYHCTA9iwQiNsidAd10JjfnDJoCRfSE8VGK2LFHXpAN94mT3ED+kBzaqAsuuKBdH/rQhy7K70RkhrsBVNmQD0b88oUgTVS+ySA9dRpSiZzIq7IjYTSZ8oZQG7ARlzXWWKNp4mj6wAYRYeSNbHTotjLT4OV9ZTMHP30Z5Zm9KWIkyTQzMoRgI1MO2A6RjF9Xz4nb80RllxbNsOloSgPE1piBnFEcKKP1hp4ReIQX+TINjgy7V25KFCTfuOMXgOLIsTjKdPTRR7f3KB/qyBFE3H00bLPNNu1jQZzetzWlyiRfzqr0/qRjuvvrX/960wr69Z965wYTlW+uQX3lfWlzc3kKuAjgDGJsXosAFgqjib6v5Wrgpj1BugyuQWQiTESsEBWEDHExEBuYxIuwIT5kDBLIDkEUP1Kw2mqrNW0jsiNu4YSxLo5GA2k0hciveBAlu4wN6tYF8kt7ZhqVLBNHX7axQHjix7180yghr4jaROWbDEmLDBXeFcFTF9ZRWveovMqivOzIPlOnyu2ZRky9I4Wu6kreIpcTd+CdpCyMeqBxNX1OwyoOzyGQfZ3kXhyIl7DXVG5tw9pE5C9k0viB5PpgQDyt47QO0nQxjS1tnY+KTTfdtJUHkVMv6ppmV169U/mTFzuytY2Ey/QxTaNd0t638iDN0uCXMZ6Ii5aRJtHYoh3ZaGOJAIKaupoP6MfKuU4A58cbKRQKhTmCngBkMEEEbBwwuBuswbQje4N8iMZEQFwM0g5WFl9IBZITIkeDhTjYJIIU0BY+7WlPa8/sH/7whw/bbbddmx62A9mAhujRDtpc4j/BNDo0ZQZ7/sRh+otf6cJk+Uy5QX5osBAlGinTmKmTxTWpH0YaCIf4PUsjdczOVXnZMe7Vl3hy5S916D7hgX3i5hfcIz4IpinYhAV+pSFPIUIJl/QQiYnAPUuE5EMYZA6QMe3DUikaPsROGvwgJUg5AozAI4x2edP8KkvKzy9jzaApW+8cqaFJ1Rb5lQftk1aPphHhZG+9JS0hQo1E85Pd5sIod66F2YcigIVpQRZhg+tEhtCIQCGo3EcwiiP3DCHX+0vcCUPwxU1YQrSPzz3DX9zjlniS79jzC3GDhBubP+GgzyPjKzhXZXDPj+eE6w27vqyuhbmN/l1qP64xgcEXGdA+rIWj/UOkkDZuBn0DZ56ZicAfI4z4MuDKQwiQtA307g3ytD/88ZO4kZWQH31B3ml95MFAH1KTtDzHJI3JwE+M/iScNW13vOMdG4mZqP334SYzIG/ynzwlf8kvN3DPb0zqO/auiTPx9M8J557p04x7/OZ5rF38x348cEfgvBfkzayYjTM0dNoLYkc7iKTbTON9RXapS2TN/6TtXLZWk6ZQG4nhx9U7RhhpeBFJGlQfFMrlaJ1PfvKTTZuH+LtGVgpnrWWOG/LBYc0le/kG7agw+1AEsDAtIJyAACdMCKAIlwijuEXgxJ5wiEAMuCdOICgTlj/3hKarZ+6eXaWTMNwyoHFPGtL2zE36nhn+pJH4En/SBfe5MgRh7iH5FhdhLC5uiTvpiZuBrMVJHIW5jZ7IaEfAjunbUdpWtF/WXrEba64NtCFpaY9JC1y1vbS1IPlLewTh0061XWn3+cx94oyfmLT1idC7hZgiGfJuY4bw6bc9aejTGM/0mMxuIjPWz1iM59bbjTW9ezCRW38/HtS1qVj1ZMc2La0jZqwvpME1rYuQOQzcMT3uETZkzvuksaMptDTAJiFrFRFuU73eh/q20QPhs1SANtk6RlpjcZnm9a5pfy+66KJGPiPXpEP7Zx2njUG0yccdd1zbfU17aNo4crUw+1C7gGcIKZ9r8j6fdgEbXLwfV+VLh3dP80UQcRc/gSA9zzGpn+QjYd1zZ58wGVB9XWbAAn6FSXzQxwe5d+UW/7E36KQ++jTBvfT4VU5Xbkz8Jh7+8iwNdZB4E1+u8Zs6TLyFuYu+fbiHtAXvu7cDU24GdTt2Dc6LC+1LWgZybdh6QESQnak9g7/2l/RdGfnQj0z3CYeIsXNvkE97pXlCQoRJ20wc6RP6tat0Uq6xSL0wCc84q9COUmf30RyxS5/hN2mOKrxDu3zVtXrxPpl8bNIKqltEzzpA07HqkVZZ/WlTtHS0gVkjaqo6GzSAhjB/QPFBYqpfe0DsbNCxVlM+aI7zkZF4PWtz2oDpfEsZ+NeGsnlovrzDtGHl0XfqTyCFkYevSedUOa7A4ad2m2WdSN/xCR7C3ZWBuOtUYw2ESGXgFB5co8HjTvi454eg0jnFHf99PqK1A/4Z6RBU/XQs0Ew4V4x9P3hzZ+yOM3jFLkI6/qTLzjVlgpRfmNwX5g+0Ie/Ve8/7Tbvq2zZDU8LOwD0VhCjRzjgSRl8wADsA2tEyNDTSCdI29RFaJX1WPtmLJ9o5YUxP0xzZFaoc7JSDf+mmH0Hfb8ZD+kDqRnrukQdXBDbxhTTwP8pQnwi6NYaMnbpIXJQG3BEu6/fY2UGO3CFf7JBC8gdZ48YvoifOgGzjhvAxyD5y6B1kfSfiR0Mt7WgkvR/38oXo0TraWCOsdPhN2yzMPhQBLEwLDDb+DuB4CVMO7v06KqQJkC7CwBeigcl6EUSJwOcvGguDVwaiDAbIZMJnEEL++BEmhI67Q1+tVwk5TLwgnDCu8sV/nx6wC8Rp8Pz4xz/e8gDi4kd47gbIxOfZPXf3DLCTTuxiL032rvKasjGFuQttQZvSru2idGwKbUzevffNjyt/2oBBMxqdxYV4mK997WvtKA7x0SrSrBmETeWJW9rctE/+fSjx7xgZ+WAgbdnVNJ+/h+jbnrX/5Dvl0cfSHydru9z558c1/QR5ELf8eOYv9cOMMpRfnTPqBtRN5ETqi/HsGn/ekXCueXdkjHt2eVeeIc+JNyayKe+euzBJJ+8xsgz4iX1hdqKOgZlBjM3rfDoGxhQRUkcDaNegQc/vkZQNITSNb3AiRGg7aAsNOo6QQNYcQeC0eQOBL8gIF1NCBk9/I3DmlCUB0qFxtOPO8QjIZv75aY1KfnNlIbIzz973vve1MAZY61IIJQOWKbcDDzywxSttX9a+nJ1+rxx2svkqNh1ibY3jMmgD/UHA2Ve0J6ZGhOWPwJPWoYce2hZEi084g7Dz1pBd4eUv70A5Q5yPPvrodvyCL25f4XOpbReuDu9av6KR8e4t0NdOtE9Tc7Qv2qH3rz9o1/w7ZmUq713bE067QthoZxwE7GgVBwGTMwioQ58dgOywY3mgvbFBgHbIUR7COHDYnz/8Qk1bBP3TXyeQPIclO+JDnzL957Bj9gZ/5Q1JmAj6NaP88afd6xv6E+3UWIx6X0DW1IH3rH5D3rQfJnUeuZn6CmmLzBtLyMThWTgQjglxZC8O4ZIGw86Vu4+cvE9++rz0cTLzAalfRj3oc3UO4DRAhaZx5r4I4PRDg0UwpE0bx1hf0l8X1/hyd0iohckInPUkNIAGB+TNwGYAQqoQT2VHkBwjYMGwBcZ2tSGS7AyS6sQfAgyaBh9EkXBBnJAq6y6UBWkEA6xDV8Vj6sOAJm3TagYn984380zw8S+84y8cbmoAUid+T+VcM3YGOO3QIayPfexj23Sv9ORP+ZSFnfzTFCo3YUCroh7Up78sOK3fwMaPRdWuwmvX1mQiptwNxu7Fj3iOV9dlZr9Bwrw/V+1I3/BR5KPnyCOPbEdlaKdZe8ePdmXhvTa+uNBGtWltUbt2HIe254w7bdN0IOJnKYMPGAO8DzMfLj5SEEB53WOPPdqaZP3NtLD2r7/5OBEPwoisOY/OlWz2EZc+mLxPJJczeMZfiAbZ4KPNkSXS6ImO61yS89MNdaH8IRuW1yBziJePUMQL+CHn1HGIm3blUG9T7PyxT32qWwdF80P2JB7Ivbjcu+ZZfhD+zN6450d6IO58APGbMDM5xi1NKI8y9u9krhLA2gQyQ0j5XJP3ZbUJhHbrzDPPbB2SVqyfIk3eFhebb755+yUQ4oPA2JFmsKHBI2QMRgYL06gGIr9McmQBrRqNG2GmIxlsDFAEkjzRJjomwr9RrUPyP02DJi2a+B1qSkNoZ5sBRFhroBBOmg+kj4DjzwBMa6HOdVyDMsLmF1DehcEZUUPMnHmGjJo+s/aFxoRmT70xFkaLk7aEvVP/DYLKQDtJ2+nbChlA6gymyuhvCzSjhLjF2sivg2OtwzKVTBto8KXNFE9hbiIDhP6k3WlTkW+B9u0jQZszgPqY2Hnnna8m5xYH0nJEhzYmHnEig/qgBeo+zvSRl7zkJa3tIQsOEdYfpe3DSJvWL4TVl3yAI3va9y677NL6o36H3PrjA+hj2j4iEPkxURlS/tQFf/KhP6gjH3VIcIiffireUUbqlEaWrFBvZj8QdnXkt23eozozjiBfrsi739mRJeQUsi8uRv2DjxFHyOQ/0RA/MdoCSNc9O8jV+2MvTnnIu3U1xrh3TZpzHSmjup/rm0CKAM4QUj7X5H1ZEUDEgnDQaQlXQlbdypc6nwoQvMc97nHDS1/60jaNiiQpG22egcMhtYggIabcCJwvfYSOBsyP2E3FyhNyaOGyvGy00UYtHnEIRwuHAGoTiKOBiWDj31SbsEgULZvfF/mfpQGFEEQUTV0558qzBfMONuVP+0I6EVnC0qCnblZeeeU22HFH0p73vOe1hdDyRIuD5IkzA68B1oCO9CHEyDV3hNB0NUFLS4kU0AI6UV9YU+I2kiC56tCfBPJFXZh7SF/Xr2jlkK7Ya/c0BtqhDxVtjJyjlTdVPFVNiYHJwcz6mb5A86MtszdI+Qix7lab5SZ/NPTam7wgd/rOi1/84tbHEEFEw8CmX+y6664tDO27fuCDjkbfsR80iJFryjiRXNan4659K6v8IYCIpYHUsSb8ZQyI3J8ozvmOyGQzFJa1OIT7Na95TSPgSDrZSQ7S5NL8+mD13nw4v/a1r20fntqBD1pkz1hD1pkNUe+Wq3ifPpTJbfVsCYF0yEAfEd6Vj2Gyz0eB8cN7IafMYJFv2hT/NvJoTzTG4gppnGq7nm2YTwSwpoBnEGPzuqymgE0vImk5G8q9fLh3NV2wuAaQO8KGcEDAnCVlmtdUF4FC8Lhal0So0UK4p/myY4zgohExKIUQG8xih2QaLOXR1y9yqAOKywBEC+F4G2H5dSYVgaSjKiMNh+le5fcuEDBrBIUF/+80IIub8WVLI2nA1ukRScKMFpOdOA1WdkdKV3qmwtWrOnGeVhb2S1eawroqr3R9uSODtKHau/VgBC8BOraOy8wdo625aquWMBictREEDeF3fhuZ5gOJH2tAfZRk0JwKtFEfGdqttqydQ6Z4xW2QpuXT9vUr/cm9vPro0Rd9KCESPqzkUb8ywGvD1uhx0+98GMmrfqgMybfrNZWBe8ide32A/CALQyYTTz8mjCJSB2SDD0byTfvyrslHMwbGSTM77MlfH9NmYnxYkFnkrNkPbcNY4+NZPWsLZm38GYY2UPvwTsx4+MgFHwjeD/InvLXT5Lh2hVBK34yPMOS9+KTvg4JMzzueL++vb5uIcU0BTwNSqYSCe43GfWkApx8GCiAIxtZ3OuviQkdA6MRB60W4KJP4TIPSOiJGBAgh5cqOUOEuPA0IYRWhwfjqZccf/9YyMYSh+HxtImtIlnIgZeIWZ+LhrqziMdC5l0dtCjl94Qtf2MogrHjEjcjlDCv1ZXAm9BBcA5+8SofWQvu0SN5BqrR4yge0KPIkPl/c6kZexCEdgygiKYzB1tSNuIWX97nStgv/C+/a+9TmDKq0K8iWNqvtpJ9ph/zaVGRNneUIU3nvWcYhLW3MgCRebY8dgsboT9qt9qftyQt3fSJ9jBFWO/Shov1bKuEDUf9BNrRh6YmLDNPWQTjgNhn0C/FKF2izEAv/sBUfdyYyCq4pzvkMdYHs0QCSlT4ufUz6gKABtFaaxpY2ijxBwEz5W9aiPVjbaXYCaWRobm3mQexsoDNj4SMEIfRRbNy1NMAHLuJv5sL0s3dmyp9f4cgpWmUzLWRkZkScmkBziBDONzmmDpRJe5zrGsDR7VEjjDTe/r63i/BdHENIG0AcN0GAZ02QOA16GfwMOogVzRgNBD/IIk2bwYV9BD5Bx4842SFR4hVeXOwMYNzFwT1xJz7+TYXYFMLdgCVP0qXR82WM2AkvLDdEMOFDSPlxD8iagVFZhLPeytc2wktDIm/CGLxoYaQLBIeBUj1JQ57kQxh+hZduBtPx6rnM3DD6k/bkvWojtG/aofYa0sMf8Kd9ac9I41Sg7UhT26M91o4ZpM2z9qqtGZCt99PmtDPhtMf0Df0FeeRH+9TmxUu7zV/aKHf+2Gvj0cTzy1wT4jd14INLfvPx1MdxbeOcryAHyQ7vQv1vtdVWwyGHHNJIlvV/2hREjlomwx5x057UHVLokHH1bDpfO1Hf4tb++EPerKWm0SPDtVPv1TtCBL1n0/+MZ9O/SZsfbSxyUDuSX/FKI++5MLtQBHAEEWFKCAf9/VRgcDGA0Azo7Ix0XAkBwoYQ4wfih5AQBvgPEeK/zxO3fHkJx50RXpzcAnGwSzml71l8IVfC2iFpty//3MTBb+KXD+Xy7Co+gg3c82OKjGAleIUVF4EnX4yw/EpffAxwY88v8CcsJN+FuQ3vVrvyXn2UpM1619pDBl922pXB1tKFqUK70b5cpZGBlwm0Y2CnDaZPyaO8CC/P6Q/ATtvmjxEOEodriEDKfE3gR7nF557GXh7UQ9LllmvuRxHqRV2B+vbsA1Kdqzvvx4kHPjrPOuustibTzATtHtKWj2ofA/xqY+JQz2mH6peGWBuwDMDMCjfP7NMuyE9tKJuIQhDlB+JH3mil01akUZh9qDWAM4ixeV1WawBB3eqsGZDcy1+E8lSMzp4OD+JULnaETdylJ52UmXARPkIOPHN3FU8Grt4+cSZc4ov/Pp2EYWDsc64pP8RdPHl2H/ce7JMX7kk3/pMX1xjPDCTvkDBl5q6B9C8m/SvIO87V9K9p1mjK2QnT+50MvV/IgJs25xpilTaXKySNfACln4rXVR91FQd/MeKQVh+XsBNBHJD8gjStOxSfjQl9/PHv6nk8yBN3eUi8Y+vDNfd92rFLWnkGdik/JNxE+Zgqkm7SGZsXV2Uk0xAym8jMQpAZkXNmSmhsHaej/Tiah5aOO22eejVTgpQhaKaOaXStu6QdtGZUnKaVkTlpcKdVNEaZKUEgxZ2PGdrf1VdfvRnpWPctLfVEG2g9NXuILIRcA8/TXadLE8kvo+3XGsBpQCo1HS6dudYAFgqF+QT938BhUCTjyDXHClkHaFrNLnJ2kRnx08u/sRAfv4kTqbL+zw5PMKAb2Gl/rPEymFtHZoCOXHJNerlCPk74iZabmSw/E0EcKb/w0rAG0QYFebQZAVJ+/kJyJkqPn9498SoDpHy578vHHmGlycqHKDtGuqkD9tIB/j0vLpC4pD02r9IbGye7icq8pJCmzRrWBiJ+TmWgfZXm0hiLxAvKSHPY1+HSLOfSQD6C5Fm7qTWAhUKhULhWMHgYAA3CiJQBxRo8mhVEkJbGIBlywH9IzkQIIeOHf4M4jaKB/c1vfnNb9M/eYerOBdx///3btGsGXm7InfRohLjblCFebvIjbqSI3VQRsiNdRpqmHGlAaaz6ckpXWnl2Hc8kj0EGaODuGaSXKUvuDDt58j5C8OQJhIuBlNtzn/61NclT0k68QfwF8uY5dTadBixbcb6qI2V8ECifNLW/8cIsiVFW9avcIX/sIfVSmHkUASwUCoUZRAa+kCqwVsvZbc5qs74quLaDZD+gunq2K9M6MKTSDlLExo5NAzHSBfKA8NmlbPqQm7/eOLvQjlA7SE0Lcnf8i13qiX8qQDAYZAMpEA+iamrRlCNywK0nwfxMll7qkV8ED/hXXsuHnHWnDNYam0KFEE1aUuERW2mD9EP2QD5DxJO/qUD4lAfcJ948MyGY7GOmG8pvQ5ANIzZuKJO0QV1MN8Sv7kJmXdV7YdmiCGChUCjMIAx+TIhEiIdNSXZpOqolgzA//HqejAhkUHUNhLUWy9owx6wgcY49Ml1l8HVe3D777NP+emMjk7/ymIbm14HAzv7zuzgHmjuI3XlwjhYRj7SmAuEQHOm7IqmOJbFeDClh58qf/CFwSCt/E0H9MSFywlo7rh6Vx4Ht3BjTzQw4zuQ5z3lOO8eTG7KLGLuKAyESbza4yNuSkjHxRtMawhd4d4w02eddSjN+p8vQEGsfSLF7aWXTxtJIL5BO4pe++yWt08LUUWsAZwgpn2vyXmsAC4XRg/6PTBgAIxeAHULm+CF/pzElHL/XpJUhKxlxRU6awvUnCAvUkSkE07ovh1EfeeSRjRw5BBq5Er+z3PwFxEaU3XbbrflDDp1xSUtEU3fEEUe0P4JY7yT/i4vkMbLQeXJ+3WgtmjVoiBuSap2iX8M5aNj5c865yxExY6F+QHzK7oBiZ9SpR39Ecdi6g7cRSWsg+bEpQtr+0+0cvS222KKdo6cexOeoFMfnAFIE7HM/FSC2IP3x4rLz1lR4TkWAtI3pRt6DOkN+g7zTJSnnRJBe0lUX0rD+kPa7H9tnO7w7ZZDnub4GsAjgDCHlc03eiwAWCqMHco0hz3qZ4Jk2yqG8/mPt3MAMmOA6kbyLP4OTQdxVXAggMkmj53Bgh5X7Q8/73//+tj7QYb1IkTWIDvBFAqVrXZg88O83YnaZ0k6Kgx9Th1MhCcmn8sojuU7L5xgT/8g27cwggvwqiz9K0FDmCKexSL3wL08HH3xwG5j9ZtJZeXa8PuUpT2nEkPbNESnZSes8PdpNZ4Iix9z90lFYG1JMi6ecib+X4YsL2ljp5t2DevBsql4eTMl7Tjqpr+mE+EF5aUppOdPelNF1utF/8Hg/pvyRe+lO5WNiWaEI4FJAGoaG517lui8CWCgU5hPItciCyC92BkHTj7vvvnv7NaABhXs/cDIJH+IQxD73NIA2gJjCtQ7Oxo53v/vdbcH/gQce2LR9SJ/NAH616D/atH7I2Ote97p2PJUDn5Ekx4SI0/+E/a2ERm0yRMaB++TTfQxtl7xZ+4gEIpfW6o31Lx80dBMRzt6/s/Acy4HA+eWev104ysQfNPz+zFpDU9s5wgQRpoFUJ4ijw92RMNo/v+7z94zUKU2ZPKTuFxc0XQi1Q8FzNp98y784aWJNQauDvPO80+RhuiBuBuzARq6NQ31dTidSxpQD8VQfPiy8s7mEIoBLAWkgGnwaofsigIVCYVRgcKEBMzXJZHCM/CATQ0IiRyBurgzYtGEqlAYN2XLu6Ete8pK2+xdJohn84he/2M6C8ycSmieEz58gHCZMC+egdMSM7EWSTAMjV+KcjJD1MN0nfOzdyyPCRauIXJqiJuuRL/mMBpA/Gku/JXMe3TWBf6TPNKrjdBBWRE5Y2sCXv/zlbU0gIkgzKA8IrV3SRx99dNNufuQjH2kaQmTYtCzZLF7vJmUeW8ZrAwQS0ZK2+MSRcc5zP74tbST/0lW31oo+97nPbXmZS9q4ZYEigEsBsqFSNcC+YxQBLBQKowKygdzba6+9GlmgpaMtYWeaDpkyQHsmDw1GnsfKQf4YRMjaOuTDM82Tq92vSJ/7DGj82Ahg7ZyBjSYqBFQ8IZ4gbxPJ3si38SDf0kE6/V+WdlFcyiIv3GjCaAStyUMGEU5auvxtYiLIo12+tJ00nUif8tJumnY94IAD2lS3dKxpdFgyTaj8+tHAoYce2sJkOtT6R/chffKeMk9U9msD6eW9BeJbkjgXF3lH0iwCuHgoArgUIBsqVQN0XwSwUCiMGpCTkCT/fEVQDM6ICDuwUWGs/OsHJRBH7nvZgySZegN+Ei4w+PfkxH0fj3vXyUiCeIPEnfy6Ipb9oMmPsrmGbHlWTppLu3b9ZQKZGw/ymGvyKrw8pq7Yx13+2KUcKW/i6Ylu8u2ZSdikszhIWJCe++RpsvpcGujLVQRw8eCdqTfvba4TwMVvxYVCoVBYKjCoICA+CE3RmqKkATRgIzPc3Ic8GLCZkJfYhej0BvlDJIWNXcKAQS2Dm2tIVJ5Dejwn7ETo3cXDsHO1NpGmLUe/iJfmLuRP/O65Wb9nrV5I63iQR0adyadw7sWbuoLcR6PKj6v0wL0wwvOXcjMQu9TD4kK45DV1mPiSx0JhJlEEsFAoFGYRQkisYaP1sk6v/zuD6Vt+ot1CWBAmRIJ9yETi8YzEjH1GRNwLm/gBMeEufveALHHv8zER5CN5AX6TV9OzdiTTmJiaRkjjp/ffEyVxXRPkU7gc9Ow+5QDkN/fJX8hn4hdWeskHyEOIKaQ+porkE1JOdvJSKMw0igAWCoXCLEFPgpx75/gSx4PYuQqIDK3g9ttvP+y8887tuBa7OE2V0q4Jj1SAOJBF7u973/va1Cv0pAcxs1HEmkOaMfYhkyFM4rQur4874SdCT3RCcmwgcRSLDRZ2/opPnpFK9/y7ijukFoRlP5GRT2EZ8UlPHIz7GAQvdsKlDK6ec89dXIk39RD0aS+OAfH18MwteSkUZhLV6mYQBCwTgaDzE26jblIP6gYidMcKy0JhFKDdM2SEzQjrr79+OxjZXzkQNrtyTaPaTWp9nEOS/boNabJrNf3KszVKSJfw/TSs+KN1ko4p2ZAQ9kgQvwE/ntMv3SNu/DLuueU5SB+28xiJtQnDGYI2fkgDyaNdFH+IGBPy5z6EbSJwZ4QXTh3lPmVi18cd/3HPlXvsY/gN4m+q6MsiH0mvT6NQmCksWWsuXGsQhIQQQwBHkGYH3CgbA4a6yDQTsC8URg3aP1JAW+WDyBSpNXBrr7122znL8GNXqx/5O9bFP10vuuiidmixna52tPplG81eiJkr0ubcP9OvNIs2oTkE2P+C/Y5Nev6O4fdo/oSx4447tk14/Diw17l60vQLNRsHtt5660U7dBFPZwcKSyvpmBhaRxpI2kOHK4vf7+Yy7aucIUD9c+5zzf1EiB9GXP1zb4L+eex9EPvxzFQxNo4lja9QWFLUKDtDIHxjgKByTzgS6KNsCMEQ4piQwkJh1JA+kA8ihMlZdo5ksR7QVCrNnkOMnXPn8Og11lij/UHEdK8/WDhg96CDDmqaP3HoY0igv21stNFG7WgU5+GdddZZw5VXXtlIng9ThM/GC0ekIIPO5UPuvve977V8CEtbpb8iiX4b5/w8/ZU20tmDzteza9ev5kxNI6KI67bbbruI/BUKhWWPIoAzBEKTgEX8IkDtbPvtb3/b1viMqqG5cPr9r3/96/YPUIfRujeg1NdxYdRAPiBsPg7JCVeyAnGihfMHC4RNX+HX77SsBXz4wx/e+hKZYlYBiXOoc/qQOGng/FVDfPpYzgRkn5kJ4Uwt09yxkwcfqTSSjqt63OMe18ilswJN6zrIWRz8yaM/XSCg/i7iMGckkB9HjMhXPoALhcKyR50DOEOQX4I2u9SUzQ/ZTb30a1VGDQYj71D9hBirD6fwWyg+qvVSGE1E860vpF8E7skNu4NpAR2knClVbnvssUeTk37pRit44YUXtila08LInCldROx5z3teI2M0iP6Mcd555zU5+4EPfKCRSWfCmSYWzi/p3CN1/h5yj3vco2n8TCWLi4bx+OOPH77yla+0P2rYuOJXdv7dSztJdvsNG2IaWT1XZPZ8RtqVd1HnAC4eMmYZm+og6GmCbKjU+UwANRxQLmXxBW2KZJa8gmWC/j26p8UwlWWX47rrrjtn3m+hMB0gGyDtnlaOHQKXPuK/uEifzSG0cwZuxIsssSaQ39/97ndtmnennXZqxJC8eelLXzq88IUvbHEgZDTwr3rVqxoB/OY3vzl84hOfaLLWej1EjzaextEfMV796lc3wmgH7+c///m27k8exEMbiUQgiNKxXvG9733vcNlll7UpZHmTJ/BxV1j26OVuEcDFQxHApQDZUKkaoHuV634+EUAmGi5lk/eUeVSR96cOGIOGf6DqUA972MOaW6EwSoicIO/0D8+REexMzyKGZhOQrs9+9rNtehghjBZdGFO81hFa+2eg8is1S06QMbMRyBu/joA5/fTTh2OOOaZpBrNURRziY/gXX+J3pAx/4kr+/MOYdtDOZf/35d/v5sg7fpiUqbBs4V2Ad1EEcPGg/as3bXmuE8CaX5shpMHkS14nizCMkB1Fk7pxn4EidoXCKELb1xciH1w958Pxlre8ZSNWCJw1ebR4yNfee++9aDdv/oMrPE2ddX1kj2NYrN9zFQ/yKEwOnebX1SHNyKBnJNIGFPkAfVVYdgZDmkI7fhFI+bFTmAZxueWWWyTvhBWu+nWhMHtQBLBQKBTmCHoChXwhVXbimqK1c/eMM85o6/NM0/7whz9s2j9+EEcaO2sMhXPvirAdeuihbeoY0WMXohni5j7PPtCEtePX7IxNHtYyO5bGsTKIZIhioVCY3aieWigUCnMAIWIBQpYduMibf+ta42edns0ZRxxxRFurd/jhhy86CFoYJhpGmjy7el2Rv570ec60LVjr5xgaS3L233//4ctf/nILZ52hKV9aSSgCWCjMDVRPLRQKhTmCnlwhcZlWzRQxQkYTaKevHcIOkbYhxA7fF73oRW29n00ezuuzU1h8SB6yh0SKA6lEAG0q8fcR07vWOe25555tqhlhtCvYYdNbbbVVO4g6RDFTvoVCYfajNoEUlim847xD79RfCWgXHB1hF3ChUPgPro2o1pfizxWZs1DdbmF969xzz23GwczOArSZA2m0cQOZtDPYuX3IoDMBreVznqAjmVZcccWm5bM+MNPKIaDSQiLzXHJ5diNtxHuqTSCLh15TXruApwmyoVKLAI4WigAWCtcOvah2byAiE91nQArSrxgkEMYjZ8Iih/4Ewh+SZwMJe3GAcJ65u0oncclD/EAfpjB74T2Cd1gEcPEwnwhgTQEXCoXCHEBP3CBEzLQtN4N6BnZu8W9aloG4B57t9l111VXbdDHyhwSwz7RyBjtaQUfPiIsfhrs8uI8/plAozH5UTy0UCoU5AiQrRKvX1IR4MfETE8S9R/wjdSF74r0mLVCIHyRM7vs0C4XC7EURwEKhUCgUCoURQxHAQqFQKBQKhRFDEcBCoVAoFAqFEUMRwEKhUCgUCoURQxHAQqFQKBQKhRFDEcBCoVAoFAqFEUMRwEKhUCgUCoURQxHAQqFQKBQKhRFDEcBCoVAoFAqFEUMRwEKhUCgUCoURQxHAQqFQKBQKhRFDEcBCoVAoFAqFEUMRwEKhUCgUCoURQxHAQqFQKBQKhRFDEcBCoVAoFAqFEUMRwEKhUCgUCoURQxHAQqFQKBQKhRFDEcBCoVAoFAqFEUMRwEKhUCgUCoURQxHAwjLF3//+9//e/Qf//ve//3tXKBQKhUJhaaEIYGGZ4kY3utGwYMGCdn/d61633f/rX/9aZFcoFAqFQmH6UQSwsEyB6NH6Mf/85z+H61//+o0Iei4SWCgUCoXC0kERwMIyBW3fda5znUWErzSAhUKhUCgsfRQBLCxTXO9612saP1faP1pAZNAzYlgoFAqFQmH6UQSwsEyB5NH22QxC88fc+c53bvbIYKFQKBQKhelHEcDCYiNTtTH/+Mc/hr/85S/Dn//85+Fvf/vbIj/IHG0e9FO87vMcjV/W/t3tbncbnvSkJw2rrrpq0wIihn/605+G//u//1sUfrz4xl4ZcQub50KhUCgUCv9BEcDCtUYIVgyCh6D98Ic/HN7//vcP733ve4ejjjpqOPHEE4ff/OY3jYBlPR+S6IqQnX322cOvfvWrRRq/EEVxIYH3uMc9hlve8pbDxRdfPHzkIx8ZDjrooOHII48czj///EVkThgQb9JgH0LpKl9f+MIXWrwJx1+hUCgUCqOOIoCFxUJPoJA15Ovcc89tBPCGN7zhcMUVVzQieMIJJzTixVx66aXNHgH70Y9+NOy3337Dd7/73fbM/Re/+EUjjKZ9syEEPvrRj7Z4bnKTmwynnXba8MEPfnD45S9/2fLwxz/+cbjsssvaPU2hMOwQSyRTPPJ18sknt3saxhDFQqFQKBRGHUUAC9caCF9IWp5zjt+Nb3zjYaeddhp23nnn4ZGPfOTwta99bbjwwguH97znPcOb3/zm4fWvf/1w6KGHDqeccsrwmc98Zvjyl7/cyOBb3vKWRgjf+MY3Dp/73OcaSRMvUnfJJZc0g9xtueWWw+Me97jhFre4xfDFL35x2HXXXYfdd999eMMb3jBccMEFw+mnn96epcUN4RQHTSBiKo7aWFIoFAqFwn9QBLCwWIh2DulDroAdLZ11eje/+c2Hu971rsNvf/vbNj2LDL7sZS9rWrkzzjhjWGmllYaVV155WGuttYYVVlihkbrtttuuafNOPfXURtAQQHG+7nWvG9Zee+02BfzOd76zkbzf/e53wwc+8IE2TbzDDju0aeIPf/jDw13ucpfhqU996rDpppu2aV/2yVtIa0yhUCgUCqOOIoCFxUJIX7R0IVjInuncP/zhD8Ovf/3rRvSuuuqq4fDDDx9222234fLLL2+GBo9GDmH0/K53vatNHyN2tH99nMcff3wjiN/+9reH5z3vecOnPvWp4atf/WrTOj70oQ8d7nnPezayaePJV77ylUYSaReRT9PB0hFPv0awpoALhUKhUCgCWFhMRIsWg7BZX+f+s5/9bFun981vfnO4//3vP/z1r38dfv7znw+Pf/zj265exI1fVyTRNDCt4aMf/ehhlVVWaSQSSQvJPPPMM4eDDz54OPbYY4fvfOc7jfDd5z73Ge51r3u1zSbCWzt4hzvcYfjxj3883Pve9x422mij4U53ulOLS976aV+ktVAoFAqFwjBc700L8d/7ZQ4DdTQ0ubcGzAYAR4NkIO8xnl2ABBj0E2cfd2FiqCemfx+B+uzrD2FTz7e61a3aNC/Qzm244YaNmN3sZjdr2jgawfvd737DQx7ykOYXyXvAAx7Q1g6Kc7nllhvWWGONRvDyzpBIYWkVb3e72w1PeMIThnXXXbcdFePYGZtHxKdt3OY2t2n+aP3ue9/7Dg9+8IObttFuYs8pi2u9/0JhbkHfzcxA+vJYsDcLQX7w6wrxS+awy8fheOjjzYxB5EXu48d9PlaD+A2SZ+jjTjzjuSfeyMHeHsxo5B7Ghk+cfdigt3fPnHTSScNNb3rT4UEPetDV7Avjo68j7+lLX/pSU3BQUMw1XGdhYa7eQpYRUqnpdOnEND+mCa3zSoeGZHuyhhqNknCZWgzYVSMfH+qWUWeuEThLq87yjiDv1VVa9Y4KhULkUGSQ59iZVbAMpNf2c/MxmOUfsePHoH2DG9xgkT2QQT0pTDjpxa2fVeAmrchGhr/cx00Yy13cM5ktQVSzOc2z+JKOK0hbXrkLB+4TJnCf+JVLmvx7BnG6F590GO5Jc4899hjueMc7DjvuuGPzx3/kceF/oY7UuToyy/WKV7yizXKZyZprmNcE0Mv5xCc+0e5pjNJxxZuOWLg6+vqhqaOls8FC3au/pQFCLoLP1buSPgFZKBQKEJkP7pE+hIds6gkOue7KkCNgPTK/IV1IEn8ZA/iL/BGXsJ6ZpJFn7vwn7qTtykijz4N79uKOrOvz55p4uEEO1A+JFQe/uU964D5IuhD3EF5ujDL0YYytSKoZlvhhCuOjfwdFAKcJspHG6V7lul8SAmjzwMtf/vLhMY95TPOnkfvySseoRv6/iCAkgJy5t8kmmwybb755qzNr9/p3MB0gnBKnNJA/782awBVXXLHeUaFQaIjMj4YL/H0oH4zcyXjTmWRJiFZkiHt+kaGeOHLPeJMrv+4Tlj9jh/gTZ2RX7gN5YSef3JMPSJieBLJD9FylnTSFl9/b3/727blPj9vvf//74da3vnUrS6a+5dOyGnAv/pBKfnJsV58/dSh94YRhrw4L46NvM0UApwlplH3nc78kBNAmAurtD33oQ61xC6Nx52uoMD4IGmvvjjzyyCZ8tt1226VWX4gm4QPeN9J52GGHDRtvvPGwzjrrXO2dFwqF0UVPgIAs/+QnP9l2/yMs1gn7j/irX/3qNmuB+JApjHvryY877rj2QWsdsfggMka80by5N15E6xYSBfywJ7cQAGOLkwccWm8t8qMe9ahFYeURek0eN/fcwXPymHGP8Reks846a9h7772v5iaOn/zkJ60s1u1Zb60sfR6lm/hTJuSPP3EYA6UrLkbcZL5107ErjI/5RADn9SYQhwH7LRkCk04G6fCF/4X69KWors4777xWb6aBg8nqeyqQTgSXuB0H8/Wvf71tBiGkC4VCgRxiyIjIcQTHYfI//elPh5e+9KVt89nHPvaxdgao80eRJ2eH+iWk5Szf+ta3hle+8pXtFAEL9s00+CPRRRdd1IiPM0zFjczZGCEcGeij1CkD/iyEaPJLMSG8Q+hpBX/wgx+0466QA7MXfnfJj7hve9vbNj/yjphRTHz/+99vv7ZE5HxkI2b8f+9732v5v/vd796OyZI/H8MpC3cb6xBNJyysueaabZwzRsqrPyGRmw7hV4af/exnLU31JC5lsuHOlHjyf8455wxXXnllq5eQm+mW8/MJaYeM9zaXN4HMayYU0pcrokFoIIB5gWWubqD/MlVXjPulgT4tgso78kWdvBQKhQKQDeRC/wHvmTZr+eWXb6TPuaHIlQ9JpAg5POaYY9pRUkgaIExIHUKFKDlo/vOf/3wbI8SNJPmrkDNH/dFor732aoTO0VPiopRwqL1TCIT1y0p5cwoBAoX0IWx+gUk76Q9H3CNHxSOcw+/9HYnmECk084HEORfVUVrkoTD8ySuy6FzVI444ok3bypuyCoNMIrj+qIQE+gWmfCOVSJ4/MMm333Q6K1X+uAvjz0rKi8yQxyV7RwfzegrYF4+vMqry3n/ir4Y+PtQ7YeZMP8eobL/99v91mby+pwJp5Z24dz7gAQcc0FTqjnwpFArTg8hA0Ndo+g3+yIOpLO40VdaduUdaZgvICDJbPuXR+aE0XaZWzfLQ7NGGITUIFaJmzED0EEGzGJttttnw3Oc+t5FBa+f4oe3z5yBuSJA0ECvjxote9KJGipAmsnDfffdtZNMfimwuRDJNQTtmyi8pxW226bGPfWxLwxq9T3/608PDHvawNobJq3qnrXRm6TOf+cwWlyla650RRdPHDsCnzXz4wx/eZkP83lJ6NH6IoXiQRWV+1rOe1T6Y8+tNdeFQfNpK5UYIyXKH6Csrd2lssMEGbYmPNfII5IEHHthIaN57P9YWro75NAU8r99yXlKusStce/T1tTTrrn9H/UBVKBSWDAYsxCP3oL+Z9qMBYmct2eqrr95+sej8Tb9qdGU3G4wzROVHPp0X+sAHPrBNuSEryKArwkWzxZ3igALgEY94RDsTlDbNNDCyhMSZEvWxiWSJG6nK0hf14V6cNGLWxpnGNfUqLdo/06errbZaC4sIAvklPNJGY4hoIanyxS0zHOKmpXNuKvLHTdzK5FeWyKTfXMovMq4c0vRBbJrWWj5xCEcLiTg6c/XpT396K58w3JBc9qYoaSURU4fkKx8Zy826SXnyLExpAEcL83oNIBW8zrj11lu3Z/ElXtfJwo4y1A/BZL0JgZI1gEujvvIuAsKWsLMG0G/eCoXCkqGXdf09AoLIIEHIAU0WQoNwWceGbCA57Je1IQ8Y+bHeip3D5ZFYfwSixbP+D4GhyUPyaM2sgcuvKZFB2kFaG2v5TPEiYtbDKS8ChlzRGppu9Swemjfr8EwnI4rOzKOJo1GTPnJoYwlNmulj8Rl7xG36Vj2anhYW5IuGTvrC0xoiiuQeTR7yqnzKQnvHDVEXlzyYlXGyBe2tPIrDFDF3Rnz+kIQkrrfeem3q2xgqX8kPom9spYlEYLUFbUAex8rkwtXR84e5vgZwXk8BIzD4LXU8iC/xulYjHx/qJ1PAvkK32267Zr806ktaidc7JXz333//RX/9KBQKSwZ9zECln9H2AG2UtXCWWyA3pikB6eCfcT+bIE+BstBk0a4hW6aFkTcarmjZuAnjWflpvBA7pG6FFVZoxEk86kJYxM64YH0domRzhg9gRM7HKKIkPmmoO0SSfGTPnR1SaD2i9H1E21hCIyeMuMk4066IGZJn13J23tr0Ic/KYhez+JVt5ZVXboROPuVHGjZuHHLIIW36EWFH7uRXvk0n8ytd5FS6NIWpA34RYPmjJZRXchcZVD55EaYwPrS71FFNARcKhUJh1iIf14xBH5A7AxlSEBj882EN7meLkTcGlCNAehAXWjKkKf75sVMW8UJ6kDt2/PKH8CFfdsQib64gLNJGQ2ZaFlmk2THYmy4VHz/SRSKRt5xXKg3xI4WIFffkQTzJN8JGI4nY0bghqNzESROpLJ65yYf3JB3lQOjEZ4rZ1Lb02CuL/IpTXpVBfCFy8mJnsfcun707Mige5ZJWYXRQBLBQKBTmMZAJAz+DbCBS1rKxR0zcAzckgPYI3M8myC8TKE9IIeLiHqFxVS7lifaPPf/uufGjfKmPhAX2eXYvDH95dq/O+Eme4haT6V5IHuL2xCc+sa1TlA/5ZkcLF7+eIfkB8SWfyOuLX/ziYZdddmnEDsSVNMSB6IfMJT4Qp/zGzr1wuRfWtTAaKAJYKBQK8xxIHfJggKc9sjTGTldr4t73vvcNL3vZy9qu2JAdJGC2EQHkRRkAYcq9fCJ3SBk/8accyhPSA/x55uYajah7EI5d6kB4V/ZIkys78bBXr72/HgkDrtylQysofsiuawQOQr75S55CdD0ro7A0jLSCIF4mcfIjjGfhIOUJURRXH6YH+8JooAjgYiKdmvGFRRC56lT5CnXVkSN0uUV4xE8fT4QQO2FiHyGXsOLJl13iYHR4fvmLm/tCoVAAhADIBaTDWXD+NIEMOnbk4IMPbnIj/kICXGeLgZAiGrHYIzHslcuz+xAb15AfCPGJEU/IHPBrnV3caduEiQmxQqTcR9OXOLjx19sxuR+bPntTsMK5F2/ckmbi4qaM/CadPi52rvIf97H+3IsnduA5YF8YHdTbXkwQkiFpoPOwS+dCwFx1WCbELOQsVyYdMOG4CRO4F3f8c4+ASPjYMfFXKBQKQT4IyRlXa8AcUZKPSR+W1sA5ZiWyC/idLSDrpsOMRW8/1l//PJ1mbNzqfKxd/9zf85v7mN6dSXwwkZ8evf1Yt8L8RhHAxUS0enZlOULBl7Rdxrb027GlAyF9jgRwurxdXUGEa77gCFhxASHcawpzTXqQzikehn3u+U/8hUKhEERukBfkg2NEHARs0wCZAXbc2yRAjjBFBgqF+Y8igIsJUwLI37vf/e720/FXvepVw6677toW5VpLw80xAv4+8prXvKZt10f2CN+QPiBc2UXImkroVfHAb8LmOfcJhyBGO5jn+CkUCgUyBPrZATtbnatHjiCFG220UbuSI5EnRQALhfmNIoCLCeTK+YL+x+j4AL8e2nvvvdsBqs7NcyApQeoL2/l5tvTT7BGmrgEBGy0eYx0fP+4jgKPdQwxN1+SZH35joA9TKBQKAbkAkRVkhKNLHCNCbrh3oHD8sYs8KRQK8xfFFhYTiJpT02n57MTyayIHqe60007NOE+JgHV6fH5K7tnPuJ/61KcOG264YfszyXve8552qrtT2mkR/QDc1LET2/3jcZ999mkHlbJ74Qtf2A5sRQJNK++4444tTT8+d0i2v2dIg8BGPvPFXygUCvlgjFxw70w7pM+5cv6Q4TgRsgPIkpDFQqEwfzFrCCDyki/O3Pd2hNh49pMhgq/3f23CTQY7tnw5+1emv5Osvfba7VynCy64YHja057WfptG00dLaH0gAmha2OnvTpTfaqutWhymi0899dR2cKd/PdIcyu/FF1/cfmlkhx7/Tpe3Sw+h5N/U849//ON2BIBfHNFA+rWQL/YS2oXC/MVYOdbLsoncciUbIh/IJyTPb9XIMdO/1gVmuQm3kMXE1Zvevr/v7QqFwuzHrCGABA8SQ/gAQUJQ+SpFoGjG/A8RCWI8u/onI/vxDA1cL5QS95IQJXkyZeJ/k9tvv30Tov7/+PrXv779vsz/GZWDv6RDa+g3P7bwOyWe5u7tb39724mnfH4LdP7557f/QMozguh3PcgjkimuTTbZpP066CUvecnw1re+tWkNaRK52XBimlgdMlBksFCYXyDH9O/Is0zTMu65kQfuY6wJBm7Om7MpzUclmcXvOuus09x9YPpvrl9AMtwiS1xzD8lHTNKOSf4KhcLsxvXe5ETQWQCEheBA0iJAMiVx1llntWlORIf2y/8cXW2wcP3Rj37UBNpYw80/EBE1cTLSiZkKCFTpIWcI3Gabbda0fn4vhJQSnltssUXbIUyz5x+BSKLpWz/s/vSnP93IKVJLi+eXQKZhPvrRj7b4TQtbW0hY2xhy0kkntXwjmKadEV4/P2cvD+qARlJeCGJf7inbVMsoPfmlxXSmlPLBVOObDHkngffsp+gWqKuHQqHw/4Fgje2H7MjNELDIUCTOyQRkhlMKTj755CaDyFPn/5GP+jmZ5dnHJ6P/kV3+DyseH60+MMUnbXaQa9Lsl54sDVlRKMwGZMxi9IkvfelLw6qrrto2Vs01XGdhYWbF55psIDBInysQKggXosNOZYfgpPL5mUjYnHvuuW1t3dFHH92e+WX6eBYXBKb1eaZ3X/SiF7V1feKU1pZbbtkagvTe8Y53DB/4wAfaZhEbQghVAtfRC4Ttxz/+8eZ3v/32a0TnIQ95SPsyt67w+c9/fhPUF110UVsjaDPJ2972thYXzaEp580337wR0de97nXDs571rLYRBdRf30CnAgLdoGBTC+EvfZhqfJNBWolXvg06+++/f9OmOpqiUCj8B/pH5CREhnl25UYWIX3WHCN65KcPTP3YB6d/wLoyZJFZCbMNPrz0xcw8eHafdcj3ute9hoc//OHtgzWHHycfYyEv+XgvFOYb0t/0tb/+9a/DK17xiqboefSjH/1fH3MHs3ITiMoljAg0woYA88NrRGn55ZdvB5l6pnXz7BDT8Qx/XpZ4IixDGqcK8fiPI8G47777DjvvvHNrABSptHp2A5vylY603dPqOTIGqSOI/cwbuIuPsEQSrelzzAyNIa0bAmjDielfgpx/z/xreF//+tf/h8ymvIVCYX4hMpH80ufdky+g/5vG9XFqmYgPx4c+9KHDNtts0z4QfcQ94xnPaB+PZgt8cJIz97jHPdr1YQ97WCN4m2666fD0pz992GGHHYZnP/vZLQz5I20ftf4/a+lNppblgywik+SBWRL5WigUZg6zZgo4pIUAcU/ggHsmmi0I2YEInfGMdXemPayVQ4zE2ZOlXBcHBB/SSVNnk8aZZ57ZpktM2T75yU9uO3iROJtCrKnxVWCn8G9/+9umKnZotGlbi69f+9rXtqlOAlNeED7+TSEjvoS4/0Y6T9C6QF/iSKIpHdPNdu9ddtll7euctkwY+RNf4pwK1HNNARcKswvkV/o2WZB1v5dccknT1tsMhtD5ry8yZ4aBrKLtEybyD3w46neJr++H/ImbHPOhLU4ftk4w8GHtn8HWK9/+9rdvcjC/JxNOvCGDhcJ8RPoKo73XFPA0INowQoRJBYNn6CueEYbwir+xQGDe+MY3tkOZ44d/4aYqpORBfuTVPZKJLBGUnvMfSZAOcCckNRZTnMLSAvIrDPLo3te8sISva4z0EDsCWZwEPmKIFIpTHMK49oI++VhcCF9TwIXC7EP6i6sPTFO91hT7YDINdec733mRXOyJXX8PuRcPuOYjm+n9i889d/fklDWFJ554YpNj0vURSgZxF4b8KRTmI9LG9ZGaAp4mRDAFqWCG4CFQXHvi5jo2XA8aMUIp4YGgW1Lh5OsbpO0r2FS0dJA8jSOQjmfkTjn48bslh0OzC4QDa3Kyvgb6cvIj7wSxXcjIoPuUkR9p8OM6Wb0UCoXZDXIj/Z0BVx987M0iHHXUUe2Dyfmj1g3TmJN1ZAOZEJnJfwatxAV9GvHHkB/c4p54+BMHOWWWwsY08syxVbQg1g4CP4lLGPGA59wXCoVlj1lDAAmdXAmbPAeESkgNt97fRIaw7CE8YdYLwcWFOELYQHzSkhduIWMxhDE/4JnfHrGLH/GIoy9b7xaC6Jo0kwcm4QqFwtwEbT+ylCvS5KMzhMr062c/+9l2fJQ1yKafIm/GA/mQsIwZCchzyJ57ft3zT5Z4TtyRRUnHx69zTbfddtt2jJWTDMyIhOQl7lyVp1AozB4UUygUCoVZhHzAIWCA/CFdppscEG/KlwbukY985KL1fYjZZAiRdOXfZjK7hK1hztKTnqDl43IicAu5M/3rEHyzGh/60Ifapjckk5s4Uw5h6uO0UJg9qN5YKBQKswghaYBAIVY2Rx1yyCFtvfAzn/nMtikDoUL8zBhMBv7MGETD5zDoXXfdtf2dyIYRG9dsaOuXnyB3Y2dQenATl3wie9YeWrdrLSISaEMbwipvriGp8lAoFGYHigAWCoXCLAGChCwxSBYihrB98pOfbBuyTLlmzTF3hDDTuxMhU8mADNIomr61eB2ZNH0rDaAZRNQy/TsZQij5dWag38k5YoZm0q8tnVgg/4ilPCiT9AuFwuxAEcBCoVCYRUDQMl3rasctguXYJwc5xx6sMUaqJiOACFiImnDOR/UrSRs4xO3ZcS7SNaXcpz0RkLnkU9o2hsiH/Ni9v8IKKwwnnHBCI4HAjd/JtIqFQmFmUQSwUCgUZgkQr+zwR9qc+el3lhtvvHEjVTR/vTYvWsLJyBqIj19X5I1/U7eOkzJF6y9EY0naZBpAecjaPmE8izvx+9+5uJ176kgpcfHDrVAozA5UbywUCoVZBoTJOab+9vPYxz52WHnllRv5Y++KrLm3PhARCxmbCKZgheEP2fMrSqcZOELGIfV+Kyk+ZK5fCzgRxMO/OOUh+ck0rzNKnY0mjUMPPbSF4caEKDK0iP3zNQGJlMeQzqB/tqnFMyTeENRcA8+9W/Lj/pqQcPGPOEvbNeHVewj14kB4ZUjc88Eoi7pIuWIKyw5FAAuFQmGWAEGikUMcnK/njx7ODQ3Zih/PAfu4jQeDbB9G/N/4xjfaRhD/EOfmDEHuIZfsrgk9CXSffAgr/0igjSF+kenf6exDBhYXfTjxMH2Zk19+5EWZsxM54UI2Yhf7Homnj3sshAvBhBA+YVN/0mBSH/xfExHkR57FJRyTPOZ5rhpIHTHuQ5YLyw6z5k8gSwO+oP3pzjQEpAHmmoZZuDrUT/0JpFCYeYQ42EnrF5N77bVXI1nkFUylD+pjIKx7Wi6/W7T+T1rWFq6zzjpN8ycd5C3kbioQp4FdXO6RTb+pe+tb39r+6z6e/OUPJipf3IEfz4y4ECd5dY9UuJJb8sCPsvDjyg5Jg4R3TZz8xG6i8nNjIPmNXfLhPuV3jZ34x4N8ff/7329jld+ICtOHd53LCGFW99qfNub8Sv+mfuADHzjhe5+NUBb59V58TM3lP4EUASz8D9RPEcBCYeahPzhM2REtfmPp/6JkFWTQmQr0LSRDHDHSYu+eG/ISghJ7ZnGRPs0gZLRahx9+eNvA8uxnP7uVoY/f/bVNjz/xB6kPpELed9ttt7bxRHrxZ8DmD+k46aSThoc97GFXW2eZtEMkk5+JCGDitTEHaWaEZdynTJAyJc7J3p+d2NZ7qi/xZDo6eZrLUDcpC2hvNg7Z0W6t6FyCsnin3mURwFmMIoBTg/opAlgozDwQpgMPPLANjttvv33rGwacaK0mIxATQb+KzAMEw73BWPwGY35CZNjxj1BNpc+LqzfSOv3009s0MAK4yiqrLErDtfc3UXr8QvwkjPwiThdeeGEbjN/znvc0f8ccc8xw8cUXt0OplWOttdZqWk+7n40J1lX+8Ic/bGTbOkXnKjrGRtzJQ+prLKSJ/FlHiVSuueaaw0orrdT+By+scH1+5TP2k0EYcee95F0kjrmOvvx5f8rHzCX072WuE8DFlyaFQqFQWCo499xzG3HZaKONGnFBCgw0Bp1rIhDXBuJD9LJWzTPCkak56SwpxJsBHuTb30KWW2654bTTTmvpZNDPQCoPrp4nM4F8I67I7Mknn9yIn7MHL7nkkkboHGzt13TsDjrooDYNbUPNpZde2s49RP5MS3/uc58b3ve+97W/oogPks7YtGO8F+clHn300Y1QvuAFLxhe97rXtXj8ps8mG2WPtsv9NdUrd/5Cut27gnt1M9dN3plryuV+OtpcYWooDWDhf6B+SgNYKMw83vGOd7Rz+bR/GikDJlnlihyEVCwOhNXHxAP6GSMu/a+Xi+mLrjGLC/GAsMgecomomX71D2N/C3EQddYaMvIoTxOll7yEKLlHZIX9yle+0jaxPOlJTxpe8pKXtLJ84AMfGL70pS81ouc8wgc96EHDhhtuOLz0pS8dDjvssEZIEcIf//jHTTO55ZZbtnWQf/7znxfVy0Tgxt973/vetm7PszBkpaN67NheY401hoc+9KHN5OxGmOj99XWmfD0mq5e5BmVJO0zbVrbYzQVog8lzTQHPYviaJhR8EUK+NNLJXAkn964EErM0ECHXI4Imr8Bz7iNUlvTrKB1MPNa9yEMacP/qx+bFlZB2TITGLWzimk5IM3FKswhgYRRAzuhzrvoWmI7cZ599hk022WRYb731Wt8gN1xBPxEGhLPWzTTkl7/85XaAM0JkKpI2CukAfT2yJIOsfhYZEBnDLQMy5MqPQS6yQxquyZP8QfqxuNi5z7O45Nf6NgQXKVxxxRWbXPahyZ/7yWQvP8lT0hdGuf3PWH0961nPatPmtHNvf/vbh7e85S3DYx7zmFY/ZNnWW2/d/lmMENIE+sC1y/pTn/rUcN/73rett6Q5lJbxQN7HA3t59XeWn/3sZy0v6lRdMqbvkUkyzPhzu9vdrvlhUl8TIfIX5CPPvb3y9/WeNjEe+IW85/jNe5EGIx5+ldtzIF1u8XtN4D9hxJe1ln3ZUy4m6c8lqDt5VidFAGcxdFIdXeeP8EhjBg3Uy/SD9fxjM+tAphvSlRbj3CzV7piH/D4pRFTa/DJjO+PiQFzS0unE5ZkhAN7//vcP9773vdsXMbvUh/rinjz4apdXQp+buOJ3uiCdlFFeigAW5jvSF5k863c0WaYzyaF73OMeiwZ6fUS/059d9UWywXTnLrvs0q5bbLFFIz60Wwjku9/97na+H3+ALAnLDwKGIEbW0WaRf/q7Xbr8epa+NYlIliNd+DW9yZ98icMAH5mhHP0gz0gr7u4PPvjgVo5nPOMZLR2yBZQx/sZD6irppE48H3XUUW3Nnzqj0VMGmkBH3CCadlP76wk7B1QbsJE9cpA2Up2bcn/Ri17UNiSIO+9kIqhzZNOUr3LQ2orLb/A233zz9m9kslMexRVZPFH5JkPKDu4TR/KZOh+LPlwP4ZiEcy/OxCscO3lWB8oQ+9T5eBgvvcQ12buda1AvyqIuigDOYng5GrnGR5ilIbumUSq+RdcEIwGQQ02XRmOVFiNdQnfHHXdswtxBqZnuyRd2GthUX4/wETrKCuJlEM4HP/jBw7777tvsU17++ZWmtFNf7JIf1+lE4gbpFgEszHekzSNS+jtipO0jRwibjRLs+YmM6qGf6ou0VXYLC/OGN7yhya7nPOc5ba3d61//+qYJlIZnpPLb3/52Izv8OVuQ/EHs3vWudzViJ1+mRl/2spe1tXpHHHHE8Lvf/a5px7bZZpsmo8iMkEjHd8gr+xBFeYPICnln3DOmZU29mlmwAzQyhp/cj4ex8biPrPrjH//YSB7ZJi/KfP/7379t+pAffvzqzjTwcccd1zZr2PRx9tlnt/qlhTSFvPrqq7e6AWlMBPE529DyIlpYx+jQJIoz5U745NPzRETtmiCOxCO/sUu8sRuL/l0A/+qofzfylDpyz929OPnhV7iklbDjgR9hk17iTf5iP9ehXKmLuU4A58cbmQD5ukwjZDRSSAeI1stXHLuY6YY4paPR6GTOerJDjTAkyMfDkuRD2YR3TQc2UFizctFFFw2nnHLKosXK6fTJo6tGng5dKBSmF/pVBkT9TV9EtmiskDJu/KT/5V6fTL921aetc7PmzfQqrR8NlP6LFFmTZurzO9/5TiN0NGA+rvz5wxTo8ccf384DpPmybg05Mq1pdoJcMK1KZhxwwAEtHfJq+eWXb9ouZEk+5JU2EPHq85d77u7lyY5ZH78+9Lj1g6kwEyF+IGWPrEL6HO1Ci+fD1ocjwmenr1/obbrppm1KFsF56lOf2tzvdKc7tQEbcXMWHXLYT1cyE0GeTeu+9rWvbcfNvPjFL26EE5LPxOHeO5LXyco3GRJnym/MSh3EbjxkvEmZ3KfOct/Hk/v48Syt1IVnZjKk3CBO8UDsCrML85oABhohk06QZ/Ccxt833ulGOg/h4UogWxND6FscHUxX+onHNWXTme2Kc4QBIe8rXz2k/PLGEJT91I5r7guFwpJBf9Mf9TN9ytWUIljDF1IUmQH9vbBM+iXNmylNGw5opWxooJGj1bIGzlKPK6+8shGlpzzlKcNmm23WCAsZgPSZEfjJT34yfP7zn2/HqfhApBUzlUpmWC6CGNIOml6mOUMEfcQ6gkV58hHpPnmkJVQWYK9MiBOCa2lO3CBlmwz8REa5j2wSN3nlys2Hvyv35CdX4XqiFzsQhj9G2IkQWYhcI5ogDkZY8Sbt2DPinwqES3kC94x4ry28y5RPfAnrGbhD8hukLPE3EeIubPInHfWhjRdmHyZ/o3McGqSGlwatQeq8fQP1DK5xY5YWpIGAnXPOOW0aAUxLZF1N8nRNne2aILy4lEV84iZ0/VyeYDaNYzrGQME96TI6LdW2a6FQmH5E/hgc9VUfgvqb9co9+Mk1hCX91LP+a30bYmeDA3JHMydOsxo0e/o+EmeTCW2fdXKmgxFEmkfkzVTy8573vDZFTDsoPTJC3OKxsYEmkD2N1/rrr9822SGAII5Mn5I5kT/ymGd5dqVBJPtoAkMQmJR1IoyVy3kWJxNZB3GTL3Gzj3xlB6lHSP6A/2sDcaWMkGl7SPpjr1NByqfOfvCDHzQ5DurumupM+7CeE5QvYdyL0z3ip07UD/hY8BGQ8Ym/YLL08g7FrY2Zmhcn+2tbp4WZxbwmgCEwOp+G2TfkNEhuGqwrYuR+skY+VfRxmkpxRI2OJ12k7LLLLmt50hHZ5X5J0deBr3tnjCmn+K2RsYZFOuz4iVDQcVMvvft0Q5xj443d0kivUJhJaMP6mr7umnYdeZD+6QMwa5Z7OQXCpU/2g7ZnZKr/vRqjr4YERjP25Cc/uU3nmia2XpDG8LnPfW5bC0jb568jpoRNoSKCO+ywQyMO/hfsjDzTpbSGlquIw+yBw5WlLy9IYvpryIW05RHkD+SdJhLJ4I+fHtzHMyBO8TGxS/0y4otdlv+kzpI+mJJll7h72ZcyxG0i0/tNXOrBx713Gjuyk73n5G8q0DaOPPLINoVv2ppmF9m3flz88jLWyId3Z5Oj5Ubywy7jCj/u1Y060Q6s8bReVFvZdttt2/mKCGfKzQRj0wPlNM688pWvHN75znc2O3H34WYCfZ6gz+e1cbsmE7jX1zJWxq4349mNNRP5WdqY15tArgmKrvHbOedrheAzPQHT3WClpfNJz3qdV7/61Yu0bITga17zmiaY+SO0IkSYqUB4kB4BpxOK39lVBLvyGQR01O22225R547gminIWwS6vBpgCB27GmkZZjIvhcJ0QT/Wdg2wNGqOInnAAx7QtG60fL2c0e4dSkyj5n+5E/V5/vjXtw04SCOiw14YaUV2uHqOPHHlB1kgC4SByUhJ/EDKkvyGYC0u5MNUszXIZE923abM4i9cHeqH0TbsdraW03t0fqEjbUz7W+toSh8BVYfaGFKOrGt/1iv6965771x9I++m5MXlfVqSZI0k4udqHaipfjvKrZlE7PKuLAlw7qFn6dI0alfsaY4RSOsqHWuk/cFMvlvtrIc+wS6/2nMv/z6eorlVFvbJpysttSUW2r5644d9yoQ0C0+Roi2LU1rxo26FS5ziTz+kYRWfpQSQcNyT3mT9czpwvYWN503/vR9JeCEWS2sUGqxGDHlh04XEh+AQ9s6u8nKl72VL1+LtLKzWeNLYppIXYdKxpWONjy9BUwigkREWji9AtJDQNLrpLvtkSIeQtg6gw9GOElYGy5nMS6EwXchgoj853uX5z39+++uEtm0Q0vf0TYM0v8ifjyGbGa6pzafPQH+VVvowPyGCcZdO5ArDH0yUnvAph/D8uU88UwXtn1/DWZs49oO7+vv/Qn2rF38z0U60JTuzkTx2SByt6p577tk0ftZ5W2OO3PgbivWlpvLVu808pvLZe7825ZD94tcmbQoyQ2Vq39hgYw1ZbJ26+BH3L37xiy0f1o/y6//Lrs5FFIeDsB34TX7biAPSSnubKWiroGzSljcnTPhjizHfDJglEPJr/M14CfqRfupjxfKJnhekjXovxuuf//znTdupvu1slxa39BP9GtSBsOzl7eijj26aWbvPPXNLP42fpV1npQFcWNEzoQHUoMRJna4TWSNh6tfaGscHWEz89Kc/vXVkLz2vRQOaSl6E16ATlhDQcaVvQDL145+cFp3bJSd9eZReBpWZgE4hveQVQXZ+l68u53rNZF4KhelC+q/2a9OEQUcb96x/O5rFFKo+aGqVdsVA7iiqidq8vgL6SeLPYJEBSh/mljjc8y9N4UMAe0w0yPQDlqs4E9Y9u8WF/JB9ZiP222+/Vg8pC0wlzvmO1DmihWSR38gf8uC4n7XXXrtpAK3pVp/WedqgY1z70Ic+1D7+6XmQOn5o8xwgjkSa4tfuvANExZiEGGmzCBDtFHnsDypmjtxrqzSLlg1IT56QPYoNG4UsLWBMVe+xxx4t77C0yUwPdcakzSofJY96sAzqhS98YfsYk2fl8DGC7CGEznC0FIK2FWF0nJIZKWSbu/p7yEMe0jR+4qUBzRpaH3A+boxjNKym6mlHpUX7yo7W0PvyDuTP2ZF+T4ig0p4ihKuttlqrrxDSpYXSAC58gTOhAZQOgeqFermOItAgNthgg9ZZNDhfExqrPPCrAUSQTwXpcK4Ini82nZJwoPXTYH3d+QKMQJ+qYF8SSC+DjfohiNQXY0ArU2auGWQPCH8DKc172jn44DSAGwwMOPwb1JHCa+p/3EMK9NcYdtImP/hh9KH0aW5kAX/9s/uJkHiEEQ/kOlm4yWCgM9j68PSh12Oqcc5neIeA+CEKxgsym9btxBNPbIQB3CNk2pQpSdO4yJr6tkMcsTv11FPbNK1NR47ucYahcUe925hI04ec2O1NO+03qsYm082OKMrZtZY0eLZZRNtOnD4wLHWg7aZ1tMNcm5+qImNJIL2k6WpccXC3vOy8886NANv0hHTpB4izsplWp/1E7NQZDaA6FBZP4I/iJOdY6svqXt+lXUWI2YvHMi9KJUSSP8TQn2cQThuxPKtn0+wINnIqnHcnT+lrSwulAVwo2GZqDaAGGA2bZ19fztNyDpVGQCCnswB/U83H2Nfax+MH5g5x3WqrrZq/+OVnust9TUja3kMGGfWUgbJQmItIW9a+aRkc0AzsDIym1izip/03mBswkcXJNIDiEm/fT11pJWj2DchmFPgxmNNQZBmFwcTgFtlisKYRMpBNlJ447Rw2RUY+gbjFI758LC8OlAFh8Ks2Gw5oUyIDYKblz1yAOjc27LXXXk2jp40gecgLQrL77ru3tXpHHXVU03DR4n3rW99qfrU9miuHe9NCmwmy3tw6dNo9/s06GfeQRX830Y4QRsuUTPWK48Mf/nDbhOLPM85wRHiQFvGYdjYFKn8+YmjXrDmk6LDmPO11WbzbtC1pI1hvfvObG5mzzpydtYqIHEKofM7RpCXFBfQfP4lQr8YjxI92j1Fe09veiw88ZbaWXp0hljbrqB9KHn0fx3BgtGftXp3Kg/xRBlnXScuKUB900EHtHeZDbmli6dLLwtVAu0XYakw6NcEP7Hqhym1JoWFpnIFn8boy8sLdfRpZ3GYSSVMdMCHJBhyGYCpTZq4ZWhX9GyGjHaF9t3bLMgzCnUbAml9LMawdEiZHqkwE/UQfzseRwT+aCQOYQV+fNj1nOYlBhnZDvxI2hI2d9cAJMxEQiBe84AVN05R+SlaIJ0RyKnDiAQ2LOFKmwsRQ5965JTFmqSwhQiTM4iATDrmmTTVNSVNHbtK8ISb8IHqmdB3fg9whbxQPyLf2k5knHyYIkvA5mgyp8xGBdCKR2pp2qv1KF1HygWDDiLwhfeLygWNqOhsOlzaRGYv0E+3L1bjC+Mjy8UNDqizqyEeY6VjaUf1Ufem3+q/6ER4R1HeVkcZen1KmXNWZsup//EtHejSAGdOtb6fx499YL/60f/0hH0Pc9Y2ZqLPSAC6s/JnSADIaSF6uNR2+FmgAoWf8/IUUTQXKxWhogfTF7wvQGga/r+GHHaPh8p88zATyDhj14hqkcxUKcxH9B5YF+AR82re2nb7nasA1JWQAzodh3McDN31V/LQzFujTBBl0kAJ/+6CVkA6NjelmMEWIBPjtHILoN3BZg2hg1weRUoOg9Vums2hGaEOQCB+OBjtLRxBXkAcG5Ddl7vPe+xGnqUz/5s1O0si51Md44SdDH069qxvPkSnsJ8oXRC7HT65Twdhwfd6nEie5DKkn8bnKs/dBeSDelBnYIXb8pDzc41dZIXWD7HmvnuMXpC0t7iEsKU/aHwiX+AEBMpb273UmId/yJt2YrGFE5HyUqQOk2vo9fYFG1aYY6/Ucpm59LgJMG6p8pne1expP0/BIrvIhkfqejy4fV6Z4lZ323D+vjfG0gUgnnmHTCG2ijzD+11tvvTa977eK+oUNOjSr+sbSRq0BXNhIZmINIGgs6RCgwVmb5wtER+7T5G9J8iBs4hhrdABfMb4ClT8deUnTnAqkJ115yH3MTOelUJhOpF27Wm8F2nTadQZfV5oBA4n1UwbiuAvrGmRQ66+mVA0gBheDj0X9dnsa4JA/2guaPoOLNV4GJPbnnXdeO9/PtJXjOqRvutAOUrLBWmHGYGjNngHL0RUGSxoLg2HyJI/JU5/fEIj44U7zgpxE3oYo8weeU272MRMhBIkf96bwhDWAhpRIN6QAGe/JDsQPJL08TwVjwya+qcSpLpi0JUY8niH27OIegpfnuPPLJC+x78c9dkHcxdeHiZ/eDhI/spiwzEwjaafePXv/NmFY/sRY50j54kPGOj8fPpZE0J7SeuoniKJ7/URYm1xoVX1EWb8qXuWNm/WYxnNT4eKnBUWGre3THrV7bc25nOLQz8QvbYYfWlQfavkQXJr4/2+6UCgUCksdiAeTQdPVwGAgQeJCiDzHvUfC8mdQY4QztWzwoO0zncWdVtGCfYOLwYgWA8HzwWvQNy3lOAqaEOu2aCG4i6tPy8BoA5nBEgm0loybtAFBkN8MtskfA+y5s7d+jUYx5ctALT7Tc9YvJv7Yx99EhuYzV2vdlMFHtbDSkQ9pW2Dv/73Kz43h1g+28Ts2jWtresh/0N8Xli7ybtPGkC7tHeGy8QWhM91rqtf7Rrxo+qzHQ+BMawuvzdPQaa/u9SEacxpyxE77FwdC6cMLQiLFr10lL9ocv7SCyKM0aBl9TPHLTj8VV7S3SxtFAAuFQmEZg6YBeaCZG4ueVISYgMEthsbBEhbLSgwo/hBB02XgM5gYiAxs1iHSYCAj3BBHpMuMAK2Dw+ENaqavXA2a0vz0pz/dpokRQHlln3yEpI0la0ghEgbcxGcaDoGMdg6EoWm0rsyifH8hsc6Nu7Shr4Ox4A/RdbSMqTbHzBg8rV1829ve1jYuyD9yaOG9Rf1Isak+7qbKuUuDSb6mCuVR1hA+z4m7MDNQ96n//p2y8+zak/zAu2LPaL/x49q3i7iDpRP6F399+9fepGOTyU477dT6nradJV9JK+AfetK4tFEEsFAoFGYQYwcdMA1EO+DoibhlAOgHsiADGaIR7ZfpJ9oHa/cQImTI1JQBiLbCVK9jPWjXDGYGMKQPIaQZM1VsLaH1SzQhSJ480FyYwjIwcbNuiR0DyQdCmed+gE05pImcucoTsms3pbPSGOexOcTYBgdpWIDvijQynsczlvA4U5Bf+aPVtPjeOitltMsVubSr2ZIbfpBe0+LIMs2NdZPSEE65Jkvvmoy6ZsSBYKsLRh0VZgYhbH3f8Rx77SJt05XR3rnlmV8mcYBnHzWuPqz0PW3LsoPEIW7xxB97bZB2zweWfh6Nv7hdIcvA5Mm9uJY2ahPIwsqeqU0g4nRNlfu1jwbhzJ98Kc8ELHq1CeRJT3pSK78G23eEQqGw9DBW5CIG+qCpWATJURy0bLRYBoHIjvRN/vt7/+V1DIijJ0wBIx+O3zA4bbPNNm1K2M5PxE+/N82LHCGEW2+9dSNB0qaFMxiRC9Yi2lFqnaD8IGU2myBQ8oZomkbzLO/ySIb0A6Y8slMO5FFead+QU/6sV8w/0BMmpNMCe9NufbknAn/WLzqw1xSdc+to9UxrW/NI06cO5N/OZmT2/e9/f3OzoN9abO7yY9E/AkgeT4WwKUfKghAjuurYeseQjsLSR96DtgTqPe9F20sfctXmQ8a01bRhxjsD/tLO8yyMPuZYNRsqnekrTuHjh/8QPHlJmtpGCB/35I/hTxzsmKWJIoALK7sIYBHAQmGmoK9B+lr6HgJ25JFHtgXiDpU1SCBEGXx6JA4wCHmmVTBw0GKRJ+RMyJdrBjlX/pNu7rn100/icE0ansUjL9H2RUsRmSY+966J27N80brZdWzdkzVPNHDWKpqqtTPSGWwJSzNoHZX8SDtxjwdh7e40tWZ9liNLDMjiRVARXGTWJhY7kKWJIKpreUGYbXKx7hEhVd+pr8WF/CtzXy8W+xtXUg+FpY+8BwiZ8pw2lHbmCrl39f5BOCZtOHH0RNDHgiUGdt37IGLfx5PwoD1pV4y+FDfXPlyfF2ZponYBL6zomdoFPDZOX6DW1FibMxVhM1VQV/sytctJ+dMAZ6LBFQqF/yB9LVc7hWmjrI8zXWSg6Qejvm9mUAEyC1EC/djgIhyZErKXj7wQG+7s4i4O8UsHkpb4mMTFPv6F99zLjgxq7JLnDIQImYNunR9nMb6PUJo+i+8RN0RJGqZOaTMRQHVB4+gIHdfxjPWPpn/98sx6LGQLgSZbpW3KTX79cks90fYhhqbl1Id659cif2SREe9kaU5kEta0snzJfwZ7dTERUmfxI999vS4NSJNJ/H36SwvKBdLJvTyk3U0X+nrLfV++XMe+l/hNWwf5A3b855m79kO7bhcxZU6QOILcC5u+xqTc8gbj5WdpojSAC19IaQBLA1gozAaYikWUnDNmVyDCEpkRwjURovnLoKJPC+c5bsLT3omLvYGJhi0DVGSAsCGLjHiikez9jQdhIWmBNI4//vi27s9GD4QrSHpksDWQjrVBCJFEeeAu/clkJO0h7R35La4cu+PsNfWIbFjvKA7nGebeRhlEUPj88URakDqZCUhTvuVTefv3kfqcbog7V+9JmtrE0khP+fr0mGiVuaXNzgXkHaVf+cMHjTMN4FzD3Kn1QqFQmOegEfNrN2vvDI4GZYNNSMlkCEGkDUsYA7sBy/RwSAZSyR256sMZ0Pg3G+Kevef8oSR5EV/Cjgdh408YcSBiZlrMdiB//MgLfwlDW4b4mQKnUQkxEIe8TARTuAifc9hspqFJpPWTjjWR/nDhQ1sc4nTMhs0x1g4imWZDTAUjj31+ZhKp/5TXc4hY7KfTBCmvNPs2Nl6YJTHid+3Rt7vCskFpABd2stIAlgawUJgNIBscxuxPAHYX0k7pmxlIJ+qfSFbvbl2cf4ra8CC8zRE2hCA+nhnavMgihK5/dqWh8Y9Sa+OsyTO92eOaZIXwZAtCanev6V/aEvmU/nikQLrJS55hMtkkLhAu9SRc4lY3Sct9tE7CCRNymTwhrkl/piA/pr6tk4QQsr4c04nErU6j0UqbcM9tOiENcYaE5wNCm8oHyVxB6st7mesawCKACxt9EcAigIXCbEAGF2fa0VztuOOOV+ubE/XPyBQkAnlw3p0jXyxON0jZ4brtttu2/8GKL5sdaN1MkRr4ETX20rB+jYbMzlrT0s7lsybOwM09pGkyIFvScn6g/PjZPS2d8CE1vTwE9tzZhTSA9K6p7EHiTDyB5z6OuMU+hFW6M00ApWnq3zS5KXD5kQd5VIfcpxPqOXV97rnntjbgcOMsOVAX0wll0C4ZGmbloeVFnFxncvxbUsi7eisCOMeRzlUEsAhgoTBbYIChufNfYAcVG5jTN0OcxoJMiVZFeMeZ+OUa0kfrZ+MDQmkjxDHHHNPcDMbi3myzzdo/UA855JBGQpABhnygAeSfFpA2EoSbTFZEvoEB0pEr8m3nLfRliAZOXGRQ4Fk8E5W3R9JzZRI29+JI3SS++FFXISamkkOAuDMzBWmqK9P/rvKZfMR9OpG4XY1/PgR8LIR0Lo30+nep3qXlAHJjn/qfKygCOE+g6EUAiwAWCrMF+mGIkJ/CO9/OHwQQMgPOZP0zU520N86+8zcQ5woiNjRv2223XRtwrbFDBO2+9QcMO1Zf+cpXNlJocPNfYsemON+Mdkg+HNmCAPaauInyEhnH3Q5Jpx0oAyIa9yBEwLWXRSELvd+eQPQQFvr8JBw75E/YkIyxbrF3Tw6Ljx95mSlIj0kZ1IHnlHmisk8V4k69Ofzbekl/qwB5mO700qZB/Iz2mvddBHDZYHrfcqFQKBSmjAz6pnI33XTTNg378Y9/vJE6g47Bxz1/YPDsCZBB1VX4zTffvP3hwrl4drm+4x3vaGsDufn4e8pTntLWBtqc4e8Zph4RNocj84MQRXMWSJeRbtLmh52rZ3lwtdv2c5/7XDt42vRxytCbDPz9fU8+er8TofcjbK65Fy/T+2Ogtw/hS9iZhPT7NN2HbCev0w1pKH/aXNLv8zFdSDnEnfKkfHnvhZnHzLbyQqFQKEwIA6QB2S5WZ9VtueWWjTjZRGHtFDcDJ62e+4RBxlxpsJA3GjxTt0iZ6V1aNjuBaXpcbchABk0N+2OGP31YJ7jFFls0YsifdEHcEIIE0kL0xO8eDOQhgeK2keU5z3lO25UrLnmAkIEQAnBlerexZiL0YWFsuJC8oHfr03Qf99zPNJIXpn9eGujTWlppBOOlsbTTLFwzigAWCoXCLEEGRQQEwaI5cyCytXmmUkOw+mNdPEcjx5gupv1DGP18PhtJrMGz4B7Bs7HDs00fzhw0JUwbaOPIcccd1+JA2EzbOlQ5ZFCa8ujKPVOmSKc0kC1n/R188MEtHQda8xfSyk+hUJgdqDWACwVSrQGsNYCFwmxD5JM+efrpp7c1ekjaeuut1w4s5oZUIWCekS+kUTj3zu+zAxdZpIWjUUQgxXf55Zc3gmj9nzP0xGWa2Jom/oA/8TksmZxKvCAe98kjkscvouoYG2frOdMQkZS/Pkw0gYVlh4xB3rGNRv5e4kPAu8w7LowP7Vm9+UirNYCFQqFQmBYYgJmQJnC/+uqrt5/NW1dnqjbTwQahEDH+Mk3LHrl78IMf3A5DtpaQHcOPP2GstNJKbfdnwjqTzU5hpI1BDB0Hs+qqq7Y0Mui5InHyCcLTEFpL6J+6Npo84hGPaOGTT/En7UKhMDtQBLBQKBRmCZAloC1zT8MXwkX7R2vvsGCbO5zbx97sQQiZcO6F8SyOkDckDQELkevh+BMIieSHCXkTV8hb3JikYdoY+Vt//fWHTTbZpBFIbtLhzq/w7AqFwuxAEcBCoVCYJeg1bK7IHQKVZ1O5z3jGM9rVOYG0buxNvyJ6PckKycszN3F5FgaxEy5gx/Tr/UA8wnjm5iocvwiqQ54vuOCCduYgjaNlNAkj39L1HC1goVCYHajeWCgUCrMEIWGIkivyFALlyo52zVl+1h3tt99+w5ve9KZGwK666qpGzvgNeUMKGUicIWHi692BG9LmmngQN36E5WZalxbyyCOPbGfHOR/QmYErr7xy8ydM/CZO9sl/oVCYHSgCWCgUCrMUCFNIk+ldZMwz7ZrNIKaC7bR93/ve1/7aceaZZzZylilkmjp+mUzlCs+NH89B/LAXLmmF/Nnpa5OHs/2cKfjrX/+6/bLOLuNMIYuXAWGYsfeFQmF2oAhgoVAozAHkpAAEy85eJM2OXQctv+xlL2tTr5/4xCfa+Xuf/OQn299A7FJE4KKBo41D7MTBznMQTR3NHYOwmeL92c9+1tb3+VVc/k6y9dZbt7+HOFaGP3EGIYCFQmF2owhgoVAozBEgaMgWYpYpVoTL7t1tttmmkUEawUsvvbQdBO2ID2fyffWrX23aOxtHYKxGzr14/BHEf4i/853vtLMCHVVljd95553XdvVuvPHGw/bbbz+sscYaLS+Jxz0gkT2pLBQKsxd1DuC/6xxAmoFMDU13uQuFwvQhMouJNk//jVtwxRVXtHP9EMHzzz+//fHDPXthHAvjiBfrCW3scCC0qWNwNIw/gdz1rndtR8g4DJrfFVZYobkLH+2hNE0Zew4JhJIjsxtpK95TnQO4eND+1Zv2P9fPASwCuLDBFwEsAlgozHZkXZ4BWj91T24gYDZmWIenL7tnz52bKzv3DO0hcshEk4j0IYUIobDSSHyRTdKUh7GyKjJNGuISpuTI7EbGIO+pCODiYT4RwNLVFwqFwhwAcmXtn6tBmkHoPJueBc+ImwEq/vNfYQdD+7WcA6Af9KAHDY997GPbv39N66677rrDfe9736b144fGz99FxCWdkE/P/UdsCCY/Pp6lWeSvUJgbKAJYKBQKcwxIFk0bwhW4DwELCcs9gsY/Q3MRd/f9c4/4hRBP6MMkzUKhMPdQBLBQKBQKhUJhxFAEsFAoFAqFQmHEUASwUCgUCoVCYcRQBLBQKBQKhUJhxFAEsFAoFAqFQmHEUASwUCgUCoVCYcRQBLBQKBQKhUJhxFAEsFAoFAqFQmHEUASwUCgUCoVCYcRQBLBQKBQKhUJhxFAEsFAoFAqFQmHEUASwUCgUCoVCYcRQBLBQKBQKhUJhxFAEsFAoFAqFQmHEUASwUCgUCoVCYcRQBLBQKBQKhUJhxFAEsFAoFAqFQmHEUASwUCgUCoVCYcRQBLBQKBQKhUJhxFAEsFAoFAqFQmHEUASwUCgUCoVCYcRQBLBQKBQKhUJhxFAEsFAoFAqFQmHEUASwUCgUCoVCYcRQBLBQKBQKhUJhxFAEsFAoFAqFQmHEUASwUCgUCoVCYcRQBLBQKBQKhUJhxFAEsFAoFAqFQmHEUASwUCgUCoVCYcRQBLBQKBQKhUJhxFAEsFAoFAqFQmHEUASwUCgUCiOJBQsWDP/+97/b9V//+le7xkDsxsNYv66Jq7cTRx93wC8TcOvD5xlin/v+uVCYKooAFgqFQmHkMJZIIWng+R//+Mfwz3/+c5F7/PbP4Mrf3//+9xY+7r0Zzy72wiSdPCcfEH/8yFOe+zgKhamiCGChUCgURhLXuc51hutd73rD3/72t0a8kCp2173udRcRMc+AhIV4MfB///d/i/znipSFrCV+V4ZbSBt3/l0Td/yBPHEHcfRhk16hsCQoAlgoFAqFkUNP1m5wgxs0g4QhXuwRrBAwRA9JC+mi8RMuRCxuCScu7n/961+bf+DGvzSgJ3XXv/71FxFFxDN5Eu8f//jHlp5n7iGKkGuhMBUUASwUCoXCyCFECvFCzH73u98NO++887DJJpsMz33uc4c99thjOO+88xoJQ9BucpObNLKGoCFjv/3tb4dvf/vb7Zm7q/gYhFG8N77xjVv4EMWkxy8/7POM5MmTuMXn/qKLLho++MEPDieffPKi+LmFOBYKS4IigIVCoVAYOYTMIVoMAnbuuecON7/5zYcHPehBw/e///3h9a9//fDLX/6yES9up5122vCTn/xk+POf/zzsv//+w6te9arhxz/+cXtGFhHCH/7wh430hbBJ5wc/+EFz+9GPfrRo2phm78wzzxy+853vDH/5y18asfvFL34xnHPOOcPpp58+XH755S3s9773veHKK69cpAEMigAWlhRFAAuFQqEwcog2zRVZu+ENb9i0cWuuuebwvOc9b9hll10aSbvssssayXv3u989fOxjHxt233334Zvf/Obw85//fPjVr37VCCESd+ihhw6HHXbYsOeeezY7hE28iOE+++wzfPjDHx4OPvjg4eKLLx4uvfTSFs973/veFu6YY44ZLrzwwnaVhrQOOuigRiTlayxZlWd5LRJYWBJcZ2FjGtm95IquA+m0OrpOf9Ob3rS59V9a04F0WtdU+Vvf+tbhnve85/DUpz61dfKZwstf/vLhIQ95yPCkJz2plT9TCvI33eUuFArLHiEKkUGZlrzgggsawbHuLVORwE+/Xm0+Yix5utnNbja8+tWvHjbeeOPhTW96UyN4T3/604cXv/jFwxprrDEcccQRTVZ++ctfblPEZ5999vCNb3xj+PjHP960eieccEKry6997Wtt+nijjTZq9XfiiScOe+2113Dve997uN3tbjc885nPbKRw7733Ht7znvc0snjUUUcNz3rWs9o4JK4vfelL7R29853vbCRR+ve73/2au/fUv8OpymzxSOvYY48d1ltvvZY+O3EWJkY0u+rJGs9XvOIVw+Mf//jh0Y9+9H99zB0UASwCWASwUJjHyIAFuerv1rAdcMABbarxjne8YxvQsvkg5Gg+Dw/qQjkRKTLwrne9ayN5m266aZORJ5100vCud72rTQOff/75bVp2tdVWGz7zmc80smRq9rvf/W7T2CFRpm5XWmmldo9APuYxj2nx//rXvx6OPvroRdO72267bZtuFg6ZpE3cddddh3XXXXf405/+NNz3vvcdTj311OGKK64Y9ttvv6Y9NE7c4Q53aKQUvKvsEp4KYZMvZE+5pfOEJzxhWH/99VtcNQZMjiKA8wSKriMUASwCWCjMV0RTpI8bvPR3zz/72c+admmdddYZNtxww0YI+B01LVBk8yWXXDK86EUvaiRslVVWadO+97rXvZr2jibOGj7aQaRthx12aNO4pmxf85rXNE2gtX/3uc99GqEzDfzQhz60Eb3jjjuukcYVV1yx+dtpp52Ghz3sYW3DCc2bdKSPgIlvs802G771rW+1sLSEeUcIhncH3pH3Ke/uFxcZh6QrnVvd6laN+Lu32aUwMYoAzhMoehHAIoCFwnzGWBEf4kDzd+CBBzZNFSLCzqBmgIOpEIu5hshkuOqqqxpZQwDJRCTQtOttbnObphm1hs8GkRvd6EbDyiuv3MYKU7W0fvyeddZZza8NHZ4ZdUjDhhT+5je/GVZYYYXhgQ984HDb29627fA944wzmh8E7y53ucvw9a9/vW0oEbd8WY9Ia7jccssNq6++esuv9zMd7wbZ875jkBlXO5cLE6MI4DyBohcBLAJYKMxnZMDSxxEHWj73CImdrI49oZFCCEI8IqPmszxIGXM1oKuDyGL1xi5TxAgiAsh/NKXskQBhkET1JQwT2Qr8CydMn56wGXNAHOz5k75wwC7hxZvnpDcViFvYyP/EyUw1zlHAfCKA9ZYLhUJhHiMkLsQjJCSE0L1r/xHqeT6TvyDEh1Fe2j0DPKMOQoq4IX/s88xkzSS7Ph5XxIr/IPFyz7ONJ3kX1vQl3hwVw817iR/x5jiYmKki71g+lAOkwxRGA0UAC4VCYZ4jRAGJsBnhC1/4QjM2Nzhk+FOf+lTb1RqtEBLQk4z5aELWIMQn5IcbqC+EK2DPIHd9XPGHVDHiYdfHi1zGb9JGvri5T7ikwy5ps0+aIZHJi/slNX3a7gujgSKAhUKhMI8RkhD84Q9/GHbbbbe2U9WGBkeROOrEwcf80gaFDMx3IDvqpidSiFaeXWP65/gV3nPIWe/W2ydO19glbAyyx7in9ev9eBYueU6YJUHyyCRudoXRQRHAQqFQmMdA5miNaJ4M8I4TWXXVVdsuVuva/GXClKNz6noyIBz/Zf5Disa7jxlLxiZyH2sfE0zkJvxYO+jtpmJ6jGdXmN8oAlgoFArzGNHmRfN061vfuu38jZYJ7EJ1/lyRgEJhdFAEsFAoFOY5kLpooVydV3ePe9yj3TMIoTVqyCJNYfwVCoX5i+rhhUKhMI+ByCF1poGBJtBfLx7wgAc0O38BcWhxNIWu1gGGCBYKhfmJIoCFQqEwQrCJ4Pa3v/3woAc9qB1t4g8UCCH7TAEzIYSFQmF+oghgoVAozAEgZOOZ3q2/j8mxIwgeOG/O775MA9/tbndrv4HzKzCawRwxkvWCQeLq73sTjOfGZBNKmTLzzWjfcxX1J5CFL7D+BFJ/AikUZjsiNyK3ALHTZxGssffAb6aAubkigM77+/nPfz586EMfar+BowU07Xu7291uUTgmpDFpJw7oySL33i3hwS/nnDl4y1vesoUJInfkJefdJXyhMNugPfd9zJjtSKWTTjqp/RtaH5prKAK4UOAUASwCWCjMdoQc9X20J0whfrkyflV1ySWXDL/+9a+H3/3ud+0/s+zIIP+8/dnPftamg+0M9g9YJA3p869a9ssvv3z7vy078YYQQp8P5JEcgcg6xn9xjz/++OHggw8e1l133asRytwLy6/8FgqzFWmz2nk+ovzJxTKKrbbaqq2lnWsoAlgEsAhgoTAHEO2ZPhqSF1nCDpGiSTM4/eQnPxnOOeec9tePDFb+c4vkGbCcBYjYkXfc/BeYDPztb3/bzgQ0RRzChwiuscYaw/3ud79GEHsiGnmRfEBPQKWJANKS7L777i39hOc+XvhCYbYi/UzbzbiZf0SnLc8lFAFc+AKLABYBLBRmO3oCmP7KztWAZCD66le/OpxwwglNM7Hccss1Dd7KK6/c7hG+W9ziFk3+IGbRZgASCOIxwJGHyONll102/PKXvxwuvvjipjG8173uNWyyySbtCJnIC2GTB5A3aYhf/j7zmc80Aviud72ruUf+QcJAb18ozDZon0zafezyHLu5hNK5FwqFwhwAssSEKLnPx9s3vvGN4fWvf/3wta99bXjKU54y7LTTTsN2223X7u32XXHFFRdp9QxU+eUY8iY8ssZwEyet35prrjlstNFGLQ4fx8961rPaWYF+Heej+YorrlhERGkN+6ncxOXa28ct7iGL7suUmc0m7Vd7TbtN2/U8F1EEsFAoFOYADDKMQcigQ+N35plnDq9+9auHT33qU42ove1tbxs22GCDtrvXOj5kLv6RrgxeiKD7EEjrAntNXtLibn3gne50p+GBD3zgsO222w4veMELmmbQv4Q/+clPDr///e/b1C6Ybs7A6N4aQPfIJ60igyyKW1qQPBUKcwH6UU8GGfdzEddb2Inf9N/7kYSX993vfrcJK1/K2Y0W4TSdGBunaRFC2toajWqmYIqIRsD/QJVfvnLthXJM3MF9BgeIPUSos3OfDtK7gWums3p38NzHmeeE7d2gTzNXyH3vP/e5Jo9JW5g+n+757Z9hbLxJa7w0x7Pr78Fz0oib56QH4/mBsXH1fnIP8efal3G8OAvLFmPfiSujrUab9qtf/Wr4yEc+MpxyyinDYx/72OE5z3lOW05iKQl/5Enecz84uY+7a/wIlzC9LOLGIILy4N76QSTTlDKN4xlnnNHsaA3JT35MMZ944onNkHPnnXde24Div8PCmaJOvpJGoTDbkT6TjyVmbJ+ZSygN4AjCUQ8Ofs0AEzIWrQDjntHQM00E+XpHmLm7Z+I/964GK/eJL3HHT54NFtJgl7DxFxO/TNDHHz8Bt7Fh+ZWO9BImaY5Nv/fTXyF+kgbEPab378pv75ZwSZOJu7ykbJAwruy49/ZMwvfxxB1SPnbuc034wuyA9+I9Md5L3mOeEbUf/ehHw1FHHdWmY1/84he3aVoatpC7DEwheUHse/DD9GFAOKRvrFsIpjz5ewiNo929Nnp8/etfb+sEk8/Pf/7zw2tf+9rhox/9aCOBr3rVq4aPfexjzU/yJV5x5b5MmdlsQD/Q91yZKI3mIooAjiBM6SBwzuY67bTT2lEQIQOID2jsaeDQE4sI+LhHgLtPJ8kglmeDSdLIcw9hTUNB7y9pjI0vEI/BhEm473znO61MyW/yFy2GMiunuMQZcBPeVVzcPfPjWRruXdkz/MQtz73hZtrrrLPOWlS3yS/w495UGb99GZM3z+ogefMcf309Jv+QuMD1wgsvHL7//e+39573xKSs/Lgvs2wN5AreEXg/DI2a6V6/cdt6663b5o5lgeRX23X+2cYbbzycf/75w3HHHdemhIFdiCmYJl5ttdXa7AOkfQZ9uQuFwtJHEcARBO2Sc7kcy7DPPvu0xeMHHnhgE9wIBaJCaIcgfOtb32rrfZwn5sunJxlIm2fEInZAuItLWiFbGQj4ZQ+mhfbaa692bIUBIpqvkKkMEsImT+wyAOU54Rgahy9/+cstLyE7IU+mzmgq+GMfgimv/CcdBDfhIdf48cxPP2glHXEDv9xpbHbbbbe2k5Ifhlvi+sAHPtAW1SOBnlP2Pg6Gm+fYQ+qXW8Cv/LFzr75PPvnk4Utf+lKr7+RTmfnhN+kVli28l/5dpi1438jV9773veHhD394m/Z1JAvtQ6ZdZxLyyGhb+oFjYp74xCe2tv/hD3+49TMHTN/5zndubZDcuMtd7jKstdZabfpXeZJn1/TdQqEwc6g1gAuF06itAaSNQpDWWWedRv4QAVM4hLNjI0zdIEmOgbCux98CaAtXX331doyEoyaQQmeG0UAYANQboS/sRRddNJx77rmNmKjbs88+u8WrroUVt3PHxGVQQ0ItWreGCVHhbpG5gzXVi/w5xJb249RTT20aPu/LgOKAW3mTnoHFWqRPfOITbcBRPto+xEd61h4pj7xbw0QrZj2kPNKKehcf/OAH27EXCKmp8i9+8YstXWuX5FHdeUbqrGsSjlE279eVQcws0Fcf8n7ssccO22yzTbu3cP4HP/hBqxOk9xnPeEbTEj7qUY9qWhTl4W6aXpnUIyLw05/+tJXfu1M3wnLTjpSDtoW9wdX75M/fHqRjrZa6esQjHtGOOpLHQL4N5q5llq3p3wcgRd6nNuz9P+5xj2tatJD2EKeZJvHS0ob0TVf59Ts5fdKHjr5x3/vet/0FRH8DfU5bz1mCfZ7THlPuQqGw9FEEcKHgGTUCePrppw8//OEPW9pICaLzuc99rglmOwstLqcp+vSnP920UjSDNA/yiRwhEwQ7IpP8A2K24447NoLxzW9+c3j/+9/fiNh+++03rLLKKi2eTBF9/OMfb5tQLr300ja4uQ9x8XudY445pmk6QhwvuOCCdvxENIWHHnpoi/O9731vI0Xy9ZWvfKWdU4ZE3v3ud2/v1Joj6SGFCJVyHXnkkcNmm23WiK14kUdEzy5HmjrkC/FCysSNtCGG1jrJv3PNlFv5EWD/VJX3DIYGZOTrLW95S6uLH//4x40wPuYxj2n5QG69e0T3/ve/fyurekLgDJbegWk+9bnllls2Mil+mkJEzzpM9fvIRz5yeMc73jEcfvjhbfBVp96l/Cq3cMoVDaFw2rg6kIar9Viu3jO7MsvWeA85jNlHSz6i9Ffn72nzyBNoa+RGZMdMEkB50M7lgczUvtzrN84I/Pa3v936pHWC1iuy33TTTZuWkF99pSd/nov8FQozizoIeqEgG7WDoJGDgw46qGkSHM7qi32XXXZpZNB6HkTKwMPfFlts0UgCQoM4ISLIC5KBCD33uc9tv8ExCHl+4xvf2MgLUoeIvfnNbx5e+tKXNvL0zGc+sxEqA5y4hDNNZC0TDZlBwsCBIJmSRqAQIAMMbR0iSYNlEJEveUXCEKGVVlqpkacXvvCFrWwIIDIqHwZVBE44JMwxFkhsiDAyRfPGz/Of//xWhoc97GFNe2bwpQmVNgJGg6nsvpsscEdcX/SiFzUCFwLIIJe0f/whtMqIPCLO4qVFtE5R/tW7d6Gu1I+pduRbPalr5UcOpK88NJGIHIKsvOpR3co34qDc6sIAjVyaLnRPg7T55ps3LSZy7J1l4NYP0i4Lyw7eCeKuLelr2o77xz/+8a2vRIbkyo/7ngjOBOQxeZA/0MbkR1vSXn0AWu9niQc7H2u0gPKZtiYO4bTDIoCFwsyiNIALBdGoaQCd6YWAEbi0Yg6RNX37hCc8od0fcsghjZAgKAS4OqEpQyRosD772c824kOz5bBYU8OA2CAoT3va0xqxQpyQM9pFWgHECTFaYYUVGukUzj2NI3+IGGJEq0Yrh+Dwo95oQ8TtHtlCnJBK8SDPtJfc/OEE8RSH9YlIrDKalqY9kQ9aNDsnEa4MoOJHNpXNH1KU2Vom07jicjVFq0wGLPlFBmnevD/30WKKzxSYX3GZBjMFjpDR9qlbmr5oepB/5fdOlAvJM03tkF1kzrlr4vOBov4y6HsPCAFizN2viJTbB4U8ike+vBPvUJ6lidhqc+yQZlf1gzCXWfbGFKp36Opj1BErT37yk9u7DtFCprxzMiPEaTL50ZMtbQe0B889xBvkfqyfgD0jT7lnkidtnGbccgZk0DIJH9i09yBPTE/6+vtRQ/+O+rrv7ecyUo6+PLmHuV6+uYrSAC7sbKOmAUR2t99++0bSpE/zhhggQLRDvgncIzCmcBAEhILGjWCnnfIljwDSqCGOBLspTdq3vffeu5E52jzaNvGJ33QuUnXve9+7kSJaDdNCCCN3C8YRJaSQ+w477NB2EhpUkNFdd921DWAIkmld059INEInfdO/1hjtu+++jeghN6afaMxMwYrLNO9LXvKSRgzlywCG7CHANI7vfOc7m2ZPHo4++uhGqpRfvQjnY4H2Q/3RcPC34YYbtnKabjWwer+Il402SJ5yIbS0pbSk8uod0PSJg2bEu0AQTXErnzWHpmbFgWRqn8KqV/EL7wgO08Q0iwZPaxy32267VtYDDjigTRnKrzJrXzS5zoszTRwS4ZpBvLDs4X0g/tqI94uk64v6qHc8lfekz4RcaZ+0+yGT2ooPJR9aPkBAGvwJMxVSFhmXfkBD7mNkjz32aHbiZ9xDyjSVss0XqAvvvq93JvU41+sm7xry/qPp5jaVdlZYchQBHEECqONZn+PLHLJ5IEKHVg3pkl/1gYCYljWQ8GczgY7LDzeEQjjTVeJFxBA0GifaM+v8lI+WinsIB62AsMiPQY/WgyYu7vwjQ+LmB7Fbe+21m2ZQvmz48P6QN+E9i880qzqWt6QnDnmgOaSFRKTkSx0YbF0RReVE2MDAiKSpH4QL2WOnXPIqbm7ip000nS4d9cROPaoTxNdVeFo89/JvIKaV9KwM8ivfIQAGAySWHZLKX8qGEHgXyi/P6lt9qm/pG3iVl1959K4QSmWUR3Dlrq6Z2BeWLbx3SxRo6S2FQMy8G8Z7Wlx4xyBe4bVf7YdWf88992wfDs7o0+65888sSXsQXnpgaYUPGx9YEC1h0kn7G3WQNTS+5Io6YuYLyCnvXJnIUjLKrEc+/Ov9LxsUARxBAqjMkPzojKBzpqP2AprxzD8ChIzwm3JwI+w99/bAnh3yoYxM0ncVJ7LkPuEJCGmIF+TPVCcNm2l6QoM/RCnxeZbW2LwnDvfOwTOg0ui94hWvWBQGpCcvyYc8hIR5Th77vIpb3sSDTCJfwhmwY88g3OIXhpFO3JFAEIYbxF1aeZZmn37K6F4cyX/iT97YQx+3PIrHfZAwhWULbcX7pC22vtMSi7Sdse/s2kI7EC5tgyHvLEewA99yiLe//e3t4yDtxFV7mEp66R+uwvtokY4PN1r4tOPEH7+eR7kN+mjzZxcE0DtXJwzkvcxVKIcyMdo4GeTD2JpuSx8KywZFABc2zFEjgCFKrumYyRsga7RvBiJ28uYqjM7rmnCeU1chLEHsxRPiwn+IkTj5YfhBguQpftiHJMmDKySMfLhCCFXyxj7xizP+wbP8SCeDasolHldlEz51lfgSZ67Ski5/wnju/SVNz9w8Jy12SSdwLy5xMiGU7LglvoQP3EsPokHs84m4K2vSY5eypb6kV1i28E7II1pdWjnvx/uksYO848VB2mTi8myDkvV51pr6ILLsIZpvSFtlFhfS0sblVZuTZtb3+vCyBlU5IXLBs/uppDcfoM7UgbroZVJk2lyH8oHyKZsy5SM3bbMw86haH0HoeDoiZEDpBRDyF60B4hVh7Rkh4TeCu++4wvDLnRsB5sqve3BPqImLX2G4ISzCsXcfeE5aCStPfXhgn3iZ5MF93EB+hXPtSV7Im7TF35clEIdnxr045Mm1jz/24usNyE/ynzDgGcQtbJ75TdikyY0dv7nKK+PZlC/EjUmd8pO4+2vuC8sWdmrbcGSXe9+W+ve2uBCHtqCf+ZgwHWvjEc2LJQbWm9o4xI80tBdX4aYKYbVX/cjVmlzLOazZZZf+FqSso4rUed/31Zv7vh/PVZMyQMrnGvfCskERwBEEUgE6ICHTd0z3BHQEsoGHH+AWTUTALvFEoLsKB9yZDAiJix+DgAEJpMkug0AEYfICyZP4gB9lSRoxMDY/PZChpAfilN8MtJC8ykPKJww//Pdxj70XR+pN2OTZ1TNwg5Qx9+z7cvTX3h7ElzTUZZ6jKfUck+ekD7Fn19sXlh0cwWRDhukx78f79k7TLqcCYb1fV+3T2lSbkkw3Wmtos5cjkWj+Ie2hb2uLg6SX9gXWq1ob7IxNa4jjZ0nTmi9QV+nLwdj+OZcNaHvK5Nn7jmxX7sKyQR0Ds7AhjtoxMBG26YzJV+775/jpO2/yGr8x3BngZ+zXLEibXfLgvi974mL+X3v3GnJpVfYBfMP7oQgqEgIzKmjsbKMZeSrT1NHCQ5pO5ngYNWvwmAe0sMSXMmkisjxgRaK+YTk6HaYjmQ2ZiVIS8hp0AiuI+hAIfQj6+M5v1X9Y7Xfv/TzzzHPY+3muPyzu+17n+77XutZ/XeuUuNxDHz+wH46Pe/y7ijt2MXGL4cd12F/c+jTjNwb6cOAau7zb8P2wmeTG9G7iHpXX2IH7oHcfDhf3/lpYWvRlH1l3RYgsRLLSmxyypVDqnCu5lP/Thw+iYY9/bvzFb8oxY9GHFf1W8lt0ZdqLlcY0gn2dhf5+vkj6SY8RL3vaTTIPwe3fyTVmseHbgrh9J99CXhh5myb032HYGLa/9957284EtpkyfO/fOVEpYSHEyvv5/3Yi8M7+gffPP/ZduPPL3jQoC9ksEqKx5WbXBlto+V+33XZbW8RmwZl8WNRm4Vk6xiCMfNndwJxGbZv4pZcr5JkprBzq669hqKwqYioluCc4CIcIEOgJSq5MKnHuXdPY9P6CUX4g9kk3WrHeDyHVN3T89/Elj8AuQsl9TJ6Fi4Hh+HoT9N8g/tj1ftnn3Zj478P2fke5JWye4yd2cyECPmYS5uuvsHhInXJN+XG1JYt/bDGRf6ge5L+48s+OAc8x/AvrPnWI8ZxykzIk/hDAjRs3to3I3/SmNzVtvPqV+BcKaSW/8hJCYrjZCIIV79zZxX/uFxv5PgxIx/1SprnYSP6RZ9tC2fbKxvlWVV9//fVNoxs/vrX/5z96RyuwrfRGyvwL7+yaex0Qyg+wTZSV5za9pxQRl4V3tuTiZtU4MkiLK32dB5COeMwzlra4TWWwMI5WeXjudkzkXmHlMBs1oLCoSAUkMIIIENCYGFqNNpQg6P3uDdIwRVAk3ggEaeYK3Pv8RsAxhBy7xMFNnIXCLEC51Qgr28qtRtc2Rtn6J+VefUw5V+5TFxhlXj1I2efOP6R+8T8OVmHS/tHkJD15ilkI8k6JK6CpygbytFLyKn/gfikg/mGZ4FsxSXva4Tv6x8iUhTo2q6cN/NjHPtZImaF82mN7fyKF9mylSUYYEThbyzhi03e3R6v9VO3JyJ6cR/zJW99JGvYWFV6ctIHsEXcaP/M4PYc0mj9q71Tp2mHB3q/mkBvyt1WWe3HPyrdeaygCuAaRyuhK8Eb45josIF0XowL38aWBcJ90c0/AuHrOvYaEING4Jazn+IM0PIXCLCDkSPk1tGYfOCtyESXlOMQv5d39cBlXBzTi/Oo4RavCb+xSP0bBfNi+gXYPnieFm4TkF1JvxaWu2uwcsbA1DBmD2ATcFxvS931c5UG+8l3y/acd8u0b+lfR7Pl29hBFspQdR1kibjoQNuRHBpE3RM3+oUiebbCQQqcmmftpM3zDvmQs0NQhbDogNuRHHn0rmj3EkObRfqz85b8Zjhav/Jm/auN9z1aYm1eaMrTQslRYWhQBXOMYJluuuc/z3grKxE9oiItxz44wi+D3TLDFP7c0aOz6Z4hfdokjeS4UZgEpr4ZFlWfz8NhBT1pAGU/d4Cd1J4Zd4vPM3T0zCQkHCcvsLbwPk/yLG7kA88MiC+K+FJAmWeN98i28a4YlZwH5t75VQOaFiLnSuDnxB0lk+PWtHSFoTqm9HmlfHU2pg9HLTN8EkETm0EMPbf7M/7P/qnmG+UfS40f8wjvVyTy/fmsf6Sdvo/JemB7UX1mDSMNACOjhAUGtF5f94vSa+WP42xshHUEjHkJBr1QaEcIRDvIknbjpwcauFyTJVwyNgrjFyx+7QmGWYChNWe9PRUhZTgOtjDOpExCSlQbZPaROueZ+HMQZOSBu8STNhSDhmeRHfuUDOTDcbP6Y+izdvGfeabEhXXGTD/l2c32TaUK+S8iXb+rb0eaR1xZo0L7Z2gcRs4CDX+HyH/k3v4/mz1AuTSG7/B/g17/gbloA+YsA5j/6Zq7i9t+Ev/vuu5vGkeY6w8NktzLVtyGF6UQRwDWKVHxC0fDBN77xjTZh2HwSQ1HQV9wIkoWgj8fkYJOKkbbHHnusDUEQOsAfIWPjWPOhTIrnL/aJx5WQYafhdE6veFxNPC4UphnqUkzKtXqoTuZoQXaeXVM/NK4Jw5j8b9XmOeec04zTQ6zUpE3kLpw4JtXdUW4hmqlvewrpMt4DCQDpyAt7R4AhF+p57GCh6U2COOVDeuSNYUnp6ewm3WmHf5n/4ZSQiy++uJ2/7t/T+jldRfkx1Lt9+/bBI4880u7JQu9oXp7zwq3eFd7QLxlMdlrcIe6kk+9FC+icdkPC4mYXmZvymf9ryNcRm4agxWlI2v+Of3BfmD7USSC7KshynQTC6D1FKNqBx95YVuIRSMsFeUh63p+qX8OhB5eTAq699trBCSec0Co/yLvGCYFzJu9xxx03OOWUU1pcKrfv5dsRJsLzT7gQEgF3JwJYRWZowvFTztB14L10ki+9XMdUwQUXXNDiFJ8GkEDhh0AHc4n0bM8999zWCz744IMHBxxwQPMrH/LFv4aGnWfvaBhEnDQS/MFi//NCYRKUv5S5Bx54oHVgbr755t3lfS7oqH34wx9uWhokQP1RF0466aRWn83bUuYZk/jFq76oh+oYO+kjBqkf6oV67lk9UbflxdYx6l6Im3DiEwd7YYdlWF+f+vexiAEpueaaaxrB6N93oXVQuNR3ceU+7+XbnHfeeYOjjz56cMUVV7T34kY++RY2wnZKiVW1kR86n2S17yVO7ynM8HuOQi9TxIUY+U+GZX1L6cYEeXdpCeO7sGPIR/snZg9F3008NHny5/2s0PXPTSNQNrKX5J/+9KfmxzCx92RnHiC//OTfagO5+6fiIL/FIy1aW/HIL3fliKbRtyDPxc+IU3zKiW9njmL+x3y+W2F5UfsA7iqcy7EPIIEjbpUapKunhnS97nWv222/HIhwjOB+4okn2ukAjqZzJNRTTz3V1PrHHHNMy6Ml/66EBq2DPZ4ME5iETJibHIzYIXIaEPETnjt27GiNmviRswMPPLDZ6yEa6pKGVYh6q9u2bWvxyAdBRdAhZ+aiECTCmVgsLCGq92v4g195OuSQQ5rG0DNBhEBK12RmAkmP96GHHmoND3sCE/mWV9++F9iFwlJC3U/DDmSDOodY2Z5FvYx7b4QLlF/l/+GHH27DfpdccsngiCOOaM/qCg3Oli1b2mpR9YzWjZuVmrQ1yML+++/f/FoZavjQ8CB7clA92bp16+BrX/ta2zRaQy5/ZAQtk3qPDIlDfhEDz8knux55B7Alifd1pjcyMfw9FgJhfRPpqsviJNPJJRovoxzqPzlBfljlythPz/Clb6IjjFCRbZF53M1zI7sZ6SS/o5C05cOVfBUOSUJ4P/e5z+0eAQnxdU27EznEThqeXT0jYfImv7byIdeQ17i/+MUvbu4IPDfEjQxlR3azF4554Qtf2PyTlXkXcbEjw4F/cfDLTTlzLy7liZ3/7t53Yy88P+IIuYe8Z2G6UBrAXRVsOTSAqdjSTLqW4qsUiFYEwHKAoJaufKioiBcBSDg5fF6joVGgnSMANTTf/e53W2/R0MMNN9zQ9g6jIbSVAHdCVgNkDynvpserR01oHX744W3rgS984QtNKCOD559/ftN23HTTTe3cU3mQJ24arqwsQ0j9E1qKO+64oxHHzZs3D84444w2/GGuyqc//el2cP6DDz7YNCEEHAFOCIvXUAZB5R3OPPPMRgDl2QH1GS7re9yFwlJCvUs5c49Y6dxoRK+++ur/R54CZbQvn4b4PvKRjzRyoy7S2CjbtObIFTv1QZm3XYj6R/uFHJi7heghQ+rVhg0b2r280OyrG2Tiqaee2rSKOmLHH398q9Pcoyk0eqG+eQ/5lr9x+Qf+rCS1bQiNHFKh3pEZ/XfZEySc7yNtz6CzaFUq+aGjSdeBhNnz0LnE/Oqkeifb0tCm3njjjW0UAXEkI2yfQqYBwkN2yus4eZ3vEMiXMN4ZofYfuHtnHea3vOUt7T9QAuiQkrF93NISR94x3yd2+W6MOEPC3bODhOUGiT9xxJ/n2EG+5ah/k7TYk63xFz/DV+79dylMB4oA7iq0yzUEnIqk8hBWSFMEwmKnNwl6yoS3q96heSHmxxBQjqHSE0YIEStaAep8VwJVnpE338qWDggWDQaNgEYBefRuBKoh3ne9612t4dDz1vjwo2dtyNYGpUiweIWXJ730Cy+8sGkdCFxkkwYQAURQ9X4vuuiiRuoQZ8Y+VIjiXXfd1dIiTG2YShso3wS+xtWRVxoBRBEZJOzlhSCLhraEVGGpoa4rZ+ofkAk6PKZFICPjQH4wCWshhfpBa/6e97yn1S0dLsSPxklcl19++eD0009vUzqcPIRoCq/uqfc6W0iQ+iYfOlWHHXZYI4g6WzaLpsVXRy699NKmQZRXfmn0dbxoB0G8/JFvzDiYRoKkSkcYWirh0gnbUwgrnoTVySQ7fCsdWPMjdRSthEVeDZHTYvoPZIG80JhyI8+QYHJBfuypp5Nq+NNIhTQQHnGPgu9CjsSd7ELMyTgyR4eTH4jMR8hNqSHXfBP/EfjL/x5GwnLnL3G6ymPs4h4NrbhS/lwTT9DHw/CXeKAPF79BwsBw3MPpFKYDRQB3FezlIIDQVxAgFBAbgmY5IQ+EhHcnrJA2Ap9WzdwPmgIaBBo9c4k0Ljt37mwbiZpMTKOgYSEoaQdMPjfk6tshcuI1d4QGkabwqKOOar1qjQ3CSbjSHCB/SKdGRQ9506ZNbcjpfe97XxsiMjyUeUKEKKJHs3jiiSe2uTr8EdoasyuvvLIdT8RNXAT7dddd1wS4XraGUaOowURwEV7/PRvSQgmpwnJAeUujri7SNCFhyvtVV101lgRFfiin4jBNQrlXtnXWDMHFn7Ku/HOn3bPAS32j2UPYdH5sC6JuGiLWcUIIaQN1zrKhL207+eDe6IBhZESKhoxMEB/yhJAiGTpSyNekd9DpVWc/8IEPtCHDkIy8254i4XL1bchU34dM0BE09+9DH/pQS9O0GxpARJnci4zSmSQTTAkyFK7T6nvQsnr3/LOQoFGQh/gDz/KDiNJ6usbO8DnNJOKv00oDq6Paf7u+rICwTO7lg/+0IZ61ZbTD3luZAmWM7KR17JG4gryXdBn/NOkn35A02bl3Zfq8iivxj/tehZVFEcBdBXo5CGA0TCBNvVTP0pkkUJYKKq+KKy96pkif70F4awyQPuSIPcFBkJi3QuAjdrR1NIDm2LEXjh+NjB49YqvRIXiRv/e+971t+PgVr3hF276ABs93N3fJxGNCFlETjmDWGBE+eud6xPKrIdJz94xgyqces6FkjZ0VzBoj//CjH/1oG1LxXwlXDY1ePLJqxbNGSM9ew6bx8g96wVsoLBXUs76+K3806zRjyu24chhRTZOjbmjkadn511HSueJGriAayJ+OkjqIAOj80IJzRzZo5MkhmnX1TTzqCn/qtc2EI58Q03Xr1rXTJ8zhk456TcuIaCRfNF7CjJNn3oEmUkfSuxoCzvcYF2a+iEyTD3Al28xv9G3IAoTLKAeZgQjqWNIOGqkga+QHGdSRRayFQYiRQ+8mTmmM+0chSL6Ze3nyr6yQ9b3JIP9Dx9XUmMzNIz99B/779oCd5/lA3hBew9byrVyRqVYN27CZPPavvb90vM845D3kQzzKjLzkH4+COJN/ELb/Tnv7fwuLjyKAuwr6chDAfOZc51uplwp5d1eVNpVVvvoKH0FAiEHIUgQIYhuBaKjY90u84ozxnLQY9+J0zz8BKG7xJEwvbPjhxi7fjvDWyGmQDPkieYnXlb9xeRFP3gn44597obDUUAZT5oDGmtYNoevLfF8ePYOw6oIrAynrkDBx86ye8ZO6nWduGTJNnWAvLDf+2blHIpGV5Jt/+TASELnJDlK3kgdIvszPpeE331GnMe8C4l0I5Mk7pe57dj/8TaKhZJ/3AO7xIzzDjX/+hMk3m08e+QV+fRPti05rTnoRp/S4u5deZJ/7fFvuyQ8T9Pnl172r0RlzMhFcHWKkDwFE1k2HQTzljXY0eTDUrxNPnuqg64R7Jk+t6qUAsOBP/sl4+fAOiH//jeU1eUp+++f5fLfC8qL+yDJBRWBUgmmoCPJCwKjAhJtGJwLIffLKnQk0HvylkUo4SCMgXISXeCDxCU9DqCHJvXD8u2cnPc/yJRyTNLjl+xFOhrPMSTSPJn4hfsblRTrxz/AT90JhOdA36IiQMmqeWexDpjTYGllllFEHlNWU7ZRd4fh1n0YZ+GMgYYUJ1DPu6oQ4hO0bdffsuccOPLtPvQfxM8lLwjLg6h2FkY/ke2+R/IvPvTzEnkla3jX2/PTuQeIA8o1cYhf/80H/X+TL0K7tZayQTdpxd/WcPCRM0vLsPnEyntn7vvEnDsTMbggWrig/pt3Q+Jn7SRts5MMRb+wNwxs5MR3GqMhZZ53VdlS4884727xJcz8tBjRKQ9ts2oBhbNpmi/poM1Pe+n8MybNr7gvTh/orhZkEYWPFnMUfVioSfuxK0BRmARpuDXkaznSKaNM0quz6Bj6N7CSILySN3xAF94kz9wzED0gjeYJcg9SxkLpJED/tWdJJGsLZQ06HTVpMkYSFwzfLP3Y1z9H0GtMJbr311jY32z3tLQ0fTaRV48qJOaDIoXJnOo2yRztrmxokHZGkqTVULW5aRMPjyKxFQ0Ze2CsPPREtzA7qjxVmEhoOPVw99DRKoCEpFKYdwwTK3DMNKE1LEDKWMj0cpoe6wMSPuAzXqRchfCFacU/DzS3h3IeUAX99uGFCNw7Jd+ISTv6kZ9sn8++QEPapu5PerzAa+Ye+se9qkY69JE0loOUzj9vUAkO6vr9yZmsgq7vNB+XffEcaaMO85g8i7sghTaGh4pNPPrmd3Wzhj7miID2yN2n7l/mPhdlBEcDCTIIw07hoiBjaiTRKBFKhMK3QUCqrynDKqs10QUOrXAO3EKiYcRAfv6ZF0OB41kDT/Gi0zeWTrtMoxEPbYxuZzLtFvjLfzb3w/IW4Balzk5Dw0o/fEMLkxSIUdbYngIU9h++b70eraocF5M8iG1o6Gj8jJcqX720bGiTPPD8L8yxCsZcrGAIWxkIguylYSMTdymHz//izmMacQf+NkX7uJ5XPwnSiCGBhJpGGUcOiQUkDA+4LhWlFyqdGM/eG1TSshus0zn1jOp/yrCFG4AzhWcxmrz4Nvjlf5mw5A1eDbvsmVxskGy50n4YcYVOv1KcY+YimRz6ixZsE/sQnLL+MZ8bqYosLzN2V38x1KwKxd/DtzG90TCfCZ7cE29nY9cAKZt/Y8K0Nva161lH4n39v8G1lsN0QbP1lz0jDwoZ97cZg/p95i7aqoQmkBbR9mc2r/WcEUzmTvsVEhdlCrQLeJZyWYxVwYXGRRiuNTBqdoP5fYVoRsqPMMtHA2SoEgaOJsWBAuU75Ttnuy3gP4cGcL1u1GL6zATriZ7I/ImBoEDEwBGhI0AbS/EQbGHJn+I/mkNYHQeMXWbNJtPli8o8UzgfCIQiAdNhaxhmymbfrffKeqc+F+QNJ9/18S1fwf/w38D3zTbmn7Lnnx7939Z8QSFf/WHlSHvJ/wJQCRJFb0uz/V+wKs4PSABZmEmnwgJCKRrAXeIXCNCJlNMQvMAdLA4x4aaghjW/vbxT4ix/xZu/MGHaGXxEwqzedeGFj9WzuTguUzdOdkUvTQ3PI3sbpVpDaU09dm6uR7/PSk7wM/2YIEVy5+R5zveNqhnfP+/f3cwF5Y5A1/9j3ze4J7HzfxMXO//Cca1Y4U3x4DvnzT/jhFjJpX0R2SZMbA67+8ySINwb6clJYGRQBLMwkIpwKhVmDhjJlNw0pOw2s0yGs0rRik51GHDTkczWw/IgrRMB9nl3ZWWSi0TfiQcsHr3nNa9qGwYYOzREzfCwtGjuLBWwMTVNkHzkIQZgL8hMNlXtbjIjXaUOIBvtRZGKtoydFvpEyEOI0yvhuNLKuvivErpeTrozv7T8wnpUP4Bdi55oyJ8xwmgz0195Pb/IeygGwc+9aWDkUASwUCoUpgRMpaOVo6ZAnjbJGUkM8qbFMg45EAiKnQTaf0HYdwiJ+wF6DDojmj3/84zb8zN38vACBoK2zYld4c7xoKCGN/iiEWGj0EQlXebDAgJYT0Yx7/06T4lzt8B3yLfIdPLtn4j7LJmWYgTyHFBaWH0UAC4VCYUrgpAjauG3btrXGMWQgjeU4IItgTp8TGuwB94lPfKLNCeQWLZs4opVzT8tnw18T/ZE9E/z7oUMEVNr8I3/RBEUzOQr8MiCscLR/yKYFCeKUh57oDJPBtYbhf5Pvne/EbZYN5D7vx4AyUlgZ1CKQXYWwFoEUCoVpQFZSOr7LaQyGYEP+XCfJJWGRK6c+ODeb1o1Gz7ne4qHls8rTvm/2jHMCxNlnn92GnHfu3NmGD03yRwYNCyOGtgNxf8stt7StRDZv3vzv1P41LDgKyGFIC/lq42cnU+T8W3Y0g3kvmM/7rXZYlEMb62z0rLzuh0xnGfLvn3sv5cOUAivBjz322LboqLAyKAJYBLBQKEwJNI5k0pNPPtm2arGnm016Q7YmaUus0tTAamhpj8QVzR8Sdvfdd7eFHo79cuZr3NMEIBvC0jqFgISoiS+NOPtoBkeBv8hW1x07drRzabdu3bo7XAgikzDiXsuw+MfJG87e9Z0C3yvfaVYh//65d1HulDFTC9avX9+IYGFlUASwCGChUJgSIGEhYLZvoXXbtGnTf5xhOwrkGKShDbkTHzfzCmn8PNMsZhEGf9JiH6IRgtYj8UL8jiNsyQvQLiKe3sFRYmlu+vj5Z8ZpFNcKfFcmJDnfqv/2s4z+3zPK+aRytFqB4Nus/cADD2z7f64kavC9UCgUpgQaSUSIxs1JDU4GQdw0mBpLCHFLgxqkYe39uiJ4htkuuuiiZmgUQTrc4l9DzHgeRh+vcO414PIiH+57cKd1vOeee9qGwho779THnTiZ5Hctw7f3P/It8q367zTrpsckLfJKQX0zHcJ1qYDkTwuq1hUKhcKUAAnQKCJVjuA67bTT2lmu9uVD+jQe0Zx4NnIBnjWwuWpc89y7xz5al6TX+x9nuAchoOxsJ+NqDqK5Xa4Wk9hncMOGDe0ECuFDLofjilvh/8N36r/VLGP430/bu6lX5l+aA+s63KnZU4jDecvDhM8iLYuhllr7Ny79HkUAC4VCYYrQD8tagOEEDnvw2Z9Po4SsudK+5WSGYW3gUiNaQFq9bC/DLtpLw760fo4QY+ddNP6TGqNCYSWRztS6detaOc3zQiC8RVgrVd7nm34RwEKhUJgShMhlThyS5YxWR8P95Cc/GTzzzDNNqCOItGbuV4IAyp+8yQfIB+Kq0XGcnf0IHTmHrMadfySwUJhGWBn/ohe9qJ2iw3he7fiv/96Ff9+vSRCcDs02bOGAa0IXpkk1XSgU1gbII8Qumr4Mmb30pS9tc+p+/vOfN3/2C8ywKfeY5YJ8yhuDDDL2+vvRj37UZKmhX0NpIbHeJaRxOfNZKMwH6ptteJxSY46s57/85S9tmDadnGGoj7Tyv/vd71rZN+RqcZVFHjiF6RCMTd25v+AFL2iLTLk/8cQTu58tlBKHDdKHp0LIB7/268wm7TpZ/AsnXvmghc8CVvMXJ6UPOmTet7pjhUKhMEVArjIEHJJFwDsl5LDDDhs8/vjj7fxewp1f/pYbGqoQP7CqkeYP6bN4BWGV5xA++QwBLBSmDbbgASQJQsaeffbZ9txDfUOwkD/l3VQHxtw+0x9sb/PGN76xxcW45266xihY6a/TlDz0MAzNjR9ABBE/EC8jn+y4wVzpI5XyL70igIVCoTBlyIpZxImhQaNdMKdu48aNg9/+9rdtnp2zfUOulhNJTx4NTW/fvr2dQoKkanTkl1s0mEzsCoVpAkJHK2f4NyOArp7ZD3ewHLNokZNpGVbX0xIy7u1pSMu2zz77NGLGuOeerZyGYbrEuLQyLJ0jHuH1r3/94KCDDmoaQSYbaYeszpX+73//+0YqbcpeBLBQKBSmBCFLNIAhT4gTQ5hrIAxT2c7F6lszeDLsipSFDPLnHmLPbtgPbUD8Ip3D4XvDneEO5iNee+21g/vvv7+dXHLkkUfuzq+8y28Inyu7QmHaoB45pjBatsAzouc87UC9CFlEqhYD6om45EFeAho9w73c+AFaPBq+Hogd92gAJ0F9904hu1UjC4VCYUqAKIUs5Z4BjQ97iy00Cpdddtlgy5YtbYXwDTfc0I4RoxEMQeMv90GexQUha541IohewG/In4aDX8POhpts8WKjaucW33777YOXv/zlTUMpDmS0z3v/DoXCtMGcOeWW5rqHZ+SqXwyiTjhxpydliwFaOuiHnN1Lw3B0D/XLfEP10PGOjz76aLObD/hT18kJ+x3WIpBdwq0WgRQKhWkHQoesIWLklcZhv/32a5o3dojg008/3RoomjqNF/sQR/41YO4ZMi6E0HO0fOx7d1oJjaDGRqPBOEqOFvKQQw7ZHZ+w0hs31FUoTBt0bCyGUJ8QQYslYjyrO/xkTqC6YHGIIVnz/8ZBXQpxpElUP4LUp3333Xf3ogwa/3/84x/NXlrq3a9//eumqeMvkCfzbeVXh4tf8f/9739vz1koMi59ddTcP3G+8pWvLAJYBLBQKMwCyKSQsjZ8s0uo537//fdv2jiNiJXC5ggibI6A40fjpZEJCST3hHcVpyvDnb1GykpDG1DTLFqJ+Mc//rFpKsxBPO6449pwFP/RHiJ/QcnPwizA8C6iZO8/K+sRo97QAlplq+4gfMo1AqW8h2yNgrq0JwQQ+DG/EOnDR/gxv0/agIgihdI139ZQsBXL3IWbDwFM/i3Q0omrs4B3CcM6C7hQKEw7NACRS64hXrEjy9ybC0SroVGgMaCxMJykUUHgNDwaGQ2ahkEcNAgaQ42dOU7iQvA0HvxrLGxKLUw6ySC9NC60C2SqBqlv8AqFaYT646QMWL9+fasHw1DndKjwgvgx9GoI1cracfMAJ8Wtfo06CzhhQvjUpz6sev3LX/6yzQE25SJIfOqpBSIwKX35Nw8QiSwCWASwUCjMAMgqhtwK8XLPEPCEPnuGP88mlms4EED3GhWNF+2AZ4TP9hWIHcKnQaJVoF0gC7llBWJkYt9kuI/mL3mTl5KfhWnHOEI1DITJYoyDDz641RGkEOHCGUzBiNbtb3/7W3O3Ehh0vmjgDbWqU+qJjtc4AggJA8PuIaPqtWMi1U9p0voz6mwIIIxLP+8NRQCLABYKhRkAwU9mDRM/V27sezf3IYUQggbmE9IQ3nfffa2hOfbYY5vmQXzCQeIXThyM+7jxxy5xBvFbKEwzECTTGkLsxiGEqSdY6pVV8IZT1SWgXTcVI3HxY8sVGnjky358cxHApKXemV/ba9vB/F6EFF8BBBQZfPLJJ1vcPQEclz6IxxSPIoBFAAuFwioGOcdEptEkaFgeeuihwTXXXDO49NJLB+edd16bQ0QehtiVDCwUVjdqokahUCisYoT8pa+P/JkPaEK5Y6KsHjb/L6uMXWkP4r9QKKxOFAEsFAqFVYxo8pA6oOUzD/AXv/hFmzv0s5/9rA2H9cO7hUJh9aMIYKFQKKwBmFcEiKCNZG0Tw86CENu8BOYLsa8h4EJhdaMIYKFQKKxiZDg3w7s0fVYHMnl++OGHd28z0y8CKRQKqxdFAAuFQmEVo1+ti+zZ0uI73/nO7iFhsOFz9g0DfosAFgqrG2uWAGa+C4wSdBGA0256eKf09ocNN9dx6P3SBAzbJXx/jen9JRz73DN9YxO73vTxQjQT7ALPsStTpsz8TIZy3RvetemzjWBtWWEbCvug2fDZdhH8RIYUCoXVjTW7DQyCQRgiFF/60pfavjgf/OAH24aJs4KQJb+w7+F7r/xWwtyzK01Ahncg4RJP/Nos1p5g+Ub8JHzchOXOLfOFknYaEHYgHDv+hOHm3jXaCfFC0kNCc8/wK34m6TGFQmEy1JnUNbB5LG2fuX/f//732xGY9g/LaR/qlfrqqq4VCoXViTV7FnAEHMHoLGBXGzPmGJZZANIUAtWTIVs7PProo+1q00nnGdrjK+8MiBiSJbyzCaEX+r5H7KSDjNmFnL1TA0LEhHfvGtIG/DFx5zeE0dUWFO5tmpn4PfOfcPHrXj5cgT1TKBTmhvqXOupKFiB7TviwUezb3va2wTHHHNO0galXqWNVzwqF1Ys1OwQcLVIIRwQdojErQJp6EhbiZKfwj3/844PbbrutXS+++OI2yZv/+GM883vLLbe0OUC+Qb5LDCDFvouNY+1SLix/rmlY7CtmfzF2wF380exBhpb537lz5+CRRx5p4WzCza/wyR+4Fw/IS0igOLkVCoW5oQ6pW+oOoy71p370BtSzvv4XCoXViTWrAezJi/2wDAEfeuihg+c85zm7hd+0G3kPWXJl52pLh8cee2zwzW9+c3DUUUc1cmd+z0EHHdT2/ELkDAHRviGAt956a9MGOCrGkNBPf/rTtkKQ5pC9OKXl2BzaP2cfigOptJ2E42W2bdvWjqSRjgnmjs1xPE3C3Hvvve3Z2aPOXZSGyei0rwigM0f9D3kX3lE5L3nJS9q7ffGLX2z7lnGTF2ctaryGv0eZMmVGG52v1OPIPWcBq5O0gQx/kCv094XCaoWRMu3LH/7wh93GyFjO+V1paKeffvrpRc/bmp0DSCBGOH7lK19pROWMM85opGiWhB5tWMhQhLud/ZE62jrPyBkyuHHjxkZ2ka1vfetbgwMOOGBwxBFHDG6++ebBaaedNtiwYcPg29/+9uC5z31u2yPM0ND111/fSLFicvLJJw/e+c53Dl772tcOfvCDHzS7xx9/fHDjjTcO7rjjjsEJJ5zQtAf33HPP4PLLL28k8/DDD2/nG/7qV79qbk899dTguuuua0PUhoER1O9973uDI488crBp06bBgw8+2DanlQ9HVEnr/PPPH7z//e9vcey7774t7hxbVSgU5oa6SkaoMwyNoM7a/fffPzjppJMG73jHO5q7KRf9SAF/hcJqhTZJO0UB1J+9ix84K1f7k1GoPQVSaYP19evXLziO5E8b3J/z6xxvbeF84h2Vj9itWQIY8oBA0TghTTRVhGAI1bRDYf3nP//ZhnO8j3wjsHoHCBSSxR7B9X6XXXbZ4M9//nN7Z+4E/TnnnDPYunVrI2VvfvOb27dgv3379jYh/DOf+cy/Uxs0vw7OPvXUU5sGz/Dtl7/85cEFF1zQ0jSsSzunYMnH85///JamwktbqJJ9/etfH1x44YVNE0jDd+6557YhaD0c+ZBncWmY3vCGNzTS+dnPfraR2K9+9att2BjRVAG8e6FQmBvk2TABVH90tjZv3tw6g+RIpmxkLvQsyMFCYaHQViFDe0PSxmExCCDlidEw6xO0qQtBEcARIAQj3P761782YoT1Y9w0abMg+LxDeuzgV8o7LZshV5o577Rjx4427ErIf/7zn2+rnQ3hCn/22WcPPvnJTw6uvvrqJvyRsSuvvLIRwf322+8/COCZZ545eOtb39qIHQJ5/PHHD+677752kDzNIA0i0karhxi60iB+6lOfasO9wiKj0nT2KBJ3xRVXDG666aamzn7729/eSJ4rMvnqV7+6EcDbb7+9EUertdlv2bJl96KWQqGwZ4jsY573vOcN1q1b17T+0X5wJ0egCGBhtULbaGEjLZ8FUHMBYTI1KqCB67VyPSg0TFsKer97Es9889jHiQ9Q1GSK13A+IHZrlgCuBvh1TEhrfqUhVUTP3DwCHvk7/fTTmwbuzjvvHLzsZS9rPX+Fi/YOWTPfjwrcfLujjz66kTOkDIHTOGgIzjrrrKYlpBl84IEHWmF65plnBu9+97sHp5xyyuCqq65qcZ944omNgBpCli5SqRdjjqBhX0PRtqIw/0+PRP5pCs0FvOuuu1q8eijSMUSNbFrMYn6ioWkaC26L3WMrFAqFwtqANuY3v/nNfwz9jgOCZb57/I4bmu0xSvO2kHhC7uzbqS0fBndpJZ3h9xqVj9gVAZxh0P75oYicq8Lkit1z82u57bPPPm14m4bPj6dW1puIm01h+bXgw72hXcSRnQ1ikcsf/vCHbZj4kksuaRo884f0NPhDEGkF7StGe2ABCIJnT0XxI3bc+OeXvWHeaDAVfml7fvbZZ1u60UAgpt4HeaQ1NGwl78KUdqJQKBQKC8EwUYKQLdDGcAOKByNo/TBs5rZTiowikMPES3u7kHiAH3P6tZc9ERwVZ0glP9rKIoCrFCGAiFOekSx2yF4Kk1/sGanihjjFLyLmGTFzz064FIvMszN0qwDSCCpYwihoIWvyIKwrO/fcGYRS4WTvWV7MMfIsH4Zz3QsrrryXNELyhOFHPt2LPySxUCgUCoU9wSgCGPSkjAJjlL9xhC4YJl7j0psrnh7iMJqWYeM8j4J5g3MRwGpBZxgIUQ+FKmTMj0ak3CtgCBd3dgkX4sdv9vHLRHDxcKfhQ9As1rCvoEUeSKE4+3SGkTQQNdpBCLETH3ATP0grhC5EMggxZMQbf4VCoVAoLAQ0fKDtmxUgdAikkTokFbyHXTRs5t4bfudCtaQzjGjHghCkkDxXdoidZ0ZhcWWHWDEIV6+RQ9Kivev9AD/8epY+N1dhwJWJPZP8hNi5RyDZu3pO2q4g33k/dvKbeMVTJLBQKBQKCwVtm3nyNGGTMI4o5jnuc2Ep4hkX53xRregMI4TPtSdEIWE9aQuxckWschUuZA3JchU2cYZwJT7h3PPHAPvch9DlGXLvKk5XBVc88ct4HkZIbK78uZevQqFQKBQWile96lVNm2ZBIoXHKIQoGmrVvgG/jlG0U4Z2cxwsvExbtZB4aPm497BrCZgfPy5OizP79+nzEbCrOYAzjPw6pGgS+AvRGgVuyFXugd+EixuELI7DcDqj/A6nMek+8bnKh2vsmEKhUCgU9gbD26VA5tAFNIX99i3jVuUGCJjFGAhmv9XLnsSD1NkGptfwUZ4MzyMczn8f56h8/Mvufwf/B8Q38gN6WsnLAAAAAElFTkSuQmCC;" parent="1" vertex="1">
          <mxGeometry x="880" y="280" width="560.18" height="400" as="geometry" />
        </mxCell>
        <mxCell id="L34SkDO0q05u7ISoF-Z0-64" value="Admin" style="shape=process;whiteSpace=wrap;html=1;backgroundOutline=1;fontSize=15;" parent="1" vertex="1">
          <mxGeometry x="629.91" y="370" width="120" height="60" as="geometry" />
        </mxCell>
        <mxCell id="L34SkDO0q05u7ISoF-Z0-88" style="edgeStyle=orthogonalEdgeStyle;rounded=0;orthogonalLoop=1;jettySize=auto;html=1;exitX=0.25;exitY=1;exitDx=0;exitDy=0;fontSize=15;" parent="1" source="L34SkDO0q05u7ISoF-Z0-65" target="L34SkDO0q05u7ISoF-Z0-68" edge="1">
          <mxGeometry relative="1" as="geometry">
            <Array as="points">
              <mxPoint x="659.91" y="320" />
              <mxPoint x="469.91" y="320" />
            </Array>
          </mxGeometry>
        </mxCell>
        <mxCell id="L34SkDO0q05u7ISoF-Z0-89" value="autentifikasi" style="edgeLabel;html=1;align=center;verticalAlign=middle;resizable=0;points=[];fontSize=15;" parent="L34SkDO0q05u7ISoF-Z0-88" vertex="1" connectable="0">
          <mxGeometry x="-0.0719" y="-1" relative="1" as="geometry">
            <mxPoint x="-29" as="offset" />
          </mxGeometry>
        </mxCell>
        <mxCell id="L34SkDO0q05u7ISoF-Z0-65" value="Siswa" style="shape=process;whiteSpace=wrap;html=1;backgroundOutline=1;fontSize=15;" parent="1" vertex="1">
          <mxGeometry x="629.91" y="210" width="120" height="60" as="geometry" />
        </mxCell>
        <mxCell id="L34SkDO0q05u7ISoF-Z0-68" value="2. Proses Login" style="ellipse;whiteSpace=wrap;html=1;aspect=fixed;fontSize=15;" parent="1" vertex="1">
          <mxGeometry x="389.91" y="350" width="120" height="120" as="geometry" />
        </mxCell>
        <mxCell id="L34SkDO0q05u7ISoF-Z0-84" style="edgeStyle=orthogonalEdgeStyle;rounded=0;orthogonalLoop=1;jettySize=auto;html=1;exitX=1;exitY=0.5;exitDx=0;exitDy=0;fontSize=15;" parent="1" source="L34SkDO0q05u7ISoF-Z0-75" target="L34SkDO0q05u7ISoF-Z0-68" edge="1">
          <mxGeometry relative="1" as="geometry">
            <Array as="points">
              <mxPoint x="149.91" y="540" />
              <mxPoint x="149.91" y="400" />
            </Array>
          </mxGeometry>
        </mxCell>
        <mxCell id="L34SkDO0q05u7ISoF-Z0-85" value="login" style="edgeLabel;html=1;align=center;verticalAlign=middle;resizable=0;points=[];fontSize=15;" parent="L34SkDO0q05u7ISoF-Z0-84" vertex="1" connectable="0">
          <mxGeometry x="0.2376" y="-3" relative="1" as="geometry">
            <mxPoint x="-16" y="-2" as="offset" />
          </mxGeometry>
        </mxCell>
        <mxCell id="L34SkDO0q05u7ISoF-Z0-108" style="edgeStyle=orthogonalEdgeStyle;rounded=0;orthogonalLoop=1;jettySize=auto;html=1;exitX=1;exitY=0.75;exitDx=0;exitDy=0;entryX=0.007;entryY=0.375;entryDx=0;entryDy=0;entryPerimeter=0;fontSize=15;" parent="1" source="L34SkDO0q05u7ISoF-Z0-75" target="L34SkDO0q05u7ISoF-Z0-92" edge="1">
          <mxGeometry relative="1" as="geometry" />
        </mxCell>
        <mxCell id="L34SkDO0q05u7ISoF-Z0-109" value="input materi" style="edgeLabel;html=1;align=center;verticalAlign=middle;resizable=0;points=[];fontSize=15;" parent="L34SkDO0q05u7ISoF-Z0-108" vertex="1" connectable="0">
          <mxGeometry x="0.1444" y="-2" relative="1" as="geometry">
            <mxPoint as="offset" />
          </mxGeometry>
        </mxCell>
        <mxCell id="L34SkDO0q05u7ISoF-Z0-110" style="edgeStyle=orthogonalEdgeStyle;rounded=0;orthogonalLoop=1;jettySize=auto;html=1;exitX=0.5;exitY=1;exitDx=0;exitDy=0;entryX=0;entryY=0;entryDx=0;entryDy=0;fontSize=15;" parent="1" source="L34SkDO0q05u7ISoF-Z0-75" target="L34SkDO0q05u7ISoF-Z0-104" edge="1">
          <mxGeometry relative="1" as="geometry">
            <Array as="points">
              <mxPoint x="139.91" y="668" />
            </Array>
          </mxGeometry>
        </mxCell>
        <mxCell id="L34SkDO0q05u7ISoF-Z0-111" value="menambahkan soal" style="edgeLabel;html=1;align=center;verticalAlign=middle;resizable=0;points=[];fontSize=15;" parent="L34SkDO0q05u7ISoF-Z0-110" vertex="1" connectable="0">
          <mxGeometry x="0.2875" y="2" relative="1" as="geometry">
            <mxPoint as="offset" />
          </mxGeometry>
        </mxCell>
        <mxCell id="L34SkDO0q05u7ISoF-Z0-112" style="edgeStyle=orthogonalEdgeStyle;rounded=0;orthogonalLoop=1;jettySize=auto;html=1;exitX=0.25;exitY=1;exitDx=0;exitDy=0;entryX=0;entryY=0.5;entryDx=0;entryDy=0;fontSize=15;" parent="1" source="L34SkDO0q05u7ISoF-Z0-75" target="L34SkDO0q05u7ISoF-Z0-104" edge="1">
          <mxGeometry relative="1" as="geometry" />
        </mxCell>
        <mxCell id="L34SkDO0q05u7ISoF-Z0-113" value="menambahkan materi" style="edgeLabel;html=1;align=center;verticalAlign=middle;resizable=0;points=[];fontSize=15;" parent="L34SkDO0q05u7ISoF-Z0-112" vertex="1" connectable="0">
          <mxGeometry x="0.5842" y="1" relative="1" as="geometry">
            <mxPoint x="-55" as="offset" />
          </mxGeometry>
        </mxCell>
        <mxCell id="L34SkDO0q05u7ISoF-Z0-75" value="Admin" style="rounded=0;whiteSpace=wrap;html=1;fontSize=21;" parent="1" vertex="1">
          <mxGeometry x="86.91" y="510" width="120" height="60" as="geometry" />
        </mxCell>
        <mxCell id="L34SkDO0q05u7ISoF-Z0-76" value="Pembayaran" style="shape=process;whiteSpace=wrap;html=1;backgroundOutline=1;fontSize=15;" parent="1" vertex="1">
          <mxGeometry x="629.91" y="1020" width="120" height="60" as="geometry" />
        </mxCell>
        <mxCell id="L34SkDO0q05u7ISoF-Z0-90" style="edgeStyle=orthogonalEdgeStyle;rounded=0;orthogonalLoop=1;jettySize=auto;html=1;exitX=0;exitY=0.5;exitDx=0;exitDy=0;fontSize=15;" parent="1" source="L34SkDO0q05u7ISoF-Z0-64" target="L34SkDO0q05u7ISoF-Z0-68" edge="1">
          <mxGeometry relative="1" as="geometry">
            <mxPoint x="669.9099999999997" y="280" as="sourcePoint" />
            <mxPoint x="464.95" y="360" as="targetPoint" />
            <Array as="points">
              <mxPoint x="559.91" y="400" />
              <mxPoint x="559.91" y="400" />
            </Array>
          </mxGeometry>
        </mxCell>
        <mxCell id="L34SkDO0q05u7ISoF-Z0-91" value="autentifikasi" style="edgeLabel;html=1;align=center;verticalAlign=middle;resizable=0;points=[];fontSize=15;" parent="L34SkDO0q05u7ISoF-Z0-90" vertex="1" connectable="0">
          <mxGeometry x="-0.0719" y="-1" relative="1" as="geometry">
            <mxPoint as="offset" />
          </mxGeometry>
        </mxCell>
        <mxCell id="L34SkDO0q05u7ISoF-Z0-101" style="edgeStyle=orthogonalEdgeStyle;rounded=0;orthogonalLoop=1;jettySize=auto;html=1;exitX=1;exitY=0.5;exitDx=0;exitDy=0;entryX=0;entryY=0.5;entryDx=0;entryDy=0;fontSize=15;" parent="1" source="L34SkDO0q05u7ISoF-Z0-92" target="L34SkDO0q05u7ISoF-Z0-95" edge="1">
          <mxGeometry relative="1" as="geometry" />
        </mxCell>
        <mxCell id="L34SkDO0q05u7ISoF-Z0-92" value="3. Proses Kelola&lt;br&gt;Bimbel" style="ellipse;whiteSpace=wrap;html=1;aspect=fixed;fontSize=15;" parent="1" vertex="1">
          <mxGeometry x="389.91" y="507" width="120" height="120" as="geometry" />
        </mxCell>
        <mxCell id="0cTZflGvRC0s0U41Xg0D-7" style="edgeStyle=orthogonalEdgeStyle;rounded=0;orthogonalLoop=1;jettySize=auto;html=1;exitX=0.75;exitY=1;exitDx=0;exitDy=0;entryX=0.991;entryY=0.333;entryDx=0;entryDy=0;entryPerimeter=0;fontSize=15;" edge="1" parent="1" source="L34SkDO0q05u7ISoF-Z0-95" target="L34SkDO0q05u7ISoF-Z0-114">
          <mxGeometry relative="1" as="geometry">
            <Array as="points">
              <mxPoint x="710" y="590" />
              <mxPoint x="580" y="590" />
              <mxPoint x="580" y="833" />
            </Array>
          </mxGeometry>
        </mxCell>
        <mxCell id="L34SkDO0q05u7ISoF-Z0-95" value="Bimbel" style="shape=process;whiteSpace=wrap;html=1;backgroundOutline=1;fontSize=15;" parent="1" vertex="1">
          <mxGeometry x="619.91" y="537" width="120" height="60" as="geometry" />
        </mxCell>
        <mxCell id="L34SkDO0q05u7ISoF-Z0-99" style="edgeStyle=orthogonalEdgeStyle;rounded=0;orthogonalLoop=1;jettySize=auto;html=1;fontSize=15;exitX=0.5;exitY=1;exitDx=0;exitDy=0;" parent="1" source="L34SkDO0q05u7ISoF-Z0-75" target="L34SkDO0q05u7ISoF-Z0-92" edge="1">
          <mxGeometry relative="1" as="geometry">
            <mxPoint x="119.91" y="600" as="sourcePoint" />
            <mxPoint x="399.91" y="610" as="targetPoint" />
            <Array as="points">
              <mxPoint x="189.91" y="570" />
              <mxPoint x="189.91" y="585" />
            </Array>
          </mxGeometry>
        </mxCell>
        <mxCell id="L34SkDO0q05u7ISoF-Z0-100" value="input jenjang" style="edgeLabel;html=1;align=center;verticalAlign=middle;resizable=0;points=[];fontSize=15;" parent="L34SkDO0q05u7ISoF-Z0-99" vertex="1" connectable="0">
          <mxGeometry x="0.2278" y="-2" relative="1" as="geometry">
            <mxPoint y="-3" as="offset" />
          </mxGeometry>
        </mxCell>
        <mxCell id="L34SkDO0q05u7ISoF-Z0-103" style="edgeStyle=orthogonalEdgeStyle;rounded=0;orthogonalLoop=1;jettySize=auto;html=1;exitX=1;exitY=0.5;exitDx=0;exitDy=0;entryX=0;entryY=0.5;entryDx=0;entryDy=0;fontSize=15;" parent="1" source="L34SkDO0q05u7ISoF-Z0-104" target="L34SkDO0q05u7ISoF-Z0-105" edge="1">
          <mxGeometry relative="1" as="geometry" />
        </mxCell>
        <mxCell id="L34SkDO0q05u7ISoF-Z0-104" value="4. Proses Kelola&lt;br&gt;TryOut" style="ellipse;whiteSpace=wrap;html=1;aspect=fixed;fontSize=15;" parent="1" vertex="1">
          <mxGeometry x="389.91" y="650" width="120" height="120" as="geometry" />
        </mxCell>
        <mxCell id="0cTZflGvRC0s0U41Xg0D-11" style="edgeStyle=orthogonalEdgeStyle;rounded=0;orthogonalLoop=1;jettySize=auto;html=1;exitX=0.25;exitY=1;exitDx=0;exitDy=0;entryX=1;entryY=0;entryDx=0;entryDy=0;fontSize=15;" edge="1" parent="1" source="L34SkDO0q05u7ISoF-Z0-105" target="0cTZflGvRC0s0U41Xg0D-2">
          <mxGeometry relative="1" as="geometry">
            <Array as="points">
              <mxPoint x="650" y="949" />
            </Array>
          </mxGeometry>
        </mxCell>
        <mxCell id="L34SkDO0q05u7ISoF-Z0-105" value="TryOut" style="shape=process;whiteSpace=wrap;html=1;backgroundOutline=1;fontSize=15;" parent="1" vertex="1">
          <mxGeometry x="620" y="680" width="120" height="60" as="geometry" />
        </mxCell>
        <mxCell id="L34SkDO0q05u7ISoF-Z0-114" value="5. Proses Pemilihan Bimbel" style="ellipse;whiteSpace=wrap;html=1;aspect=fixed;fontSize=15;" parent="1" vertex="1">
          <mxGeometry x="379.91" y="790" width="130" height="130" as="geometry" />
        </mxCell>
        <mxCell id="0cTZflGvRC0s0U41Xg0D-2" value="6. Proses Pemilihan TryOut" style="ellipse;whiteSpace=wrap;html=1;aspect=fixed;fontSize=15;" vertex="1" parent="1">
          <mxGeometry x="384.91" y="930" width="130" height="130" as="geometry" />
        </mxCell>
        <mxCell id="0cTZflGvRC0s0U41Xg0D-3" value="7. Proses Pembayaran" style="ellipse;whiteSpace=wrap;html=1;aspect=fixed;fontSize=15;" vertex="1" parent="1">
          <mxGeometry x="384.91" y="1080" width="130" height="130" as="geometry" />
        </mxCell>
        <mxCell id="0cTZflGvRC0s0U41Xg0D-9" style="edgeStyle=orthogonalEdgeStyle;rounded=0;orthogonalLoop=1;jettySize=auto;html=1;fontSize=15;entryX=0;entryY=0.5;entryDx=0;entryDy=0;exitX=0;exitY=0.5;exitDx=0;exitDy=0;" edge="1" parent="1" source="L34SkDO0q05u7ISoF-Z0-32" target="0cTZflGvRC0s0U41Xg0D-2">
          <mxGeometry relative="1" as="geometry">
            <mxPoint x="360.0500000000002" y="828.5200000000002" as="targetPoint" />
            <Array as="points">
              <mxPoint x="30" y="240" />
              <mxPoint x="30" y="995" />
            </Array>
            <mxPoint x="80" y="252" as="sourcePoint" />
          </mxGeometry>
        </mxCell>
        <mxCell id="0cTZflGvRC0s0U41Xg0D-10" value="memilih materi" style="edgeLabel;html=1;align=center;verticalAlign=middle;resizable=0;points=[];fontSize=15;" vertex="1" connectable="0" parent="0cTZflGvRC0s0U41Xg0D-9">
          <mxGeometry x="0.1482" relative="1" as="geometry">
            <mxPoint x="177" y="152" as="offset" />
          </mxGeometry>
        </mxCell>
        <mxCell id="0cTZflGvRC0s0U41Xg0D-12" style="edgeStyle=orthogonalEdgeStyle;rounded=0;orthogonalLoop=1;jettySize=auto;html=1;fontSize=15;entryX=0;entryY=0.5;entryDx=0;entryDy=0;exitX=0;exitY=0.25;exitDx=0;exitDy=0;" edge="1" parent="1" source="L34SkDO0q05u7ISoF-Z0-32" target="0cTZflGvRC0s0U41Xg0D-3">
          <mxGeometry relative="1" as="geometry">
            <mxPoint x="374.9099999999969" y="975" as="targetPoint" />
            <Array as="points">
              <mxPoint x="110" y="220" />
              <mxPoint x="20" y="220" />
              <mxPoint x="20" y="1145" />
            </Array>
            <mxPoint x="99.91000000000008" y="220.0000000000001" as="sourcePoint" />
          </mxGeometry>
        </mxCell>
        <mxCell id="0cTZflGvRC0s0U41Xg0D-13" value="memilih materi" style="edgeLabel;html=1;align=center;verticalAlign=middle;resizable=0;points=[];fontSize=15;" vertex="1" connectable="0" parent="0cTZflGvRC0s0U41Xg0D-12">
          <mxGeometry x="0.1482" relative="1" as="geometry">
            <mxPoint x="177" y="220" as="offset" />
          </mxGeometry>
        </mxCell>
      </root>
    </mxGraphModel>
  </diagram>
</mxfile>
